<svg width="40" height="40" viewBox="0 0 40 40" fill="none" xmlns="http://www.w3.org/2000/svg">
<mask id="path-2-inside-1_389_1542" fill="white">
<path fill-rule="evenodd" clip-rule="evenodd" d="M20.5 33C27.9558 33 34 26.9558 34 19.5C34 12.0442 27.9558 6 20.5 6C13.0442 6 7 12.0442 7 19.5C7 23.0362 8.3596 26.2548 10.5846 28.6617L9.52733 32.8907C9.32011 33.7195 10.1805 34.4097 10.9447 34.0277L15.1786 31.9107C16.8114 32.6118 18.6104 33 20.5 33Z"/>
</mask>
<path d="M10.5846 28.6617L11.7488 28.9527C11.8469 28.56 11.7405 28.1443 11.4657 27.8471L10.5846 28.6617ZM9.52733 32.8907L10.6915 33.1817L9.52733 32.8907ZM10.9447 34.0277L11.4813 35.101H11.4813L10.9447 34.0277ZM15.1786 31.9107L15.652 30.808C15.3274 30.6687 14.9579 30.6794 14.6419 30.8374L15.1786 31.9107ZM32.8 19.5C32.8 26.2931 27.2931 31.8 20.5 31.8V34.2C28.6186 34.2 35.2 27.6186 35.2 19.5H32.8ZM20.5 7.2C27.2931 7.2 32.8 12.7069 32.8 19.5H35.2C35.2 11.3814 28.6186 4.8 20.5 4.8V7.2ZM8.2 19.5C8.2 12.7069 13.7069 7.2 20.5 7.2V4.8C12.3814 4.8 5.8 11.3814 5.8 19.5H8.2ZM11.4657 27.8471C9.43766 25.6532 8.2 22.7225 8.2 19.5H5.8C5.8 23.3499 7.28154 26.8564 9.70341 29.4763L11.4657 27.8471ZM10.6915 33.1817L11.7488 28.9527L9.42041 28.3706L8.36315 32.5997L10.6915 33.1817ZM10.408 32.9543C10.4335 32.9416 10.4772 32.9314 10.5257 32.9377C10.5686 32.9432 10.6006 32.9595 10.6226 32.9772C10.6446 32.9949 10.6675 33.0225 10.6822 33.0632C10.6989 33.1092 10.6984 33.1542 10.6915 33.1817L8.36315 32.5997C7.90729 34.4231 9.8002 35.9415 11.4813 35.101L10.408 32.9543ZM14.6419 30.8374L10.408 32.9543L11.4813 35.101L15.7152 32.984L14.6419 30.8374ZM20.5 31.8C18.7761 31.8 17.138 31.4461 15.652 30.808L14.7052 33.0134C16.4848 33.7775 18.4446 34.2 20.5 34.2V31.8Z" fill="#A8B0B7" mask="url(#path-2-inside-1_389_1542)"/>
<path d="M19.1634 22.5227V22.4503C19.1714 21.6816 19.2519 21.0698 19.4048 20.6151C19.5578 20.1603 19.7751 19.792 20.0568 19.5103C20.3385 19.2286 20.6766 18.969 21.071 18.7315C21.3085 18.5866 21.5218 18.4156 21.7109 18.2184C21.9001 18.0172 22.049 17.7857 22.1577 17.5241C22.2704 17.2625 22.3267 16.9728 22.3267 16.6548C22.3267 16.2604 22.2341 15.9183 22.049 15.6286C21.8639 15.3388 21.6164 15.1154 21.3065 14.9585C20.9966 14.8015 20.6525 14.723 20.2741 14.723C19.9441 14.723 19.6262 14.7914 19.3203 14.9283C19.0144 15.0651 18.7589 15.2804 18.5536 15.5742C18.3484 15.868 18.2296 16.2524 18.1974 16.7273H16.6761C16.7083 16.0431 16.8854 15.4575 17.2074 14.9705C17.5334 14.4835 17.962 14.1113 18.4933 13.8537C19.0285 13.5961 19.6222 13.4673 20.2741 13.4673C20.9825 13.4673 21.5982 13.6082 22.1214 13.8899C22.6487 14.1716 23.0552 14.558 23.3409 15.049C23.6307 15.54 23.7756 16.0994 23.7756 16.7273C23.7756 17.17 23.7071 17.5704 23.5703 17.9286C23.4375 18.2868 23.2443 18.6068 22.9908 18.8885C22.7412 19.1702 22.4394 19.4197 22.0852 19.6371C21.7311 19.8584 21.4473 20.0919 21.234 20.3374C21.0207 20.5788 20.8658 20.8666 20.7692 21.2006C20.6726 21.5347 20.6203 21.9512 20.6122 22.4503V22.5227H19.1634ZM19.9361 26.0966C19.6383 26.0966 19.3827 25.9899 19.1694 25.7766C18.9561 25.5633 18.8494 25.3078 18.8494 25.0099C18.8494 24.7121 18.9561 24.4566 19.1694 24.2433C19.3827 24.0299 19.6383 23.9233 19.9361 23.9233C20.2339 23.9233 20.4895 24.0299 20.7028 24.2433C20.9161 24.4566 21.0227 24.7121 21.0227 25.0099C21.0227 25.2071 20.9724 25.3883 20.8718 25.5533C20.7752 25.7183 20.6444 25.8511 20.4794 25.9517C20.3184 26.0483 20.1373 26.0966 19.9361 26.0966Z" fill="#A8B0B7"/>
</svg>
