<svg width="40" height="40" viewBox="0 0 40 40" fill="none" xmlns="http://www.w3.org/2000/svg">
<rect width="40" height="40" rx="5" fill="#0370F3"/>
<rect x="7.6" y="12.6" width="24.8" height="18.8" rx="2.4" stroke="white" stroke-width="1.2"/>
<path d="M20.7898 24.6364L18.5085 29H17.3722L16.5455 24.6364H17.6023L18.0682 27.8778H18.1136L19.6562 24.6364H20.7898ZM20.3741 29L21.1014 24.6364H22.1298L21.4026 29H20.3741ZM21.7662 24.0114C21.6014 24.0114 21.4651 23.9564 21.3571 23.8466C21.2491 23.7367 21.2018 23.6051 21.2151 23.4517C21.2283 23.2983 21.2974 23.1667 21.4224 23.0568C21.5493 22.947 21.6942 22.892 21.8571 22.892C22.0219 22.892 22.1573 22.947 22.2634 23.0568C22.3713 23.1667 22.4187 23.2983 22.4054 23.4517C22.394 23.6051 22.3249 23.7367 22.198 23.8466C22.073 23.9564 21.9291 24.0114 21.7662 24.0114ZM26.0402 25.7898L25.0942 25.892C25.0847 25.7955 25.0554 25.7055 25.0061 25.6222C24.9569 25.5388 24.883 25.4725 24.7845 25.4233C24.6879 25.3722 24.5629 25.3466 24.4095 25.3466C24.186 25.3466 23.99 25.3968 23.8214 25.4972C23.6529 25.5975 23.5572 25.7263 23.5345 25.8835C23.5137 26.0009 23.5421 26.0966 23.6197 26.1705C23.6974 26.2443 23.8413 26.3068 24.0516 26.358L24.7732 26.517C25.1709 26.6061 25.4569 26.75 25.6311 26.9489C25.8072 27.1477 25.8688 27.4081 25.8158 27.7301C25.7703 27.9991 25.6529 28.2358 25.4635 28.4403C25.2741 28.643 25.0317 28.8011 24.7362 28.9148C24.4427 29.0284 24.1169 29.0852 23.7589 29.0852C23.2154 29.0852 22.7968 28.9725 22.5033 28.7472C22.2116 28.5199 22.0667 28.2074 22.0686 27.8097L23.08 27.7131C23.0913 27.91 23.1605 28.0587 23.2874 28.1591C23.4143 28.2576 23.5904 28.3078 23.8158 28.3097C24.0696 28.3116 24.2836 28.2585 24.4578 28.1506C24.6339 28.0407 24.7334 27.9072 24.7561 27.75C24.775 27.6326 24.7457 27.5369 24.668 27.4631C24.5923 27.3892 24.4569 27.3305 24.2618 27.2869L23.5459 27.1307C23.1406 27.0417 22.8518 26.8911 22.6794 26.679C22.5089 26.465 22.4512 26.1951 22.5061 25.8693C22.5516 25.6042 22.6624 25.3759 22.8385 25.1847C23.0165 24.9915 23.2447 24.8428 23.5232 24.7386C23.8016 24.6326 24.1131 24.5795 24.4578 24.5795C24.9768 24.5795 25.3679 24.6884 25.6311 24.9062C25.8944 25.1241 26.0307 25.4186 26.0402 25.7898ZM27.295 29.0881C27.0185 29.0881 26.778 29.0388 26.5734 28.9403C26.3689 28.84 26.2183 28.6922 26.1217 28.4972C26.027 28.3021 26.0034 28.0616 26.0507 27.7756C26.0924 27.5294 26.1719 27.3258 26.2893 27.1648C26.4087 27.0038 26.5545 26.875 26.7268 26.7784C26.9011 26.6799 27.0905 26.6061 27.295 26.5568C27.5015 26.5076 27.7117 26.4716 27.9257 26.4489C28.1871 26.4223 28.3982 26.3977 28.5592 26.375C28.7221 26.3523 28.8443 26.3182 28.9257 26.2727C29.0071 26.2254 29.0564 26.1534 29.0734 26.0568V26.0398C29.1075 25.8258 29.0734 25.66 28.9712 25.5426C28.8689 25.4252 28.6984 25.3665 28.4598 25.3665C28.2098 25.3665 27.9996 25.4214 27.8291 25.5312C27.6587 25.6411 27.5346 25.7708 27.457 25.9205L26.5251 25.7841C26.6426 25.5189 26.8036 25.2973 27.0081 25.1193C27.2126 24.9394 27.4484 24.8049 27.7155 24.7159C27.9844 24.625 28.2714 24.5795 28.5763 24.5795C28.7846 24.5795 28.9882 24.6042 29.1871 24.6534C29.3878 24.7027 29.5649 24.7841 29.7183 24.8977C29.8736 25.0095 29.9873 25.1619 30.0592 25.3551C30.1331 25.5483 30.1454 25.7898 30.0962 26.0795L29.6104 29H28.6217L28.724 28.4006H28.6899C28.6085 28.5218 28.5024 28.6354 28.3717 28.7415C28.2411 28.8456 28.0857 28.9299 27.9058 28.9943C27.7259 29.0568 27.5223 29.0881 27.295 29.0881ZM27.6842 28.3324C27.8907 28.3324 28.0763 28.2917 28.2411 28.2102C28.4058 28.1269 28.5412 28.017 28.6473 27.8807C28.7534 27.7443 28.8196 27.5956 28.8462 27.4347L28.9314 26.9205C28.8935 26.947 28.8348 26.9716 28.7553 26.9943C28.6757 27.017 28.5867 27.0369 28.4882 27.054C28.3916 27.071 28.296 27.0862 28.2013 27.0994C28.1066 27.1127 28.0251 27.1241 27.957 27.1335C27.7998 27.1544 27.6558 27.1884 27.5251 27.2358C27.3964 27.2831 27.2893 27.3494 27.2041 27.4347C27.1208 27.518 27.0687 27.6259 27.0479 27.7585C27.0176 27.946 27.0621 28.089 27.1814 28.1875C27.3007 28.2841 27.4683 28.3324 27.6842 28.3324Z" fill="white"/>
<path fill-rule="evenodd" clip-rule="evenodd" d="M13.33 12L24.7664 8.9356C25.7266 8.67831 26.7136 9.24815 26.9709 10.2084L27.451 12H28.6933L28.1301 9.89781C27.7012 8.29741 26.0562 7.34766 24.4558 7.77649L12.8979 10.8734C12.2102 11.0577 11.6426 11.4666 11.2529 12H13.33Z" fill="white"/>
</svg>
