<svg width="60" height="60" viewBox="0 0 60 60" fill="none" xmlns="http://www.w3.org/2000/svg">
<g clip-path="url(#clip0_371_1499)">
<rect width="60" height="60" rx="30" fill="white"/>
<path d="M53.5439 50.5706C53.4092 50.2829 53.4573 49.9171 53.1325 49.7089C52.7558 49.4677 52.4735 49.1287 52.1837 48.7993C51.011 47.9295 49.7756 47.1489 48.485 46.4601C47.0799 45.7103 45.63 45.0442 44.1286 44.491C42.8193 43.8725 41.5627 43.1428 40.1615 42.719C40.0756 42.6045 39.9599 42.5349 39.8191 42.5025C39.1349 42.1523 38.4879 41.7034 37.661 41.7314C37.3245 41.6883 36.9882 41.6452 36.6517 41.6024C36.4885 41.243 36.4574 40.8734 36.4902 40.4801C36.5569 39.6811 36.5838 38.879 36.6271 38.078C36.7064 37.9131 36.7798 37.7456 36.8659 37.584C37.4091 36.5632 37.6897 35.4743 37.7667 34.3315C37.8091 34.1126 37.8516 33.8937 37.8939 33.6749C38.1762 33.4203 38.618 33.4863 38.8876 33.1915C39.2835 32.7589 39.405 32.2317 39.486 31.6852C39.6438 31.4097 39.7763 31.1253 39.8237 30.8094C40.3397 29.7248 40.0924 28.6506 39.7603 27.5844C39.6903 27.3594 39.53 27.0622 39.318 27.0421C38.8341 26.9959 38.9207 26.6964 38.9112 26.4235C38.9158 26.3249 38.9234 26.1642 38.9282 26.0655C39.0029 25.4361 39.0775 24.8068 39.1522 24.1776C39.3447 22.9356 39.1232 21.7104 38.9842 20.4826C38.982 20.4627 38.972 20.4436 38.9574 20.4249C38.8631 20.304 38.8055 20.1599 38.8047 20.0082V19.9793C38.7931 19.5257 38.4838 19.1881 38.3184 18.7944C38.1047 18.168 38.0709 17.9603 37.5552 17.4953L37.1956 17.2263C36.9529 16.9644 36.7217 16.6871 36.3971 16.5347C36.1117 16.4005 35.8522 16.2195 35.6268 16.003L35.6222 15.9987C35.3445 15.9171 35.09 15.782 34.8232 15.6746C34.7882 15.6646 34.7525 15.6611 34.716 15.6642C34.7148 15.6606 34.7133 15.6573 34.7121 15.6538C34.6628 15.5302 34.5341 15.464 34.3982 15.4657C34.3182 15.4666 34.2465 15.3883 34.1449 15.3154C33.8276 15.0878 33.5572 14.7691 33.1417 14.7087C33.1278 14.6952 33.1122 14.6843 33.0994 14.6699C33.0765 14.6614 33.0476 14.6505 33.025 14.642C32.8406 14.6505 32.7592 14.4156 32.5622 14.4544C31.8355 14.209 31.1031 13.996 30.3326 14.0001C30.1109 14.0012 29.8891 14.0012 29.6674 14.0001C28.8971 13.996 28.1648 14.2088 27.438 14.4541C27.241 14.4156 27.1596 14.6503 26.9753 14.6418C26.9524 14.6503 26.9235 14.6612 26.9009 14.6697C26.888 14.6841 26.8722 14.695 26.8586 14.7085C26.443 14.7688 26.1727 15.0875 25.8554 15.3152C25.7537 15.388 25.6823 15.4664 25.602 15.4654C25.4659 15.4638 25.3372 15.53 25.2881 15.6535C25.2867 15.6568 25.2854 15.6604 25.2842 15.6639C25.2478 15.6609 25.212 15.6644 25.177 15.6743C25.0642 15.7198 24.9535 15.7702 24.8424 15.8194C24.5032 15.9696 24.1935 16.1757 23.9282 16.4303L23.9236 16.4346C23.4166 16.5191 23.12 16.8853 22.8046 17.2261C22.4426 17.497 22.1535 17.8488 21.9614 18.2518C21.8941 18.3931 21.8182 18.5556 21.6818 18.7941C21.5165 19.1878 21.2072 19.5257 21.1958 19.9791V20.008C21.195 20.1596 21.1374 20.3037 21.0431 20.4246C21.0285 20.4433 21.0185 20.4625 21.0163 20.4824C20.8692 21.7807 20.63 23.0761 20.8858 24.3917C20.948 24.943 21.0098 25.4922 21.072 26.0435L21.0885 26.4467C21.0842 26.7129 21.1525 26.9969 20.6822 27.0418C20.4702 27.0619 20.3102 27.3591 20.24 27.5841C19.9078 28.6503 19.6603 29.7248 20.1765 30.8092C20.2239 31.1249 20.3567 31.4095 20.5142 31.6849C20.5952 32.2315 20.7168 32.7587 21.1126 33.1912C21.3823 33.486 21.824 33.42 22.1063 33.6746C22.1486 33.8935 22.1912 34.1124 22.2335 34.3312C22.3106 35.4738 22.5912 36.563 23.1343 37.5837C23.2202 37.7453 23.2938 37.9129 23.3731 38.0778C23.4164 38.8787 23.4434 39.6809 23.51 40.4799C23.5428 40.8732 23.5117 41.2428 23.3486 41.6019C23.012 41.645 22.6758 41.6878 22.3393 41.7309C21.5123 41.703 20.8656 42.1518 20.1811 42.502C20.0406 42.5344 19.9248 42.604 19.8388 42.7183C18.4375 43.1421 17.1807 43.872 15.8716 44.4905C14.3702 45.0437 12.9204 45.7098 11.5152 46.4597C10.5317 46.9847 9.58005 47.5628 8.66388 48.1933C8.19851 48.5135 7.77179 48.8831 7.37765 49.2837C7.22277 49.441 7.00175 49.5304 6.86754 49.7084C6.585 50.0834 6.5906 50.2822 6.45614 50.5701C6.12887 50.9939 6.20035 51.5379 6 52L8.39788 60.0111C8.37868 59.9998 8.33977 51.9773 8.31595 51.9657C8.32348 51.9657 8.33102 51.9681 8.33856 51.9681C8.35339 51.9681 8.38305 60 8.39788 60.0111H51.6024C51.6172 60 51.6469 51.9683 51.6617 51.9681C51.6692 51.9681 51.6768 51.9657 51.6843 51.9657C51.6605 51.9773 51.6216 59.9998 51.6024 60.0111L54 52C53.7996 51.5379 53.8711 50.9944 53.5439 50.5706ZM28.3554 20.5292C28.3532 20.5292 28.3512 20.5287 28.3491 20.5287L28.3503 20.5231C28.3517 20.5254 28.3539 20.5266 28.3554 20.5292ZM31.6451 20.5292C31.6466 20.5269 31.6488 20.5252 31.6502 20.5228L31.6514 20.5285C31.6492 20.5285 31.6473 20.5292 31.6451 20.5292Z" fill="#D6DEE6"/>
</g>
<rect x="1.5" y="1.5" width="57" height="57" rx="28.5" stroke="#0370F3" stroke-width="3"/>
<defs>
<clipPath id="clip0_371_1499">
<rect width="60" height="60" rx="30" fill="white"/>
</clipPath>
</defs>
</svg>
