<svg width="910" height="139" viewBox="0 0 910 139" fill="none" xmlns="http://www.w3.org/2000/svg">
<rect y="7" width="170" height="112" rx="13.3832" fill="#6ED375"/>
<path d="M53.5096 36V24.7581H58.1349C59.1306 24.7581 59.9818 24.9187 60.6884 25.2399C61.4057 25.5611 61.9571 26.0215 62.3426 26.621C62.728 27.2206 62.9207 27.9326 62.9207 28.757C62.9207 29.5814 62.728 30.2934 62.3426 30.893C61.9571 31.4925 61.4057 31.9529 60.6884 32.2741C59.9818 32.5953 59.1306 32.7559 58.1349 32.7559H54.6659L55.5974 31.7763V36H53.5096ZM55.5974 32.0011L54.6659 30.9893H58.0385C58.9593 30.9893 59.6499 30.7966 60.1102 30.4112C60.5813 30.015 60.8169 29.4636 60.8169 28.757C60.8169 28.0397 60.5813 27.4883 60.1102 27.1028C59.6499 26.7174 58.9593 26.5247 58.0385 26.5247H54.6659L55.5974 25.4968V32.0011ZM69.2152 36V34.2655L69.1028 33.8962V30.8608C69.1028 30.272 68.9261 29.8169 68.5728 29.4957C68.2195 29.1638 67.6841 28.9979 66.9668 28.9979C66.485 28.9979 66.0086 29.0728 65.5375 29.2227C65.0771 29.3726 64.6863 29.5814 64.3651 29.8491L63.5782 28.3876C64.0386 28.0343 64.5846 27.772 65.2163 27.6007C65.8587 27.4187 66.5225 27.3277 67.2077 27.3277C68.4497 27.3277 69.4079 27.6274 70.0824 28.227C70.7676 28.8159 71.1103 29.7313 71.1103 30.9733V36H69.2152ZM66.5171 36.1124C65.8747 36.1124 65.3126 36.0054 64.8308 35.7912C64.349 35.5664 63.9743 35.2612 63.7067 34.8758C63.4497 34.4797 63.3212 34.0353 63.3212 33.5428C63.3212 33.061 63.4336 32.6274 63.6585 32.242C63.894 31.8565 64.2741 31.5514 64.7987 31.3266C65.3233 31.1017 66.0193 30.9893 66.8865 30.9893H69.3758V32.3223H67.031C66.3458 32.3223 65.8854 32.4347 65.6499 32.6595C65.4144 32.8737 65.2966 33.1413 65.2966 33.4625C65.2966 33.8266 65.4411 34.1156 65.7302 34.3298C66.0193 34.5439 66.4208 34.651 66.9347 34.651C67.4272 34.651 67.8662 34.5386 68.2516 34.3137C68.6477 34.0889 68.9315 33.757 69.1028 33.318L69.44 34.5225C69.2473 35.0257 68.8993 35.4165 68.3961 35.6949C67.9036 35.9732 67.2773 36.1124 66.5171 36.1124ZM73.4334 39.228C73.0159 39.228 72.5983 39.1584 72.1807 39.0193C71.7632 38.8801 71.4152 38.6874 71.1369 38.4411L71.9399 36.9636C72.1433 37.1456 72.3735 37.2901 72.6304 37.3972C72.8874 37.5043 73.1497 37.5578 73.4174 37.5578C73.7814 37.5578 74.0758 37.4668 74.3007 37.2848C74.5255 37.1028 74.7343 36.7976 74.927 36.3694L75.4248 35.2452L75.5854 35.0043L78.8295 27.424H80.7567L76.7418 36.6906C76.4741 37.333 76.1743 37.8415 75.8424 38.2163C75.5212 38.591 75.1572 38.8533 74.7503 39.0032C74.3542 39.1531 73.9152 39.228 73.4334 39.228ZM75.2 36.3051L71.3296 27.424H73.4174L76.5651 34.8276L75.2 36.3051ZM85.9621 36.1124C85.2341 36.1124 84.5863 35.9518 84.0189 35.6306C83.4514 35.3094 83.0018 34.8276 82.6699 34.1852C82.3487 33.5321 82.1881 32.7077 82.1881 31.712C82.1881 30.7056 82.354 29.8812 82.6859 29.2388C83.0285 28.5964 83.4836 28.12 84.051 27.8095C84.6292 27.4883 85.2662 27.3277 85.9621 27.3277C86.808 27.3277 87.5521 27.5097 88.1945 27.8737C88.8476 28.2377 89.3615 28.7463 89.7362 29.3994C90.1216 30.0525 90.3144 30.8234 90.3144 31.712C90.3144 32.6007 90.1216 33.3715 89.7362 34.0246C89.3615 34.6777 88.8476 35.1917 88.1945 35.5664C87.5521 35.9304 86.808 36.1124 85.9621 36.1124ZM81.2084 36V24.0836H83.2159V29.4154L83.0553 31.696L83.1195 33.9765V36H81.2084ZM85.7373 34.394C86.2191 34.394 86.6474 34.2869 87.0221 34.0728C87.4075 33.8587 87.7127 33.5482 87.9375 33.1413C88.1623 32.7345 88.2748 32.258 88.2748 31.712C88.2748 31.1553 88.1623 30.6788 87.9375 30.2827C87.7127 29.8758 87.4075 29.5653 87.0221 29.3512C86.6474 29.1371 86.2191 29.03 85.7373 29.03C85.2555 29.03 84.8219 29.1371 84.4364 29.3512C84.051 29.5653 83.7459 29.8758 83.521 30.2827C83.2962 30.6788 83.1838 31.1553 83.1838 31.712C83.1838 32.258 83.2962 32.7345 83.521 33.1413C83.7459 33.5482 84.051 33.8587 84.4364 34.0728C84.8219 34.2869 85.2555 34.394 85.7373 34.394ZM96.5891 36V34.2655L96.4767 33.8962V30.8608C96.4767 30.272 96.3001 29.8169 95.9467 29.4957C95.5934 29.1638 95.0581 28.9979 94.3408 28.9979C93.859 28.9979 93.3825 29.0728 92.9114 29.2227C92.451 29.3726 92.0603 29.5814 91.7391 29.8491L90.9521 28.3876C91.4125 28.0343 91.9585 27.772 92.5902 27.6007C93.2326 27.4187 93.8964 27.3277 94.5817 27.3277C95.8236 27.3277 96.7819 27.6274 97.4564 28.227C98.1416 28.8159 98.4842 29.7313 98.4842 30.9733V36H96.5891ZM93.8911 36.1124C93.2487 36.1124 92.6866 36.0054 92.2048 35.7912C91.723 35.5664 91.3483 35.2612 91.0806 34.8758C90.8236 34.4797 90.6952 34.0353 90.6952 33.5428C90.6952 33.061 90.8076 32.6274 91.0324 32.242C91.268 31.8565 91.648 31.5514 92.1727 31.3266C92.6973 31.1017 93.3932 30.9893 94.2605 30.9893H96.7497V32.3223H94.405C93.7198 32.3223 93.2594 32.4347 93.0238 32.6595C92.7883 32.8737 92.6705 33.1413 92.6705 33.4625C92.6705 33.8266 92.8151 34.1156 93.1041 34.3298C93.3932 34.5439 93.7947 34.651 94.3086 34.651C94.8011 34.651 95.2401 34.5386 95.6255 34.3137C96.0217 34.0889 96.3054 33.757 96.4767 33.318L96.814 34.5225C96.6213 35.0257 96.2733 35.4165 95.7701 35.6949C95.2776 35.9732 94.6512 36.1124 93.8911 36.1124ZM104.208 36.1124C103.309 36.1124 102.506 35.9251 101.799 35.5503C101.103 35.1649 100.557 34.6403 100.161 33.9765C99.7647 33.3126 99.5666 32.5578 99.5666 31.712C99.5666 30.8555 99.7647 30.1007 100.161 29.4476C100.557 28.7838 101.103 28.2645 101.799 27.8898C102.506 27.515 103.309 27.3277 104.208 27.3277C105.043 27.3277 105.776 27.499 106.408 27.8416C107.051 28.1735 107.538 28.666 107.87 29.3191L106.328 30.2184C106.071 29.8116 105.755 29.5118 105.38 29.3191C105.016 29.1264 104.62 29.03 104.192 29.03C103.699 29.03 103.255 29.1371 102.859 29.3512C102.463 29.5653 102.152 29.8758 101.927 30.2827C101.703 30.6788 101.59 31.1553 101.59 31.712C101.59 32.2688 101.703 32.7506 101.927 33.1574C102.152 33.5535 102.463 33.8587 102.859 34.0728C103.255 34.2869 103.699 34.394 104.192 34.394C104.62 34.394 105.016 34.2977 105.38 34.1049C105.755 33.9122 106.071 33.6124 106.328 33.2056L107.87 34.1049C107.538 34.7473 107.051 35.2452 106.408 35.5985C105.776 35.9411 105.043 36.1124 104.208 36.1124ZM110.362 34.0889L110.41 31.5675L114.891 27.424H117.299L113.493 31.2463L112.433 32.1296L110.362 34.0889ZM108.724 36V24.0836H110.731V36H108.724ZM115.196 36L112.064 32.1296L113.333 30.5236L117.637 36H115.196Z" fill="white"/>
<path d="M37.9556 86.5313V84.0019L47.6517 71.3266H51.5583L42.0027 84.0019L40.1758 83.4398H55.774V86.5313H37.9556ZM48.7478 91V86.5313L48.8602 83.4398V79.477H52.289V91H48.7478ZM68.5077 91V83.215L69.3227 85.4634L60.7789 71.3266H64.6854L71.543 82.7091H69.3508L76.2646 71.3266H79.862L71.3182 85.4634L72.1613 83.215V91H68.5077ZM85.8923 91.1967C84.2247 91.1967 82.7632 90.8688 81.5079 90.2131C80.2713 89.5386 79.3064 88.6205 78.6131 87.4588C77.9386 86.2971 77.6013 84.9762 77.6013 83.496C77.6013 81.9971 77.9292 80.6762 78.585 79.5332C79.2595 78.3716 80.1776 77.4629 81.3393 76.8071C82.5197 76.1513 83.8593 75.8234 85.3583 75.8234C86.8197 75.8234 88.1219 76.1419 89.2648 76.779C90.4078 77.416 91.3071 78.3154 91.9629 79.477C92.6187 80.6387 92.9466 82.0065 92.9466 83.5803C92.9466 83.7302 92.9372 83.8989 92.9184 84.0862C92.9184 84.2736 92.9091 84.4516 92.8903 84.6202H80.3837V82.2875H91.0354L89.6583 83.0182C89.677 82.1564 89.499 81.3975 89.1243 80.7417C88.7496 80.086 88.2343 79.5707 87.5785 79.196C86.9415 78.8213 86.2014 78.6339 85.3583 78.6339C84.4964 78.6339 83.7375 78.8213 83.0818 79.196C82.4447 79.5707 81.9388 80.0953 81.5641 80.7699C81.2081 81.4256 81.0301 82.2032 81.0301 83.1026V83.6646C81.0301 84.564 81.2362 85.3603 81.6484 86.0536C82.0606 86.7468 82.6415 87.2808 83.3909 87.6555C84.1404 88.0303 85.0023 88.2176 85.9766 88.2176C86.8197 88.2176 87.5785 88.0865 88.2531 87.8242C88.9276 87.5618 89.5271 87.1496 90.0518 86.5875L91.9348 88.7516C91.2603 89.5386 90.4078 90.1475 89.3772 90.5784C88.3655 90.9906 87.2038 91.1967 85.8923 91.1967ZM103.751 91V87.9647L103.554 87.3183V82.0065C103.554 80.976 103.245 80.1797 102.626 79.6176C102.008 79.0367 101.071 78.7463 99.816 78.7463C98.9728 78.7463 98.1391 78.8775 97.3147 79.1398C96.509 79.4021 95.8251 79.7674 95.263 80.2359L93.8859 77.6783C94.6915 77.06 95.6471 76.601 96.7526 76.3012C97.8768 75.9827 99.0384 75.8234 100.238 75.8234C102.411 75.8234 104.088 76.348 105.268 77.3973C106.467 78.4278 107.067 80.0298 107.067 82.2032V91H103.751ZM99.0291 91.1967C97.9049 91.1967 96.9212 91.0094 96.078 90.6346C95.2349 90.2412 94.5791 89.7072 94.1107 89.0327C93.661 88.3394 93.4362 87.5618 93.4362 86.7C93.4362 85.8568 93.6329 85.098 94.0264 84.4235C94.4386 83.749 95.1037 83.215 96.0218 82.8215C96.9399 82.428 98.1578 82.2313 99.6755 82.2313H104.032V84.564H99.9284C98.7293 84.564 97.9236 84.7607 97.5114 85.1542C97.0992 85.5289 96.8931 85.9973 96.8931 86.5594C96.8931 87.1965 97.146 87.7024 97.6519 88.0771C98.1578 88.4518 98.8604 88.6392 99.7598 88.6392C100.622 88.6392 101.39 88.4425 102.064 88.049C102.758 87.6555 103.254 87.0747 103.554 86.3065L104.144 88.4144C103.807 89.295 103.198 89.9789 102.317 90.466C101.455 90.9532 100.359 91.1967 99.0291 91.1967ZM110.17 91V75.992H113.515V80.1234L113.121 78.9149C113.571 77.9032 114.274 77.135 115.229 76.6103C116.204 76.0857 117.412 75.8234 118.855 75.8234V79.1679C118.705 79.1304 118.564 79.1117 118.433 79.1117C118.302 79.0929 118.171 79.0836 118.04 79.0836C116.709 79.0836 115.651 79.477 114.864 80.264C114.077 81.0322 113.684 82.1845 113.684 83.7209V91H110.17ZM125.204 91.1967C123.949 91.1967 122.74 91.0375 121.579 90.719C120.436 90.3817 119.527 89.9789 118.853 89.5104L120.202 86.8405C120.876 87.2714 121.682 87.6274 122.619 87.9085C123.555 88.1895 124.492 88.33 125.429 88.33C126.535 88.33 127.331 88.1802 127.818 87.8804C128.324 87.5806 128.577 87.1777 128.577 86.6719C128.577 86.2597 128.408 85.9505 128.071 85.7444C127.734 85.5196 127.293 85.3509 126.75 85.2385C126.207 85.1261 125.598 85.023 124.923 84.9294C124.267 84.8357 123.602 84.7139 122.928 84.564C122.272 84.3954 121.672 84.1612 121.129 83.8614C120.586 83.5429 120.145 83.1213 119.808 82.5967C119.471 82.072 119.302 81.3788 119.302 80.5169C119.302 79.5613 119.574 78.7369 120.117 78.0437C120.661 77.3317 121.419 76.7883 122.394 76.4136C123.387 76.0201 124.558 75.8234 125.907 75.8234C126.919 75.8234 127.94 75.9358 128.97 76.1607C130.001 76.3855 130.853 76.704 131.528 77.1162L130.179 79.7862C129.467 79.3552 128.745 79.0648 128.015 78.9149C127.303 78.7463 126.591 78.662 125.879 78.662C124.811 78.662 124.015 78.8213 123.49 79.1398C122.984 79.4583 122.731 79.8611 122.731 80.3483C122.731 80.798 122.9 81.1352 123.237 81.3601C123.574 81.5849 124.015 81.7629 124.558 81.894C125.101 82.0252 125.701 82.1376 126.357 82.2313C127.031 82.3062 127.696 82.428 128.352 82.5967C129.008 82.7653 129.607 82.9995 130.151 83.2993C130.713 83.5803 131.162 83.9832 131.5 84.5078C131.837 85.0324 132.006 85.7163 132.006 86.5594C132.006 87.4963 131.725 88.3113 131.162 89.0046C130.619 89.6978 129.842 90.2412 128.83 90.6346C127.818 91.0094 126.61 91.1967 125.204 91.1967Z" fill="white"/>
<path d="M1 54H170" stroke="white" stroke-opacity="0.2" stroke-width="0.669162"/>
<g filter="url(#filter0_d_2014_59)">
<rect x="202" y="7" width="193" height="112" rx="13.3832" fill="white"/>
</g>
<path d="M256.51 36V24.7581H261.777C263.126 24.7581 264.154 25.0257 264.861 25.5611C265.567 26.0857 265.921 26.7923 265.921 27.681C265.921 28.2805 265.782 28.7945 265.503 29.2227C265.225 29.6403 264.85 29.9668 264.379 30.2024C263.919 30.4272 263.415 30.5396 262.869 30.5396L263.158 29.9615C263.79 29.9615 264.358 30.0793 264.861 30.3148C265.364 30.5396 265.76 30.8715 266.049 31.3105C266.349 31.7495 266.499 32.2955 266.499 32.9486C266.499 33.9122 266.129 34.6617 265.391 35.197C264.652 35.7323 263.555 36 262.098 36H256.51ZM258.597 34.3619H261.97C262.752 34.3619 263.351 34.2334 263.769 33.9765C264.186 33.7195 264.395 33.3073 264.395 32.7398C264.395 32.1831 264.186 31.7763 263.769 31.5193C263.351 31.2516 262.752 31.1178 261.97 31.1178H258.437V29.4957H261.552C262.28 29.4957 262.837 29.3673 263.223 29.1103C263.619 28.8534 263.817 28.4679 263.817 27.954C263.817 27.4294 263.619 27.0386 263.223 26.7816C262.837 26.5247 262.28 26.3962 261.552 26.3962H258.597V34.3619ZM267.731 36V27.424H269.739V36H267.731ZM268.743 26.0108C268.368 26.0108 268.058 25.893 267.812 25.6574C267.576 25.4219 267.458 25.1382 267.458 24.8063C267.458 24.4637 267.576 24.1799 267.812 23.9551C268.058 23.7195 268.368 23.6018 268.743 23.6018C269.118 23.6018 269.423 23.7142 269.659 23.939C269.905 24.1532 270.028 24.4262 270.028 24.7581C270.028 25.1114 269.91 25.4112 269.675 25.6574C269.439 25.893 269.129 26.0108 268.743 26.0108ZM274.799 36.1124C273.857 36.1124 273.128 35.8715 272.615 35.3897C272.101 34.8972 271.844 34.1745 271.844 33.2216V25.529H273.851V33.1735C273.851 33.5803 273.953 33.8962 274.156 34.121C274.37 34.3458 274.665 34.4583 275.04 34.4583C275.489 34.4583 275.864 34.3405 276.164 34.1049L276.726 35.5343C276.49 35.727 276.201 35.8715 275.859 35.9679C275.516 36.0642 275.163 36.1124 274.799 36.1124ZM270.43 29.0943V27.4883H276.148V29.0943H270.43ZM281.227 36.1124C280.327 36.1124 279.524 35.9251 278.818 35.5503C278.122 35.1649 277.576 34.6403 277.18 33.9765C276.783 33.3126 276.585 32.5578 276.585 31.712C276.585 30.8555 276.783 30.1007 277.18 29.4476C277.576 28.7838 278.122 28.2645 278.818 27.8898C279.524 27.515 280.327 27.3277 281.227 27.3277C282.062 27.3277 282.795 27.499 283.427 27.8416C284.069 28.1735 284.556 28.666 284.888 29.3191L283.347 30.2184C283.09 29.8116 282.774 29.5118 282.399 29.3191C282.035 29.1264 281.639 29.03 281.211 29.03C280.718 29.03 280.274 29.1371 279.878 29.3512C279.481 29.5653 279.171 29.8758 278.946 30.2827C278.721 30.6788 278.609 31.1553 278.609 31.712C278.609 32.2688 278.721 32.7506 278.946 33.1574C279.171 33.5535 279.481 33.8587 279.878 34.0728C280.274 34.2869 280.718 34.394 281.211 34.394C281.639 34.394 282.035 34.2977 282.399 34.1049C282.774 33.9122 283.09 33.6124 283.347 33.2056L284.888 34.1049C284.556 34.7473 284.069 35.2452 283.427 35.5985C282.795 35.9411 282.062 36.1124 281.227 36.1124ZM289.55 36.1124C288.672 36.1124 287.89 35.9251 287.205 35.5503C286.52 35.1649 285.979 34.6403 285.583 33.9765C285.187 33.3126 284.989 32.5578 284.989 31.712C284.989 30.8555 285.187 30.1007 285.583 29.4476C285.979 28.7838 286.52 28.2645 287.205 27.8898C287.89 27.515 288.672 27.3277 289.55 27.3277C290.438 27.3277 291.225 27.515 291.91 27.8898C292.606 28.2645 293.147 28.7784 293.532 29.4315C293.929 30.0846 294.127 30.8448 294.127 31.712C294.127 32.5578 293.929 33.3126 293.532 33.9765C293.147 34.6403 292.606 35.1649 291.91 35.5503C291.225 35.9251 290.438 36.1124 289.55 36.1124ZM289.55 34.394C290.042 34.394 290.481 34.2869 290.866 34.0728C291.252 33.8587 291.552 33.5482 291.766 33.1413C291.991 32.7345 292.103 32.258 292.103 31.712C292.103 31.1553 291.991 30.6788 291.766 30.2827C291.552 29.8758 291.252 29.5653 290.866 29.3512C290.481 29.1371 290.047 29.03 289.566 29.03C289.073 29.03 288.634 29.1371 288.249 29.3512C287.874 29.5653 287.574 29.8758 287.349 30.2827C287.125 30.6788 287.012 31.1553 287.012 31.712C287.012 32.258 287.125 32.7345 287.349 33.1413C287.574 33.5482 287.874 33.8587 288.249 34.0728C288.634 34.2869 289.068 34.394 289.55 34.394ZM295.243 36V27.424H297.251V36H295.243ZM296.255 26.0108C295.88 26.0108 295.57 25.893 295.324 25.6574C295.088 25.4219 294.97 25.1382 294.97 24.8063C294.97 24.4637 295.088 24.1799 295.324 23.9551C295.57 23.7195 295.88 23.6018 296.255 23.6018C296.63 23.6018 296.935 23.7142 297.17 23.939C297.417 24.1532 297.54 24.4262 297.54 24.7581C297.54 25.1114 297.422 25.4112 297.187 25.6574C296.951 25.893 296.641 26.0108 296.255 26.0108ZM303.949 27.3277C304.634 27.3277 305.244 27.4615 305.78 27.7292C306.326 27.9968 306.754 28.409 307.064 28.9658C307.375 29.5118 307.53 30.2184 307.53 31.0857V36H305.523V31.3426C305.523 30.5825 305.341 30.015 304.977 29.6403C304.623 29.2656 304.125 29.0782 303.483 29.0782C303.012 29.0782 302.594 29.1745 302.23 29.3673C301.866 29.56 301.583 29.8491 301.379 30.2345C301.186 30.6092 301.09 31.0857 301.09 31.6638V36H299.083V27.424H300.994V29.7366L300.656 29.03C300.956 28.484 301.39 28.0664 301.957 27.7773C302.535 27.4776 303.199 27.3277 303.949 27.3277ZM312.909 36V27.424H314.82V29.7848L314.595 29.0943C314.852 28.5161 315.254 28.0771 315.8 27.7773C316.357 27.4776 317.047 27.3277 317.872 27.3277V29.2388C317.786 29.2174 317.706 29.2067 317.631 29.2067C317.556 29.196 317.481 29.1906 317.406 29.1906C316.646 29.1906 316.041 29.4154 315.591 29.8651C315.142 30.3041 314.917 30.9625 314.917 31.8405V36H312.909ZM323.444 36V34.2655L323.331 33.8962V30.8608C323.331 30.272 323.155 29.8169 322.801 29.4957C322.448 29.1638 321.913 28.9979 321.195 28.9979C320.714 28.9979 320.237 29.0728 319.766 29.2227C319.306 29.3726 318.915 29.5814 318.594 29.8491L317.807 28.3876C318.267 28.0343 318.813 27.772 319.445 27.6007C320.087 27.4187 320.751 27.3277 321.436 27.3277C322.678 27.3277 323.636 27.6274 324.311 28.227C324.996 28.8159 325.339 29.7313 325.339 30.9733V36H323.444ZM320.746 36.1124C320.103 36.1124 319.541 36.0054 319.059 35.7912C318.578 35.5664 318.203 35.2612 317.935 34.8758C317.678 34.4797 317.55 34.0353 317.55 33.5428C317.55 33.061 317.662 32.6274 317.887 32.242C318.123 31.8565 318.503 31.5514 319.027 31.3266C319.552 31.1017 320.248 30.9893 321.115 30.9893H323.604V32.3223H321.26C320.574 32.3223 320.114 32.4347 319.878 32.6595C319.643 32.8737 319.525 33.1413 319.525 33.4625C319.525 33.8266 319.67 34.1156 319.959 34.3298C320.248 34.5439 320.649 34.651 321.163 34.651C321.656 34.651 322.095 34.5386 322.48 34.3137C322.876 34.0889 323.16 33.757 323.331 33.318L323.669 34.5225C323.476 35.0257 323.128 35.4165 322.625 35.6949C322.132 35.9732 321.506 36.1124 320.746 36.1124ZM330.34 36.1124C329.398 36.1124 328.67 35.8715 328.156 35.3897C327.642 34.8972 327.385 34.1745 327.385 33.2216V25.529H329.393V33.1735C329.393 33.5803 329.494 33.8962 329.698 34.121C329.912 34.3458 330.206 34.4583 330.581 34.4583C331.031 34.4583 331.405 34.3405 331.705 34.1049L332.267 35.5343C332.032 35.727 331.743 35.8715 331.4 35.9679C331.058 36.0642 330.704 36.1124 330.34 36.1124ZM325.972 29.0943V27.4883H331.689V29.0943H325.972ZM336.865 36.1124C335.912 36.1124 335.077 35.9251 334.359 35.5503C333.653 35.1649 333.101 34.6403 332.705 33.9765C332.32 33.3126 332.127 32.5578 332.127 31.712C332.127 30.8555 332.314 30.1007 332.689 29.4476C333.074 28.7838 333.599 28.2645 334.263 27.8898C334.937 27.515 335.703 27.3277 336.559 27.3277C337.394 27.3277 338.139 27.5097 338.792 27.8737C339.445 28.2377 339.959 28.7516 340.333 29.4154C340.708 30.0793 340.896 30.8608 340.896 31.7602C340.896 31.8458 340.89 31.9422 340.879 32.0493C340.879 32.1563 340.874 32.258 340.863 32.3544H333.717V31.0214H339.803L339.017 31.439C339.027 30.9465 338.926 30.5129 338.711 30.1381C338.497 29.7634 338.203 29.469 337.828 29.2548C337.464 29.0407 337.041 28.9337 336.559 28.9337C336.067 28.9337 335.633 29.0407 335.259 29.2548C334.894 29.469 334.605 29.7688 334.391 30.1542C334.188 30.5289 334.086 30.9733 334.086 31.4872V31.8084C334.086 32.3223 334.204 32.7773 334.439 33.1735C334.675 33.5696 335.007 33.8747 335.435 34.0889C335.863 34.303 336.356 34.4101 336.913 34.4101C337.394 34.4101 337.828 34.3351 338.214 34.1852C338.599 34.0353 338.942 33.7998 339.241 33.4786L340.317 34.7152C339.932 35.1649 339.445 35.5129 338.856 35.7591C338.278 35.9946 337.614 36.1124 336.865 36.1124Z" fill="black"/>
<path d="M248.956 90.1016V87.5722L258.652 74.897H262.558L253.003 87.5722L251.176 87.0101H266.774V90.1016H248.956ZM259.748 94.5703V90.1016L259.86 87.0101V83.0473H263.289V94.5703H259.748ZM273.402 74.6159C275.201 74.6159 276.728 75 277.983 75.7682C279.257 76.5177 280.231 77.6137 280.906 79.0565C281.58 80.4992 281.918 82.2791 281.918 84.3964C281.918 86.6448 281.505 88.5465 280.681 90.1016C279.875 91.6568 278.751 92.8372 277.308 93.6429C275.866 94.4485 274.189 94.8514 272.278 94.8514C271.285 94.8514 270.338 94.7483 269.439 94.5422C268.54 94.3361 267.762 94.0176 267.106 93.5866L268.455 90.8324C268.999 91.1884 269.589 91.4413 270.226 91.5912C270.863 91.7224 271.519 91.7879 272.193 91.7879C274.048 91.7879 275.519 91.2165 276.606 90.0735C277.693 88.9306 278.236 87.2443 278.236 85.0147C278.236 84.6587 278.227 84.2465 278.208 83.7781C278.189 83.2909 278.124 82.8038 278.011 82.3166L279.135 83.5532C278.817 84.3214 278.358 84.9678 277.758 85.4925C277.159 85.9983 276.456 86.3824 275.65 86.6448C274.845 86.9071 273.955 87.0382 272.98 87.0382C271.706 87.0382 270.554 86.7947 269.523 86.3075C268.512 85.8016 267.706 85.099 267.106 84.1996C266.507 83.2816 266.207 82.2136 266.207 80.9957C266.207 79.6841 266.526 78.5599 267.163 77.6231C267.8 76.6676 268.662 75.9275 269.748 75.4028C270.854 74.8782 272.072 74.6159 273.402 74.6159ZM273.599 77.4826C272.849 77.4826 272.184 77.6231 271.603 77.9042C271.022 78.1665 270.563 78.5506 270.226 79.0565C269.908 79.5436 269.748 80.1338 269.748 80.8271C269.748 81.8576 270.104 82.6726 270.816 83.2722C271.528 83.8718 272.484 84.1715 273.683 84.1715C274.47 84.1715 275.163 84.031 275.763 83.75C276.362 83.4502 276.831 83.0473 277.168 82.5415C277.505 82.0168 277.674 81.436 277.674 80.799C277.674 80.1807 277.515 79.6279 277.196 79.1408C276.878 78.6349 276.418 78.2321 275.819 77.9323C275.219 77.6325 274.479 77.4826 273.599 77.4826ZM289.617 74.6159C291.416 74.6159 292.943 75 294.198 75.7682C295.472 76.5177 296.447 77.6137 297.121 79.0565C297.796 80.4992 298.133 82.2791 298.133 84.3964C298.133 86.6448 297.721 88.5465 296.896 90.1016C296.091 91.6568 294.966 92.8372 293.524 93.6429C292.081 94.4485 290.404 94.8514 288.493 94.8514C287.5 94.8514 286.554 94.7483 285.654 94.5422C284.755 94.3361 283.977 94.0176 283.322 93.5866L284.671 90.8324C285.214 91.1884 285.804 91.4413 286.441 91.5912C287.078 91.7224 287.734 91.7879 288.409 91.7879C290.263 91.7879 291.734 91.2165 292.821 90.0735C293.908 88.9306 294.451 87.2443 294.451 85.0147C294.451 84.6587 294.442 84.2465 294.423 83.7781C294.404 83.2909 294.339 82.8038 294.226 82.3166L295.35 83.5532C295.032 84.3214 294.573 84.9678 293.973 85.4925C293.374 85.9983 292.671 86.3824 291.865 86.6448C291.06 86.9071 290.17 87.0382 289.195 87.0382C287.921 87.0382 286.769 86.7947 285.739 86.3075C284.727 85.8016 283.921 85.099 283.322 84.1996C282.722 83.2816 282.422 82.2136 282.422 80.9957C282.422 79.6841 282.741 78.5599 283.378 77.6231C284.015 76.6676 284.877 75.9275 285.963 75.4028C287.069 74.8782 288.287 74.6159 289.617 74.6159ZM289.814 77.4826C289.064 77.4826 288.399 77.6231 287.818 77.9042C287.238 78.1665 286.778 78.5506 286.441 79.0565C286.123 79.5436 285.963 80.1338 285.963 80.8271C285.963 81.8576 286.319 82.6726 287.031 83.2722C287.743 83.8718 288.699 84.1715 289.898 84.1715C290.685 84.1715 291.378 84.031 291.978 83.75C292.577 83.4502 293.046 83.0473 293.383 82.5415C293.72 82.0168 293.889 81.436 293.889 80.799C293.889 80.1807 293.73 79.6279 293.411 79.1408C293.093 78.6349 292.634 78.2321 292.034 77.9323C291.435 77.6325 290.694 77.4826 289.814 77.4826ZM305.832 74.6159C307.631 74.6159 309.158 75 310.413 75.7682C311.687 76.5177 312.662 77.6137 313.336 79.0565C314.011 80.4992 314.348 82.2791 314.348 84.3964C314.348 86.6448 313.936 88.5465 313.111 90.1016C312.306 91.6568 311.181 92.8372 309.739 93.6429C308.296 94.4485 306.619 94.8514 304.708 94.8514C303.715 94.8514 302.769 94.7483 301.869 94.5422C300.97 94.3361 300.193 94.0176 299.537 93.5866L300.886 90.8324C301.429 91.1884 302.019 91.4413 302.656 91.5912C303.293 91.7224 303.949 91.7879 304.624 91.7879C306.479 91.7879 307.949 91.2165 309.036 90.0735C310.123 88.9306 310.666 87.2443 310.666 85.0147C310.666 84.6587 310.657 84.2465 310.638 83.7781C310.619 83.2909 310.554 82.8038 310.441 82.3166L311.566 83.5532C311.247 84.3214 310.788 84.9678 310.188 85.4925C309.589 85.9983 308.886 86.3824 308.081 86.6448C307.275 86.9071 306.385 87.0382 305.411 87.0382C304.137 87.0382 302.984 86.7947 301.954 86.3075C300.942 85.8016 300.136 85.099 299.537 84.1996C298.937 83.2816 298.637 82.2136 298.637 80.9957C298.637 79.6841 298.956 78.5599 299.593 77.6231C300.23 76.6676 301.092 75.9275 302.179 75.4028C303.284 74.8782 304.502 74.6159 305.832 74.6159ZM306.029 77.4826C305.279 77.4826 304.614 77.6231 304.034 77.9042C303.453 78.1665 302.994 78.5506 302.656 79.0565C302.338 79.5436 302.179 80.1338 302.179 80.8271C302.179 81.8576 302.535 82.6726 303.247 83.2722C303.959 83.8718 304.914 84.1715 306.113 84.1715C306.9 84.1715 307.593 84.031 308.193 83.75C308.793 83.4502 309.261 83.0473 309.598 82.5415C309.936 82.0168 310.104 81.436 310.104 80.799C310.104 80.1807 309.945 79.6279 309.626 79.1408C309.308 78.6349 308.849 78.2321 308.249 77.9323C307.65 77.6325 306.91 77.4826 306.029 77.4826ZM322.047 74.6159C323.846 74.6159 325.373 75 326.628 75.7682C327.903 76.5177 328.877 77.6137 329.551 79.0565C330.226 80.4992 330.563 82.2791 330.563 84.3964C330.563 86.6448 330.151 88.5465 329.327 90.1016C328.521 91.6568 327.397 92.8372 325.954 93.6429C324.511 94.4485 322.834 94.8514 320.923 94.8514C319.93 94.8514 318.984 94.7483 318.085 94.5422C317.185 94.3361 316.408 94.0176 315.752 93.5866L317.101 90.8324C317.644 91.1884 318.234 91.4413 318.872 91.5912C319.509 91.7224 320.164 91.7879 320.839 91.7879C322.694 91.7879 324.165 91.2165 325.251 90.0735C326.338 88.9306 326.881 87.2443 326.881 85.0147C326.881 84.6587 326.872 84.2465 326.853 83.7781C326.835 83.2909 326.769 82.8038 326.657 82.3166L327.781 83.5532C327.462 84.3214 327.003 84.9678 326.404 85.4925C325.804 85.9983 325.101 86.3824 324.296 86.6448C323.49 86.9071 322.6 87.0382 321.626 87.0382C320.352 87.0382 319.199 86.7947 318.169 86.3075C317.157 85.8016 316.351 85.099 315.752 84.1996C315.152 83.2816 314.853 82.2136 314.853 80.9957C314.853 79.6841 315.171 78.5599 315.808 77.6231C316.445 76.6676 317.307 75.9275 318.394 75.4028C319.499 74.8782 320.717 74.6159 322.047 74.6159ZM322.244 77.4826C321.495 77.4826 320.829 77.6231 320.249 77.9042C319.668 78.1665 319.209 78.5506 318.872 79.0565C318.553 79.5436 318.394 80.1338 318.394 80.8271C318.394 81.8576 318.75 82.6726 319.462 83.2722C320.174 83.8718 321.129 84.1715 322.328 84.1715C323.115 84.1715 323.809 84.031 324.408 83.75C325.008 83.4502 325.476 83.0473 325.813 82.5415C326.151 82.0168 326.319 81.436 326.319 80.799C326.319 80.1807 326.16 79.6279 325.842 79.1408C325.523 78.6349 325.064 78.2321 324.464 77.9323C323.865 77.6325 323.125 77.4826 322.244 77.4826ZM338.263 97.9429V71.5244H340.567V97.9429H338.263ZM339.134 94.8514C337.597 94.8514 336.127 94.6359 334.721 94.205C333.316 93.7553 332.201 93.1838 331.377 92.4906L332.642 89.652C333.428 90.2703 334.403 90.7855 335.564 91.1977C336.726 91.6099 337.916 91.816 339.134 91.816C340.164 91.816 340.998 91.7036 341.635 91.4788C342.272 91.2539 342.741 90.9542 343.04 90.5794C343.34 90.186 343.49 89.7457 343.49 89.2585C343.49 88.6589 343.275 88.1812 342.844 87.8252C342.413 87.4504 341.851 87.16 341.157 86.9539C340.483 86.7291 339.724 86.523 338.881 86.3356C338.056 86.1482 337.223 85.9328 336.379 85.6892C335.555 85.4269 334.796 85.099 334.103 84.7055C333.428 84.2933 332.876 83.75 332.445 83.0754C332.014 82.4009 331.798 81.5391 331.798 80.4898C331.798 79.4218 332.079 78.4475 332.642 77.5669C333.222 76.6676 334.094 75.9556 335.255 75.4309C336.436 74.8876 337.925 74.6159 339.724 74.6159C340.904 74.6159 342.075 74.7658 343.237 75.0656C344.399 75.3654 345.411 75.7963 346.272 76.3584L345.12 79.197C344.239 78.6724 343.331 78.2883 342.394 78.0447C341.457 77.7824 340.558 77.6512 339.696 77.6512C338.684 77.6512 337.86 77.773 337.223 78.0166C336.604 78.2602 336.145 78.5787 335.846 78.9721C335.564 79.3656 335.424 79.8153 335.424 80.3212C335.424 80.9207 335.63 81.4079 336.042 81.7826C336.473 82.1386 337.026 82.4197 337.7 82.6258C338.394 82.8319 339.162 83.038 340.005 83.2441C340.848 83.4314 341.682 83.6469 342.506 83.8905C343.349 84.1341 344.108 84.4526 344.783 84.8461C345.476 85.2395 346.029 85.7735 346.441 86.448C346.872 87.1225 347.087 87.9751 347.087 89.0056C347.087 90.0548 346.797 91.0291 346.216 91.9285C345.654 92.8091 344.783 93.5211 343.602 94.0644C342.422 94.589 340.932 94.8514 339.134 94.8514Z" fill="#4C91E5"/>
<path d="M395 54L202 54" stroke="#F5F7F9" stroke-width="0.669162"/>
<rect x="425" y="18" width="485" height="89" rx="44.5" fill="#F5F7F9"/>
<rect x="425" y="18" width="260" height="89" rx="44.5" fill="#0370F3"/>
<path d="M505.668 71V53.5455H512.35C513.611 53.5455 514.659 53.7443 515.494 54.142C516.335 54.5341 516.963 55.071 517.378 55.7528C517.798 56.4347 518.009 57.2074 518.009 58.071C518.009 58.7812 517.872 59.3892 517.6 59.8949C517.327 60.3949 516.96 60.8011 516.5 61.1136C516.04 61.4261 515.526 61.6506 514.957 61.7869V61.9574C515.577 61.9915 516.171 62.1818 516.739 62.5284C517.313 62.8693 517.781 63.3523 518.145 63.9773C518.509 64.6023 518.69 65.358 518.69 66.2443C518.69 67.1477 518.472 67.9602 518.034 68.6818C517.597 69.3977 516.938 69.9631 516.057 70.3778C515.176 70.7926 514.068 71 512.733 71H505.668ZM508.83 68.358H512.23C513.378 68.358 514.205 68.1392 514.71 67.7017C515.222 67.2585 515.477 66.6903 515.477 65.9972C515.477 65.4801 515.35 65.0142 515.094 64.5994C514.838 64.179 514.475 63.8494 514.003 63.6108C513.531 63.3665 512.969 63.2443 512.315 63.2443H508.83V68.358ZM508.83 60.9688H511.957C512.503 60.9688 512.994 60.8693 513.432 60.6705C513.869 60.4659 514.213 60.179 514.463 59.8097C514.719 59.4347 514.847 58.9915 514.847 58.4801C514.847 57.804 514.608 57.2472 514.131 56.8097C513.659 56.3722 512.957 56.1534 512.026 56.1534H508.83V60.9688ZM531.244 53.5455H534.406V64.9489C534.406 66.1989 534.11 67.2983 533.52 68.2472C532.934 69.196 532.11 69.9375 531.048 70.4716C529.985 71 528.744 71.2642 527.324 71.2642C525.897 71.2642 524.653 71 523.591 70.4716C522.528 69.9375 521.704 69.196 521.119 68.2472C520.534 67.2983 520.241 66.1989 520.241 64.9489V53.5455H523.403V64.6847C523.403 65.4119 523.562 66.0597 523.88 66.6278C524.204 67.196 524.659 67.642 525.244 67.9659C525.829 68.2841 526.522 68.4432 527.324 68.4432C528.125 68.4432 528.818 68.2841 529.403 67.9659C529.994 67.642 530.449 67.196 530.767 66.6278C531.085 66.0597 531.244 65.4119 531.244 64.6847V53.5455ZM535.45 53.5455H539.021L543.29 61.267H543.461L547.731 53.5455H551.302L544.952 64.4886V71H541.799V64.4886L535.45 53.5455ZM560.043 63.3295V71H556.958V57.9091H559.907V60.1335H560.06C560.361 59.4006 560.841 58.8182 561.5 58.3864C562.165 57.9545 562.986 57.7386 563.964 57.7386C564.867 57.7386 565.654 57.9318 566.324 58.3182C567 58.7045 567.523 59.2642 567.893 59.9972C568.268 60.7301 568.452 61.6193 568.447 62.6648V71H565.361V63.142C565.361 62.267 565.134 61.5824 564.679 61.0881C564.231 60.5937 563.608 60.3466 562.813 60.3466C562.273 60.3466 561.793 60.4659 561.373 60.7045C560.958 60.9375 560.631 61.2756 560.393 61.7188C560.16 62.1619 560.043 62.6989 560.043 63.3295ZM574.505 56.196V53.5455H588.431V56.196H583.037V71H579.9V56.196H574.505ZM589.916 71V53.5455H593.078V60.9347H601.166V53.5455H604.337V71H601.166V63.5852H593.078V71H589.916Z" fill="white"/>
<path d="M751.534 50.7273V74H747.318V54.8295H747.182L741.739 58.3068V54.4432L747.523 50.7273H751.534ZM764.445 74.4432C762.574 74.4432 760.968 73.9697 759.627 73.0227C758.294 72.0682 757.267 70.6932 756.548 68.8977C755.836 67.0947 755.48 64.9242 755.48 62.3864C755.487 59.8485 755.847 57.6894 756.559 55.9091C757.279 54.1212 758.305 52.7576 759.639 51.8182C760.98 50.8788 762.582 50.4091 764.445 50.4091C766.309 50.4091 767.911 50.8788 769.252 51.8182C770.593 52.7576 771.62 54.1212 772.332 55.9091C773.052 57.697 773.411 59.8561 773.411 62.3864C773.411 64.9318 773.052 67.1061 772.332 68.9091C771.62 70.7045 770.593 72.0758 769.252 73.0227C767.919 73.9697 766.317 74.4432 764.445 74.4432ZM764.445 70.8864C765.9 70.8864 767.048 70.1705 767.889 68.7386C768.737 67.2992 769.161 65.1818 769.161 62.3864C769.161 60.5379 768.968 58.9848 768.582 57.7273C768.195 56.4697 767.65 55.5227 766.945 54.8864C766.241 54.2424 765.408 53.9205 764.445 53.9205C762.998 53.9205 761.855 54.6402 761.014 56.0795C760.173 57.5114 759.748 59.6136 759.741 62.3864C759.733 64.2424 759.919 65.803 760.298 67.0682C760.684 68.3333 761.23 69.2879 761.934 69.9318C762.639 70.5682 763.476 70.8864 764.445 70.8864ZM784.189 74.4432C782.318 74.4432 780.712 73.9697 779.371 73.0227C778.038 72.0682 777.011 70.6932 776.291 68.8977C775.579 67.0947 775.223 64.9242 775.223 62.3864C775.231 59.8485 775.591 57.6894 776.303 55.9091C777.023 54.1212 778.049 52.7576 779.382 51.8182C780.723 50.8788 782.326 50.4091 784.189 50.4091C786.053 50.4091 787.655 50.8788 788.996 51.8182C790.337 52.7576 791.363 54.1212 792.076 55.9091C792.795 57.697 793.155 59.8561 793.155 62.3864C793.155 64.9318 792.795 67.1061 792.076 68.9091C791.363 70.7045 790.337 72.0758 788.996 73.0227C787.663 73.9697 786.06 74.4432 784.189 74.4432ZM784.189 70.8864C785.644 70.8864 786.791 70.1705 787.632 68.7386C788.481 67.2992 788.905 65.1818 788.905 62.3864C788.905 60.5379 788.712 58.9848 788.326 57.7273C787.939 56.4697 787.394 55.5227 786.689 54.8864C785.985 54.2424 785.151 53.9205 784.189 53.9205C782.742 53.9205 781.598 54.6402 780.757 56.0795C779.916 57.5114 779.492 59.6136 779.485 62.3864C779.477 64.2424 779.663 65.803 780.041 67.0682C780.428 68.3333 780.973 69.2879 781.678 69.9318C782.382 70.5682 783.22 70.8864 784.189 70.8864ZM803.933 74.4432C802.062 74.4432 800.456 73.9697 799.115 73.0227C797.781 72.0682 796.755 70.6932 796.035 68.8977C795.323 67.0947 794.967 64.9242 794.967 62.3864C794.975 59.8485 795.334 57.6894 796.047 55.9091C796.766 54.1212 797.793 52.7576 799.126 51.8182C800.467 50.8788 802.069 50.4091 803.933 50.4091C805.797 50.4091 807.399 50.8788 808.74 51.8182C810.081 52.7576 811.107 54.1212 811.819 55.9091C812.539 57.697 812.899 59.8561 812.899 62.3864C812.899 64.9318 812.539 67.1061 811.819 68.9091C811.107 70.7045 810.081 72.0758 808.74 73.0227C807.406 73.9697 805.804 74.4432 803.933 74.4432ZM803.933 70.8864C805.388 70.8864 806.535 70.1705 807.376 68.7386C808.225 67.2992 808.649 65.1818 808.649 62.3864C808.649 60.5379 808.456 58.9848 808.069 57.7273C807.683 56.4697 807.138 55.5227 806.433 54.8864C805.728 54.2424 804.895 53.9205 803.933 53.9205C802.486 53.9205 801.342 54.6402 800.501 56.0795C799.66 57.5114 799.236 59.6136 799.228 62.3864C799.221 64.2424 799.406 65.803 799.785 67.0682C800.172 68.3333 800.717 69.2879 801.422 69.9318C802.126 70.5682 802.963 70.8864 803.933 70.8864ZM822.574 76.9091V47.8182H824.438V76.9091H822.574ZM827.949 57.125C827.843 56.1326 827.396 55.3598 826.609 54.8068C825.828 54.2538 824.813 53.9773 823.563 53.9773C822.684 53.9773 821.93 54.1098 821.302 54.375C820.673 54.6402 820.192 55 819.859 55.4545C819.525 55.9091 819.355 56.428 819.347 57.0114C819.347 57.4962 819.457 57.9167 819.677 58.2727C819.904 58.6288 820.211 58.9318 820.597 59.1818C820.984 59.4242 821.412 59.6288 821.881 59.7955C822.351 59.9621 822.824 60.1023 823.302 60.2159L825.484 60.7614C826.362 60.9659 827.207 61.2424 828.018 61.5909C828.836 61.9394 829.567 62.3788 830.211 62.9091C830.862 63.4394 831.377 64.0795 831.756 64.8295C832.135 65.5795 832.324 66.4583 832.324 67.4659C832.324 68.8295 831.976 70.0303 831.279 71.0682C830.582 72.0985 829.574 72.9053 828.256 73.4886C826.946 74.0644 825.359 74.3523 823.495 74.3523C821.684 74.3523 820.112 74.072 818.779 73.5114C817.453 72.9508 816.415 72.1326 815.665 71.0568C814.923 69.9811 814.521 68.6705 814.461 67.125H818.609C818.669 67.9356 818.919 68.6098 819.359 69.1477C819.798 69.6856 820.37 70.0871 821.074 70.3523C821.787 70.6174 822.582 70.75 823.461 70.75C824.377 70.75 825.18 70.6136 825.87 70.3409C826.567 70.0606 827.112 69.6742 827.506 69.1818C827.9 68.6818 828.101 68.0985 828.109 67.4318C828.101 66.8258 827.923 66.3258 827.574 65.9318C827.226 65.5303 826.737 65.197 826.109 64.9318C825.487 64.6591 824.76 64.4167 823.927 64.2045L821.279 63.5227C819.362 63.0303 817.847 62.2841 816.734 61.2841C815.627 60.2765 815.074 58.9394 815.074 57.2727C815.074 55.9015 815.446 54.7008 816.188 53.6705C816.938 52.6402 817.957 51.8409 819.245 51.2727C820.533 50.697 821.991 50.4091 823.62 50.4091C825.271 50.4091 826.718 50.697 827.961 51.2727C829.211 51.8409 830.192 52.6326 830.904 53.6477C831.616 54.6553 831.984 55.8144 832.006 57.125H827.949Z" fill="black"/>
<defs>
<filter id="filter0_d_2014_59" x="188.797" y="0.39827" width="219.407" height="138.407" filterUnits="userSpaceOnUse" color-interpolation-filters="sRGB">
<feFlood flood-opacity="0" result="BackgroundImageFix"/>
<feColorMatrix in="SourceAlpha" type="matrix" values="0 0 0 0 0 0 0 0 0 0 0 0 0 0 0 0 0 0 127 0" result="hardAlpha"/>
<feOffset dy="6.60173"/>
<feGaussianBlur stdDeviation="6.60173"/>
<feComposite in2="hardAlpha" operator="out"/>
<feColorMatrix type="matrix" values="0 0 0 0 0.438281 0 0 0 0 0.5931 0 0 0 0 0.779167 0 0 0 0.2 0"/>
<feBlend mode="normal" in2="BackgroundImageFix" result="effect1_dropShadow_2014_59"/>
<feBlend mode="normal" in="SourceGraphic" in2="effect1_dropShadow_2014_59" result="shape"/>
</filter>
</defs>
</svg>
