<svg width="911" height="82" viewBox="0 0 911 82" fill="none" xmlns="http://www.w3.org/2000/svg">
<path d="M5 53.082L5 61.033" stroke="#A8B0B7" stroke-width="1.59019"/>
<path d="M4.99391 78.3565C4.20199 78.3565 3.4864 78.1561 2.84715 77.7554C2.21743 77.3547 1.72129 76.7727 1.35873 76.0094C0.996162 75.2365 0.81488 74.3015 0.81488 73.2043C0.81488 72.107 0.996162 71.1768 1.35873 70.4135C1.72129 69.6406 2.21743 69.0539 2.84715 68.6531C3.4864 68.2524 4.20199 68.052 4.99391 68.052C5.79536 68.052 6.51095 68.2524 7.14067 68.6531C7.77038 69.0539 8.26652 69.6406 8.62909 70.4135C9.00119 71.1768 9.18724 72.107 9.18724 73.2043C9.18724 74.3015 9.00119 75.2365 8.62909 76.0094C8.26652 76.7727 7.77038 77.3547 7.14067 77.7554C6.51095 78.1561 5.79536 78.3565 4.99391 78.3565ZM4.99391 76.7393C5.46142 76.7393 5.86692 76.6152 6.2104 76.3672C6.55389 76.1096 6.82104 75.7184 7.01186 75.1936C7.21223 74.6688 7.31241 74.0057 7.31241 73.2043C7.31241 72.3933 7.21223 71.7302 7.01186 71.2149C6.82104 70.6902 6.55389 70.3038 6.2104 70.0557C5.86692 69.7981 5.46142 69.6693 4.99391 69.6693C4.54547 69.6693 4.14474 69.7981 3.79172 70.0557C3.44824 70.3038 3.17632 70.6902 2.97595 71.2149C2.78513 71.7302 2.68972 72.3933 2.68972 73.2043C2.68972 74.0057 2.78513 74.6688 2.97595 75.1936C3.17632 75.7184 3.44824 76.1096 3.79172 76.3672C4.14474 76.6152 4.54547 76.7393 4.99391 76.7393Z" fill="#A8B0B7"/>
<path d="M39.9429 53.082L39.9429 61.033" stroke="#A8B0B7" stroke-width="1.59019"/>
<path d="M39.714 78.3565C39.0079 78.3565 38.3162 78.2563 37.6388 78.0559C36.9709 77.846 36.408 77.5598 35.95 77.1972L36.7372 75.7518C37.0997 76.0475 37.5386 76.2861 38.0538 76.4673C38.5786 76.6486 39.1224 76.7393 39.6854 76.7393C40.3437 76.7393 40.8589 76.6009 41.231 76.3242C41.6127 76.0475 41.8035 75.6754 41.8035 75.2079C41.8035 74.8931 41.7224 74.6164 41.5602 74.3778C41.4076 74.1393 41.1309 73.958 40.7301 73.834C40.3389 73.71 39.7999 73.6479 39.1129 73.6479H36.6942L37.2094 68.1952H43.0916V69.7551H37.8964L38.8696 68.8678L38.4832 72.9467L37.51 72.0736H39.5279C40.5202 72.0736 41.3169 72.2072 41.918 72.4744C42.5286 72.732 42.9723 73.0945 43.249 73.5621C43.5352 74.02 43.6783 74.5448 43.6783 75.1364C43.6783 75.7184 43.5352 76.2527 43.249 76.7393C42.9628 77.2259 42.5239 77.6171 41.9323 77.9128C41.3503 78.2086 40.6109 78.3565 39.714 78.3565Z" fill="#A8B0B7"/>
<path d="M77.3862 53.082L77.3862 61.033" stroke="#A8B0B7" stroke-width="1.59019"/>
<path d="M72.4364 78.2134V68.9108L73.2522 69.7551H70.3183V68.1952H74.297V78.2134H72.4364ZM79.7477 78.3565C78.9558 78.3565 78.2402 78.1561 77.601 77.7554C76.9712 77.3547 76.4751 76.7727 76.1125 76.0094C75.75 75.2365 75.5687 74.3015 75.5687 73.2043C75.5687 72.107 75.75 71.1768 76.1125 70.4135C76.4751 69.6406 76.9712 69.0539 77.601 68.6531C78.2402 68.2524 78.9558 68.052 79.7477 68.052C80.5492 68.052 81.2648 68.2524 81.8945 68.6531C82.5242 69.0539 83.0203 69.6406 83.3829 70.4135C83.755 71.1768 83.9411 72.107 83.9411 73.2043C83.9411 74.3015 83.755 75.2365 83.3829 76.0094C83.0203 76.7727 82.5242 77.3547 81.8945 77.7554C81.2648 78.1561 80.5492 78.3565 79.7477 78.3565ZM79.7477 76.7393C80.2152 76.7393 80.6207 76.6152 80.9642 76.3672C81.3077 76.1096 81.5749 75.7184 81.7657 75.1936C81.966 74.6688 82.0662 74.0057 82.0662 73.2043C82.0662 72.3933 81.966 71.7302 81.7657 71.2149C81.5749 70.6902 81.3077 70.3038 80.9642 70.0557C80.6207 69.7981 80.2152 69.6693 79.7477 69.6693C79.2993 69.6693 78.8986 69.7981 78.5455 70.0557C78.2021 70.3038 77.9301 70.6902 77.7298 71.2149C77.5389 71.7302 77.4435 72.3933 77.4435 73.2043C77.4435 74.0057 77.5389 74.6688 77.7298 75.1936C77.9301 75.7184 78.2021 76.1096 78.5455 76.3672C78.8986 76.6152 79.2993 76.7393 79.7477 76.7393Z" fill="#A8B0B7"/>
<path d="M117.329 53.082L117.329 61.033" stroke="#A8B0B7" stroke-width="1.59019"/>
<path d="M113.015 78.2134V68.9108L113.831 69.7551H110.897V68.1952H114.876V78.2134H113.015ZM119.468 78.3565C118.762 78.3565 118.07 78.2563 117.393 78.0559C116.725 77.846 116.162 77.5598 115.704 77.1972L116.491 75.7518C116.854 76.0475 117.292 76.2861 117.808 76.4673C118.332 76.6486 118.876 76.7393 119.439 76.7393C120.098 76.7393 120.613 76.6009 120.985 76.3242C121.367 76.0475 121.557 75.6754 121.557 75.2079C121.557 74.8931 121.476 74.6164 121.314 74.3778C121.161 74.1393 120.885 73.958 120.484 73.834C120.093 73.71 119.554 73.6479 118.867 73.6479H116.448L116.963 68.1952H122.845V69.7551H117.65L118.623 68.8678L118.237 72.9467L117.264 72.0736H119.282C120.274 72.0736 121.071 72.2072 121.672 72.4744C122.282 72.732 122.726 73.0945 123.003 73.5621C123.289 74.02 123.432 74.5448 123.432 75.1364C123.432 75.7184 123.289 76.2527 123.003 76.7393C122.717 77.2259 122.278 77.6171 121.686 77.9128C121.104 78.2086 120.365 78.3565 119.468 78.3565Z" fill="#A8B0B7"/>
<path d="M158.772 53.082L158.772 61.033" stroke="#A8B0B7" stroke-width="1.59019"/>
<path d="M150.651 78.2134V76.9683L154.63 73.19C154.964 72.8751 155.212 72.5984 155.374 72.3599C155.536 72.1214 155.641 71.9019 155.689 71.7015C155.746 71.4916 155.775 71.296 155.775 71.1148C155.775 70.6568 155.618 70.3038 155.303 70.0557C154.988 69.7981 154.525 69.6693 153.914 69.6693C153.428 69.6693 152.984 69.7551 152.583 69.9269C152.192 70.0986 151.854 70.361 151.567 70.714L150.265 69.7122C150.656 69.1874 151.181 68.7819 151.839 68.4957C152.507 68.1999 153.251 68.052 154.072 68.052C154.797 68.052 155.427 68.1713 155.961 68.4098C156.505 68.6388 156.92 68.968 157.206 69.3973C157.502 69.8267 157.65 70.3372 157.65 70.9287C157.65 71.2531 157.607 71.5775 157.521 71.9019C157.435 72.2168 157.273 72.5507 157.034 72.9037C156.796 73.2567 156.448 73.6527 155.99 74.0916L152.569 77.3404L152.183 76.6391H158.036V78.2134H150.651ZM162.574 78.3565C161.782 78.3565 161.066 78.1561 160.427 77.7554C159.797 77.3547 159.301 76.7727 158.938 76.0094C158.576 75.2365 158.394 74.3015 158.394 73.2043C158.394 72.107 158.576 71.1768 158.938 70.4135C159.301 69.6406 159.797 69.0539 160.427 68.6531C161.066 68.2524 161.782 68.052 162.574 68.052C163.375 68.052 164.091 68.2524 164.72 68.6531C165.35 69.0539 165.846 69.6406 166.209 70.4135C166.581 71.1768 166.767 72.107 166.767 73.2043C166.767 74.3015 166.581 75.2365 166.209 76.0094C165.846 76.7727 165.35 77.3547 164.72 77.7554C164.091 78.1561 163.375 78.3565 162.574 78.3565ZM162.574 76.7393C163.041 76.7393 163.447 76.6152 163.79 76.3672C164.133 76.1096 164.401 75.7184 164.591 75.1936C164.792 74.6688 164.892 74.0057 164.892 73.2043C164.892 72.3933 164.792 71.7302 164.591 71.2149C164.401 70.6902 164.133 70.3038 163.79 70.0557C163.447 69.7981 163.041 69.6693 162.574 69.6693C162.125 69.6693 161.724 69.7981 161.371 70.0557C161.028 70.3038 160.756 70.6902 160.556 71.2149C160.365 71.7302 160.269 72.3933 160.269 73.2043C160.269 74.0057 160.365 74.6688 160.556 75.1936C160.756 75.7184 161.028 76.1096 161.371 76.3672C161.724 76.6152 162.125 76.7393 162.574 76.7393Z" fill="#A8B0B7"/>
<path d="M201.215 53.082L201.215 61.033" stroke="#A8B0B7" stroke-width="1.59019"/>
<path d="M193.73 78.2134V76.9683L197.709 73.19C198.043 72.8751 198.291 72.5984 198.453 72.3599C198.615 72.1214 198.72 71.9019 198.768 71.7015C198.825 71.4916 198.854 71.296 198.854 71.1148C198.854 70.6568 198.696 70.3038 198.381 70.0557C198.067 69.7981 197.604 69.6693 196.993 69.6693C196.507 69.6693 196.063 69.7551 195.662 69.9269C195.271 70.0986 194.932 70.361 194.646 70.714L193.344 69.7122C193.735 69.1874 194.26 68.7819 194.918 68.4957C195.586 68.1999 196.33 68.052 197.151 68.052C197.876 68.052 198.506 68.1713 199.04 68.4098C199.584 68.6388 199.999 68.968 200.285 69.3973C200.581 69.8267 200.729 70.3372 200.729 70.9287C200.729 71.2531 200.686 71.5775 200.6 71.9019C200.514 72.2168 200.352 72.5507 200.113 72.9037C199.875 73.2567 199.526 73.6527 199.068 74.0916L195.648 77.3404L195.262 76.6391H201.115V78.2134H193.73ZM204.794 78.3565C204.088 78.3565 203.396 78.2563 202.718 78.0559C202.051 77.846 201.488 77.5598 201.03 77.1972L201.817 75.7518C202.179 76.0475 202.618 76.2861 203.133 76.4673C203.658 76.6486 204.202 76.7393 204.765 76.7393C205.423 76.7393 205.939 76.6009 206.311 76.3242C206.692 76.0475 206.883 75.6754 206.883 75.2079C206.883 74.8931 206.802 74.6164 206.64 74.3778C206.487 74.1393 206.21 73.958 205.81 73.834C205.419 73.71 204.879 73.6479 204.193 73.6479H201.774L202.289 68.1952H208.171V69.7551H202.976L203.949 68.8678L203.563 72.9467L202.59 72.0736H204.608C205.6 72.0736 206.397 72.2072 206.998 72.4744C207.608 72.732 208.052 73.0945 208.329 73.5621C208.615 74.02 208.758 74.5448 208.758 75.1364C208.758 75.7184 208.615 76.2527 208.329 76.7393C208.042 77.2259 207.603 77.6171 207.012 77.9128C206.43 78.2086 205.69 78.3565 204.794 78.3565Z" fill="#A8B0B7"/>
<path d="M243.659 53.082L243.659 61.033" stroke="#A8B0B7" stroke-width="1.59019"/>
<path d="M238.815 78.3565C238.109 78.3565 237.417 78.2563 236.74 78.0559C236.072 77.846 235.509 77.5598 235.051 77.1972L235.852 75.7518C236.215 76.0475 236.654 76.2861 237.169 76.4673C237.684 76.6486 238.223 76.7393 238.786 76.7393C239.454 76.7393 239.974 76.6057 240.346 76.3385C240.718 76.0618 240.905 75.6897 240.905 75.2222C240.905 74.7643 240.733 74.4017 240.389 74.1345C240.046 73.8674 239.492 73.7338 238.729 73.7338H237.813V72.4601L240.676 69.0539L240.919 69.7551H235.538V68.1952H242.364V69.4403L239.502 72.8465L238.529 72.274H239.087C240.318 72.274 241.238 72.5507 241.849 73.1041C242.469 73.6479 242.779 74.3492 242.779 75.2079C242.779 75.7708 242.636 76.2908 242.35 76.7679C242.064 77.245 241.625 77.6314 241.033 77.9271C240.451 78.2134 239.712 78.3565 238.815 78.3565ZM247.46 78.3565C246.668 78.3565 245.952 78.1561 245.313 77.7554C244.683 77.3547 244.187 76.7727 243.825 76.0094C243.462 75.2365 243.281 74.3015 243.281 73.2043C243.281 72.107 243.462 71.1768 243.825 70.4135C244.187 69.6406 244.683 69.0539 245.313 68.6531C245.952 68.2524 246.668 68.052 247.46 68.052C248.261 68.052 248.977 68.2524 249.607 68.6531C250.236 69.0539 250.732 69.6406 251.095 70.4135C251.467 71.1768 251.653 72.107 251.653 73.2043C251.653 74.3015 251.467 75.2365 251.095 76.0094C250.732 76.7727 250.236 77.3547 249.607 77.7554C248.977 78.1561 248.261 78.3565 247.46 78.3565ZM247.46 76.7393C247.927 76.7393 248.333 76.6152 248.676 76.3672C249.02 76.1096 249.287 75.7184 249.478 75.1936C249.678 74.6688 249.778 74.0057 249.778 73.2043C249.778 72.3933 249.678 71.7302 249.478 71.2149C249.287 70.6902 249.02 70.3038 248.676 70.0557C248.333 69.7981 247.927 69.6693 247.46 69.6693C247.011 69.6693 246.611 69.7981 246.258 70.0557C245.914 70.3038 245.642 70.6902 245.442 71.2149C245.251 71.7302 245.156 72.3933 245.156 73.2043C245.156 74.0057 245.251 74.6688 245.442 75.1936C245.642 75.7184 245.914 76.1096 246.258 76.3672C246.611 76.6152 247.011 76.7393 247.46 76.7393Z" fill="#A8B0B7"/>
<path d="M286.102 53.082L286.102 61.033" stroke="#A8B0B7" stroke-width="1.59019"/>
<path d="M281.964 78.3565C281.258 78.3565 280.566 78.2563 279.888 78.0559C279.221 77.846 278.658 77.5598 278.2 77.1972L279.001 75.7518C279.364 76.0475 279.803 76.2861 280.318 76.4673C280.833 76.6486 281.372 76.7393 281.935 76.7393C282.603 76.7393 283.123 76.6057 283.495 76.3385C283.867 76.0618 284.053 75.6897 284.053 75.2222C284.053 74.7643 283.881 74.4017 283.538 74.1345C283.194 73.8674 282.641 73.7338 281.878 73.7338H280.962V72.4601L283.824 69.0539L284.068 69.7551H278.686V68.1952H285.513V69.4403L282.651 72.8465L281.677 72.274H282.236C283.466 72.274 284.387 72.5507 284.998 73.1041C285.618 73.6479 285.928 74.3492 285.928 75.2079C285.928 75.7708 285.785 76.2908 285.499 76.7679C285.212 77.245 284.774 77.6314 284.182 77.9271C283.6 78.2134 282.861 78.3565 281.964 78.3565ZM289.61 78.3565C288.904 78.3565 288.212 78.2563 287.535 78.0559C286.867 77.846 286.304 77.5598 285.846 77.1972L286.633 75.7518C286.996 76.0475 287.435 76.2861 287.95 76.4673C288.475 76.6486 289.018 76.7393 289.581 76.7393C290.24 76.7393 290.755 76.6009 291.127 76.3242C291.509 76.0475 291.699 75.6754 291.699 75.2079C291.699 74.8931 291.618 74.6164 291.456 74.3778C291.304 74.1393 291.027 73.958 290.626 73.834C290.235 73.71 289.696 73.6479 289.009 73.6479H286.59L287.105 68.1952H292.988V69.7551H287.792L288.766 68.8678L288.379 72.9467L287.406 72.0736H289.424C290.416 72.0736 291.213 72.2072 291.814 72.4744C292.425 72.732 292.868 73.0945 293.145 73.5621C293.431 74.02 293.574 74.5448 293.574 75.1364C293.574 75.7184 293.431 76.2527 293.145 76.7393C292.859 77.2259 292.42 77.6171 291.828 77.9128C291.246 78.2086 290.507 78.3565 289.61 78.3565Z" fill="#A8B0B7"/>
<path d="M329.045 53.082L329.045 61.033" stroke="#A8B0B7" stroke-width="1.59019"/>
<path d="M320.218 75.9378V74.6498L325.155 68.1952H327.145L322.279 74.6498L321.348 74.3635H329.291V75.9378H320.218ZM325.713 78.2134V75.9378L325.771 74.3635V72.3456H327.517V78.2134H325.713ZM333.538 78.3565C332.746 78.3565 332.03 78.1561 331.391 77.7554C330.761 77.3547 330.265 76.7727 329.903 76.0094C329.54 75.2365 329.359 74.3015 329.359 73.2043C329.359 72.107 329.54 71.1768 329.903 70.4135C330.265 69.6406 330.761 69.0539 331.391 68.6531C332.03 68.2524 332.746 68.052 333.538 68.052C334.339 68.052 335.055 68.2524 335.685 68.6531C336.314 69.0539 336.81 69.6406 337.173 70.4135C337.545 71.1768 337.731 72.107 337.731 73.2043C337.731 74.3015 337.545 75.2365 337.173 76.0094C336.81 76.7727 336.314 77.3547 335.685 77.7554C335.055 78.1561 334.339 78.3565 333.538 78.3565ZM333.538 76.7393C334.005 76.7393 334.411 76.6152 334.754 76.3672C335.098 76.1096 335.365 75.7184 335.556 75.1936C335.756 74.6688 335.856 74.0057 335.856 73.2043C335.856 72.3933 335.756 71.7302 335.556 71.2149C335.365 70.6902 335.098 70.3038 334.754 70.0557C334.411 69.7981 334.005 69.6693 333.538 69.6693C333.089 69.6693 332.689 69.7981 332.336 70.0557C331.992 70.3038 331.72 70.6902 331.52 71.2149C331.329 71.7302 331.234 72.3933 331.234 73.2043C331.234 74.0057 331.329 74.6688 331.52 75.1936C331.72 75.7184 331.992 76.1096 332.336 76.3672C332.689 76.6152 333.089 76.7393 333.538 76.7393Z" fill="#A8B0B7"/>
<path d="M372.988 53.082L372.988 61.033" stroke="#A8B0B7" stroke-width="1.59019"/>
<path d="M364.797 75.9378V74.6498L369.734 68.1952H371.723L366.857 74.6498L365.927 74.3635H373.87V75.9378H364.797ZM370.292 78.2134V75.9378L370.349 74.3635V72.3456H372.095V78.2134H370.292ZM377.258 78.3565C376.552 78.3565 375.86 78.2563 375.183 78.0559C374.515 77.846 373.952 77.5598 373.494 77.1972L374.281 75.7518C374.644 76.0475 375.083 76.2861 375.598 76.4673C376.122 76.6486 376.666 76.7393 377.229 76.7393C377.888 76.7393 378.403 76.6009 378.775 76.3242C379.157 76.0475 379.347 75.6754 379.347 75.2079C379.347 74.8931 379.266 74.6164 379.104 74.3778C378.951 74.1393 378.675 73.958 378.274 73.834C377.883 73.71 377.344 73.6479 376.657 73.6479H374.238L374.753 68.1952H380.635V69.7551H375.44L376.413 68.8678L376.027 72.9467L375.054 72.0736H377.072C378.064 72.0736 378.861 72.2072 379.462 72.4744C380.073 72.732 380.516 73.0945 380.793 73.5621C381.079 74.02 381.222 74.5448 381.222 75.1364C381.222 75.7184 381.079 76.2527 380.793 76.7393C380.507 77.2259 380.068 77.6171 379.476 77.9128C378.894 78.2086 378.155 78.3565 377.258 78.3565Z" fill="#A8B0B7"/>
<path d="M416.431 53.082L416.431 61.033" stroke="#A8B0B7" stroke-width="1.59019"/>
<path d="M411.745 78.3565C411.039 78.3565 410.347 78.2563 409.67 78.0559C409.002 77.846 408.439 77.5598 407.981 77.1972L408.768 75.7518C409.13 76.0475 409.569 76.2861 410.085 76.4673C410.609 76.6486 411.153 76.7393 411.716 76.7393C412.374 76.7393 412.89 76.6009 413.262 76.3242C413.643 76.0475 413.834 75.6754 413.834 75.2079C413.834 74.8931 413.753 74.6164 413.591 74.3778C413.438 74.1393 413.162 73.958 412.761 73.834C412.37 73.71 411.831 73.6479 411.144 73.6479H408.725L409.24 68.1952H415.122V69.7551H409.927L410.9 68.8678L410.514 72.9467L409.541 72.0736H411.559C412.551 72.0736 413.348 72.2072 413.949 72.4744C414.559 72.732 415.003 73.0945 415.28 73.5621C415.566 74.02 415.709 74.5448 415.709 75.1364C415.709 75.7184 415.566 76.2527 415.28 76.7393C414.994 77.2259 414.555 77.6171 413.963 77.9128C413.381 78.2086 412.642 78.3565 411.745 78.3565ZM420.246 78.3565C419.454 78.3565 418.738 78.1561 418.099 77.7554C417.469 77.3547 416.973 76.7727 416.611 76.0094C416.248 75.2365 416.067 74.3015 416.067 73.2043C416.067 72.107 416.248 71.1768 416.611 70.4135C416.973 69.6406 417.469 69.0539 418.099 68.6531C418.738 68.2524 419.454 68.052 420.246 68.052C421.047 68.052 421.763 68.2524 422.392 68.6531C423.022 69.0539 423.518 69.6406 423.881 70.4135C424.253 71.1768 424.439 72.107 424.439 73.2043C424.439 74.3015 424.253 75.2365 423.881 76.0094C423.518 76.7727 423.022 77.3547 422.392 77.7554C421.763 78.1561 421.047 78.3565 420.246 78.3565ZM420.246 76.7393C420.713 76.7393 421.119 76.6152 421.462 76.3672C421.806 76.1096 422.073 75.7184 422.264 75.1936C422.464 74.6688 422.564 74.0057 422.564 73.2043C422.564 72.3933 422.464 71.7302 422.264 71.2149C422.073 70.6902 421.806 70.3038 421.462 70.0557C421.119 69.7981 420.713 69.6693 420.246 69.6693C419.797 69.6693 419.397 69.7981 419.044 70.0557C418.7 70.3038 418.428 70.6902 418.228 71.2149C418.037 71.7302 417.942 72.3933 417.942 73.2043C417.942 74.0057 418.037 74.6688 418.228 75.1936C418.428 75.7184 418.7 76.1096 419.044 76.3672C419.397 76.6152 419.797 76.7393 420.246 76.7393Z" fill="#A8B0B7"/>
<path d="M458.874 53.082L458.874 61.033" stroke="#A8B0B7" stroke-width="1.59019"/>
<path d="M454.859 78.3565C454.153 78.3565 453.461 78.2563 452.784 78.0559C452.116 77.846 451.553 77.5598 451.095 77.1972L451.882 75.7518C452.245 76.0475 452.684 76.2861 453.199 76.4673C453.724 76.6486 454.267 76.7393 454.83 76.7393C455.489 76.7393 456.004 76.6009 456.376 76.3242C456.758 76.0475 456.948 75.6754 456.948 75.2079C456.948 74.8931 456.867 74.6164 456.705 74.3778C456.553 74.1393 456.276 73.958 455.875 73.834C455.484 73.71 454.945 73.6479 454.258 73.6479H451.839L452.354 68.1952H458.237V69.7551H453.041L454.015 68.8678L453.628 72.9467L452.655 72.0736H454.673C455.665 72.0736 456.462 72.2072 457.063 72.4744C457.674 72.732 458.117 73.0945 458.394 73.5621C458.68 74.02 458.823 74.5448 458.823 75.1364C458.823 75.7184 458.68 76.2527 458.394 76.7393C458.108 77.2259 457.669 77.6171 457.077 77.9128C456.495 78.2086 455.756 78.3565 454.859 78.3565ZM462.431 78.3565C461.725 78.3565 461.034 78.2563 460.356 78.0559C459.688 77.846 459.125 77.5598 458.667 77.1972L459.454 75.7518C459.817 76.0475 460.256 76.2861 460.771 76.4673C461.296 76.6486 461.84 76.7393 462.403 76.7393C463.061 76.7393 463.576 76.6009 463.948 76.3242C464.33 76.0475 464.521 75.6754 464.521 75.2079C464.521 74.8931 464.44 74.6164 464.278 74.3778C464.125 74.1393 463.848 73.958 463.447 73.834C463.056 73.71 462.517 73.6479 461.83 73.6479H459.412L459.927 68.1952H465.809V69.7551H460.614L461.587 68.8678L461.201 72.9467L460.227 72.0736H462.245C463.238 72.0736 464.034 72.2072 464.635 72.4744C465.246 72.732 465.69 73.0945 465.966 73.5621C466.253 74.02 466.396 74.5448 466.396 75.1364C466.396 75.7184 466.253 76.2527 465.966 76.7393C465.68 77.2259 465.241 77.6171 464.65 77.9128C464.068 78.2086 463.328 78.3565 462.431 78.3565Z" fill="#A8B0B7"/>
<path d="M501.317 53.082L501.317 61.033" stroke="#A8B0B7" stroke-width="1.59019"/>
<path d="M497.34 78.3565C496.433 78.3565 495.656 78.1657 495.007 77.784C494.358 77.3928 493.862 76.8299 493.518 76.0952C493.175 75.3606 493.003 74.4542 493.003 73.376C493.003 72.2311 493.208 71.2626 493.619 70.4707C494.038 69.6788 494.616 69.0777 495.35 68.6675C496.095 68.2572 496.948 68.052 497.912 68.052C498.418 68.052 498.9 68.1045 499.358 68.2095C499.825 68.3144 500.221 68.4766 500.545 68.6961L499.858 70.0986C499.582 69.9173 499.281 69.7933 498.957 69.7265C498.642 69.6502 498.308 69.612 497.955 69.612C497.01 69.612 496.261 69.903 495.708 70.485C495.155 71.0671 494.878 71.9258 494.878 73.0612C494.878 73.2424 494.883 73.4571 494.892 73.7052C494.902 73.9437 494.935 74.187 494.993 74.4351L494.42 73.8054C494.592 73.4142 494.826 73.0898 495.121 72.8322C495.427 72.565 495.784 72.3647 496.195 72.2311C496.615 72.0975 497.068 72.0307 497.554 72.0307C498.213 72.0307 498.799 72.1595 499.315 72.4171C499.83 72.6652 500.24 73.023 500.545 73.4905C500.851 73.9485 501.003 74.4876 501.003 75.1077C501.003 75.7661 500.841 76.3385 500.517 76.8251C500.192 77.3117 499.754 77.6886 499.2 77.9558C498.647 78.2229 498.027 78.3565 497.34 78.3565ZM497.239 76.8967C497.621 76.8967 497.96 76.8299 498.256 76.6963C498.551 76.5532 498.78 76.3529 498.943 76.0952C499.114 75.8376 499.2 75.5371 499.2 75.1936C499.2 74.6688 499.019 74.2538 498.656 73.9485C498.294 73.6432 497.807 73.4905 497.197 73.4905C496.796 73.4905 496.443 73.5668 496.137 73.7195C495.842 73.8626 495.603 74.063 495.422 74.3206C495.25 74.5782 495.164 74.874 495.164 75.2079C495.164 75.5132 495.245 75.7947 495.408 76.0523C495.57 76.3099 495.804 76.5151 496.109 76.6677C496.424 76.8204 496.801 76.8967 497.239 76.8967ZM505.439 78.3565C504.647 78.3565 503.932 78.1561 503.293 77.7554C502.663 77.3547 502.167 76.7727 501.804 76.0094C501.442 75.2365 501.26 74.3015 501.26 73.2043C501.26 72.107 501.442 71.1768 501.804 70.4135C502.167 69.6406 502.663 69.0539 503.293 68.6531C503.932 68.2524 504.647 68.052 505.439 68.052C506.241 68.052 506.956 68.2524 507.586 68.6531C508.216 69.0539 508.712 69.6406 509.075 70.4135C509.447 71.1768 509.633 72.107 509.633 73.2043C509.633 74.3015 509.447 75.2365 509.075 76.0094C508.712 76.7727 508.216 77.3547 507.586 77.7554C506.956 78.1561 506.241 78.3565 505.439 78.3565ZM505.439 76.7393C505.907 76.7393 506.312 76.6152 506.656 76.3672C506.999 76.1096 507.267 75.7184 507.457 75.1936C507.658 74.6688 507.758 74.0057 507.758 73.2043C507.758 72.3933 507.658 71.7302 507.457 71.2149C507.267 70.6902 506.999 70.3038 506.656 70.0557C506.312 69.7981 505.907 69.6693 505.439 69.6693C504.991 69.6693 504.59 69.7981 504.237 70.0557C503.894 70.3038 503.622 70.6902 503.421 71.2149C503.231 71.7302 503.135 72.3933 503.135 73.2043C503.135 74.0057 503.231 74.6688 503.421 75.1936C503.622 75.7184 503.894 76.1096 504.237 76.3672C504.59 76.6152 504.991 76.7393 505.439 76.7393Z" fill="#A8B0B7"/>
<path d="M544.26 53.082L544.26 61.033" stroke="#A8B0B7" stroke-width="1.59019"/>
<path d="M540.919 78.3565C540.013 78.3565 539.235 78.1657 538.586 77.784C537.937 77.3928 537.441 76.8299 537.098 76.0952C536.754 75.3606 536.582 74.4542 536.582 73.376C536.582 72.2311 536.788 71.2626 537.198 70.4707C537.618 69.6788 538.195 69.0777 538.93 68.6675C539.674 68.2572 540.528 68.052 541.491 68.052C541.997 68.052 542.479 68.1045 542.937 68.2095C543.404 68.3144 543.8 68.4766 544.125 68.6961L543.438 70.0986C543.161 69.9173 542.861 69.7933 542.536 69.7265C542.221 69.6502 541.887 69.612 541.534 69.612C540.59 69.612 539.841 69.903 539.287 70.485C538.734 71.0671 538.457 71.9258 538.457 73.0612C538.457 73.2424 538.462 73.4571 538.472 73.7052C538.481 73.9437 538.515 74.187 538.572 74.4351L537.999 73.8054C538.171 73.4142 538.405 73.0898 538.701 72.8322C539.006 72.565 539.364 72.3647 539.774 72.2311C540.194 72.0975 540.647 72.0307 541.134 72.0307C541.792 72.0307 542.379 72.1595 542.894 72.4171C543.409 72.6652 543.819 73.023 544.125 73.4905C544.43 73.9485 544.583 74.4876 544.583 75.1077C544.583 75.7661 544.421 76.3385 544.096 76.8251C543.772 77.3117 543.333 77.6886 542.779 77.9558C542.226 78.2229 541.606 78.3565 540.919 78.3565ZM540.819 76.8967C541.2 76.8967 541.539 76.8299 541.835 76.6963C542.131 76.5532 542.36 76.3529 542.522 76.0952C542.694 75.8376 542.779 75.5371 542.779 75.1936C542.779 74.6688 542.598 74.2538 542.236 73.9485C541.873 73.6432 541.386 73.4905 540.776 73.4905C540.375 73.4905 540.022 73.5668 539.717 73.7195C539.421 73.8626 539.182 74.063 539.001 74.3206C538.829 74.5782 538.744 74.874 538.744 75.2079C538.744 75.5132 538.825 75.7947 538.987 76.0523C539.149 76.3099 539.383 76.5151 539.688 76.6677C540.003 76.8204 540.38 76.8967 540.819 76.8967ZM548.16 78.3565C547.454 78.3565 546.762 78.2563 546.085 78.0559C545.417 77.846 544.854 77.5598 544.396 77.1972L545.183 75.7518C545.546 76.0475 545.985 76.2861 546.5 76.4673C547.025 76.6486 547.568 76.7393 548.131 76.7393C548.79 76.7393 549.305 76.6009 549.677 76.3242C550.059 76.0475 550.249 75.6754 550.249 75.2079C550.249 74.8931 550.168 74.6164 550.006 74.3778C549.854 74.1393 549.577 73.958 549.176 73.834C548.785 73.71 548.246 73.6479 547.559 73.6479H545.14L545.655 68.1952H551.538V69.7551H546.342L547.316 68.8678L546.929 72.9467L545.956 72.0736H547.974C548.966 72.0736 549.763 72.2072 550.364 72.4744C550.975 72.732 551.418 73.0945 551.695 73.5621C551.981 74.02 552.124 74.5448 552.124 75.1364C552.124 75.7184 551.981 76.2527 551.695 76.7393C551.409 77.2259 550.97 77.6171 550.378 77.9128C549.796 78.2086 549.057 78.3565 548.16 78.3565Z" fill="#A8B0B7"/>
<path d="M587.203 53.082L587.203 61.033" stroke="#A8B0B7" stroke-width="1.59019"/>
<path d="M580.836 78.2134L584.973 68.9394L585.459 69.7695H579.777L580.665 68.8678V71.4726H578.933V68.1952H586.719V69.4403L582.826 78.2134H580.836ZM591.053 78.3565C590.261 78.3565 589.546 78.1561 588.906 77.7554C588.277 77.3547 587.78 76.7727 587.418 76.0094C587.055 75.2365 586.874 74.3015 586.874 73.2043C586.874 72.107 587.055 71.1768 587.418 70.4135C587.78 69.6406 588.277 69.0539 588.906 68.6531C589.546 68.2524 590.261 68.052 591.053 68.052C591.855 68.052 592.57 68.2524 593.2 68.6531C593.83 69.0539 594.326 69.6406 594.688 70.4135C595.06 71.1768 595.246 72.107 595.246 73.2043C595.246 74.3015 595.06 75.2365 594.688 76.0094C594.326 76.7727 593.83 77.3547 593.2 77.7554C592.57 78.1561 591.855 78.3565 591.053 78.3565ZM591.053 76.7393C591.521 76.7393 591.926 76.6152 592.27 76.3672C592.613 76.1096 592.88 75.7184 593.071 75.1936C593.271 74.6688 593.372 74.0057 593.372 73.2043C593.372 72.3933 593.271 71.7302 593.071 71.2149C592.88 70.6902 592.613 70.3038 592.27 70.0557C591.926 69.7981 591.521 69.6693 591.053 69.6693C590.605 69.6693 590.204 69.7981 589.851 70.0557C589.507 70.3038 589.236 70.6902 589.035 71.2149C588.844 71.7302 588.749 72.3933 588.749 73.2043C588.749 74.0057 588.844 74.6688 589.035 75.1936C589.236 75.7184 589.507 76.1096 589.851 76.3672C590.204 76.6152 590.605 76.7393 591.053 76.7393Z" fill="#A8B0B7"/>
<path d="M630.146 53.082L630.146 61.033" stroke="#A8B0B7" stroke-width="1.59019"/>
<path d="M624.402 78.2134L628.538 68.9394L629.024 69.7695H623.343L624.23 68.8678V71.4726H622.498V68.1952H630.284V69.4403L626.391 78.2134H624.402ZM633.788 78.3565C633.082 78.3565 632.39 78.2563 631.712 78.0559C631.045 77.846 630.482 77.5598 630.024 77.1972L630.811 75.7518C631.173 76.0475 631.612 76.2861 632.127 76.4673C632.652 76.6486 633.196 76.7393 633.759 76.7393C634.417 76.7393 634.933 76.6009 635.305 76.3242C635.686 76.0475 635.877 75.6754 635.877 75.2079C635.877 74.8931 635.796 74.6164 635.634 74.3778C635.481 74.1393 635.205 73.958 634.804 73.834C634.413 73.71 633.874 73.6479 633.187 73.6479H630.768L631.283 68.1952H637.165V69.7551H631.97L632.943 68.8678L632.557 72.9467L631.584 72.0736H633.602C634.594 72.0736 635.391 72.2072 635.992 72.4744C636.602 72.732 637.046 73.0945 637.323 73.5621C637.609 74.02 637.752 74.5448 637.752 75.1364C637.752 75.7184 637.609 76.2527 637.323 76.7393C637.036 77.2259 636.598 77.6171 636.006 77.9128C635.424 78.2086 634.685 78.3565 633.788 78.3565Z" fill="#A8B0B7"/>
<path d="M672.589 53.082L672.589 61.033" stroke="#A8B0B7" stroke-width="1.59019"/>
<path d="M668.751 78.3565C667.921 78.3565 667.201 78.2325 666.59 77.9844C665.98 77.7363 665.507 77.3881 665.174 76.9396C664.84 76.4817 664.673 75.9474 664.673 75.3367C664.673 74.7261 664.835 74.2109 665.159 73.7911C665.484 73.3712 665.951 73.0516 666.562 72.8322C667.172 72.6127 667.902 72.503 668.751 72.503C669.601 72.503 670.331 72.6127 670.941 72.8322C671.561 73.0516 672.034 73.376 672.358 73.8054C672.692 74.2252 672.859 74.7356 672.859 75.3367C672.859 75.9474 672.687 76.4817 672.344 76.9396C672.01 77.3881 671.533 77.7363 670.913 77.9844C670.302 78.2325 669.582 78.3565 668.751 78.3565ZM668.751 76.8967C669.438 76.8967 669.982 76.7536 670.383 76.4673C670.784 76.1811 670.984 75.7852 670.984 75.2795C670.984 74.7833 670.784 74.3921 670.383 74.1059C669.982 73.8197 669.438 73.6766 668.751 73.6766C668.064 73.6766 667.525 73.8197 667.134 74.1059C666.743 74.3921 666.547 74.7833 666.547 75.2795C666.547 75.7852 666.743 76.1811 667.134 76.4673C667.525 76.7536 668.064 76.8967 668.751 76.8967ZM668.751 73.4762C667.979 73.4762 667.316 73.376 666.762 73.1756C666.209 72.9657 665.779 72.6652 665.474 72.274C665.178 71.8733 665.03 71.3962 665.03 70.8428C665.03 70.2704 665.183 69.779 665.488 69.3687C665.803 68.9489 666.242 68.6245 666.805 68.3955C667.368 68.1665 668.017 68.052 668.751 68.052C669.496 68.052 670.149 68.1665 670.712 68.3955C671.275 68.6245 671.714 68.9489 672.029 69.3687C672.344 69.779 672.501 70.2704 672.501 70.8428C672.501 71.3962 672.348 71.8733 672.043 72.274C671.747 72.6652 671.318 72.9657 670.755 73.1756C670.192 73.376 669.524 73.4762 668.751 73.4762ZM668.751 72.3313C669.343 72.3313 669.811 72.2072 670.154 71.9592C670.497 71.7015 670.669 71.3581 670.669 70.9287C670.669 70.4803 670.493 70.132 670.14 69.8839C669.787 69.6359 669.324 69.5118 668.751 69.5118C668.179 69.5118 667.721 69.6359 667.378 69.8839C667.034 70.132 666.862 70.4803 666.862 70.9287C666.862 71.3581 667.029 71.7015 667.363 71.9592C667.707 72.2072 668.169 72.3313 668.751 72.3313ZM676.671 78.3565C675.965 78.3565 675.273 78.2563 674.596 78.0559C673.928 77.846 673.365 77.5598 672.907 77.1972L673.694 75.7518C674.056 76.0475 674.495 76.2861 675.011 76.4673C675.535 76.6486 676.079 76.7393 676.642 76.7393C677.3 76.7393 677.816 76.6009 678.188 76.3242C678.569 76.0475 678.76 75.6754 678.76 75.2079C678.76 74.8931 678.679 74.6164 678.517 74.3778C678.364 74.1393 678.088 73.958 677.687 73.834C677.296 73.71 676.757 73.6479 676.07 73.6479H673.651L674.166 68.1952H680.048V69.7551H674.853L675.826 68.8678L675.44 72.9467L674.467 72.0736H676.485C677.477 72.0736 678.274 72.2072 678.875 72.4744C679.485 72.732 679.929 73.0945 680.206 73.5621C680.492 74.02 680.635 74.5448 680.635 75.1364C680.635 75.7184 680.492 76.2527 680.206 76.7393C679.92 77.2259 679.481 77.6171 678.889 77.9128C678.307 78.2086 677.568 78.3565 676.671 78.3565Z" fill="#A8B0B7"/>
<path d="M715.533 53.082L715.533 61.033" stroke="#A8B0B7" stroke-width="1.59019"/>
<path d="M710.597 68.052C711.513 68.052 712.29 68.2476 712.929 68.6388C713.578 69.0205 714.074 69.5786 714.418 70.3133C714.761 71.048 714.933 71.9544 714.933 73.0325C714.933 74.1775 714.723 75.1459 714.303 75.9378C713.893 76.7297 713.321 77.3308 712.586 77.7411C711.851 78.1514 710.997 78.3565 710.024 78.3565C709.518 78.3565 709.037 78.304 708.579 78.1991C708.121 78.0941 707.725 77.9319 707.391 77.7125L708.078 76.3099C708.354 76.4912 708.655 76.62 708.979 76.6963C709.304 76.7631 709.638 76.7965 709.981 76.7965C710.926 76.7965 711.675 76.5055 712.228 75.9235C712.781 75.3415 713.058 74.4828 713.058 73.3474C713.058 73.1661 713.053 72.9562 713.044 72.7177C713.034 72.4696 713.001 72.2215 712.944 71.9735L713.516 72.6032C713.354 72.9944 713.12 73.3235 712.815 73.5907C712.51 73.8483 712.152 74.0439 711.742 74.1775C711.331 74.311 710.878 74.3778 710.382 74.3778C709.733 74.3778 709.146 74.2538 708.622 74.0057C708.106 73.7481 707.696 73.3903 707.391 72.9323C707.085 72.4648 706.933 71.921 706.933 71.3008C706.933 70.6329 707.095 70.0605 707.419 69.5834C707.744 69.0968 708.183 68.7199 708.736 68.4528C709.299 68.1856 709.919 68.052 710.597 68.052ZM710.697 69.5118C710.315 69.5118 709.976 69.5834 709.681 69.7265C709.385 69.8601 709.151 70.0557 708.979 70.3133C708.817 70.5614 708.736 70.8619 708.736 71.2149C708.736 71.7397 708.917 72.1547 709.28 72.4601C709.642 72.7654 710.129 72.918 710.74 72.918C711.14 72.918 711.493 72.8465 711.799 72.7034C712.104 72.5507 712.343 72.3456 712.514 72.088C712.686 71.8208 712.772 71.525 712.772 71.2006C712.772 70.8858 712.691 70.6043 712.529 70.3562C712.366 70.0986 712.133 69.8935 711.827 69.7408C711.522 69.5882 711.145 69.5118 710.697 69.5118ZM719.655 78.3565C718.863 78.3565 718.148 78.1561 717.508 77.7554C716.879 77.3547 716.383 76.7727 716.02 76.0094C715.657 75.2365 715.476 74.3015 715.476 73.2043C715.476 72.107 715.657 71.1768 716.02 70.4135C716.383 69.6406 716.879 69.0539 717.508 68.6531C718.148 68.2524 718.863 68.052 719.655 68.052C720.457 68.052 721.172 68.2524 721.802 68.6531C722.432 69.0539 722.928 69.6406 723.29 70.4135C723.663 71.1768 723.849 72.107 723.849 73.2043C723.849 74.3015 723.663 75.2365 723.29 76.0094C722.928 76.7727 722.432 77.3547 721.802 77.7554C721.172 78.1561 720.457 78.3565 719.655 78.3565ZM719.655 76.7393C720.123 76.7393 720.528 76.6152 720.872 76.3672C721.215 76.1096 721.482 75.7184 721.673 75.1936C721.874 74.6688 721.974 74.0057 721.974 73.2043C721.974 72.3933 721.874 71.7302 721.673 71.2149C721.482 70.6902 721.215 70.3038 720.872 70.0557C720.528 69.7981 720.123 69.6693 719.655 69.6693C719.207 69.6693 718.806 69.7981 718.453 70.0557C718.11 70.3038 717.838 70.6902 717.637 71.2149C717.446 71.7302 717.351 72.3933 717.351 73.2043C717.351 74.0057 717.446 74.6688 717.637 75.1936C717.838 75.7184 718.11 76.1096 718.453 76.3672C718.806 76.6152 719.207 76.7393 719.655 76.7393Z" fill="#A8B0B7"/>
<path d="M758.476 53.082L758.476 61.033" stroke="#A8B0B7" stroke-width="1.59019"/>
<path d="M754.175 68.052C755.091 68.052 755.869 68.2476 756.508 68.6388C757.157 69.0205 757.653 69.5786 757.997 70.3133C758.34 71.048 758.512 71.9544 758.512 73.0325C758.512 74.1775 758.302 75.1459 757.882 75.9378C757.472 76.7297 756.899 77.3308 756.165 77.7411C755.43 78.1514 754.576 78.3565 753.603 78.3565C753.097 78.3565 752.615 78.304 752.157 78.1991C751.699 78.0941 751.303 77.9319 750.97 77.7125L751.656 76.3099C751.933 76.4912 752.234 76.62 752.558 76.6963C752.883 76.7631 753.216 76.7965 753.56 76.7965C754.505 76.7965 755.254 76.5055 755.807 75.9235C756.36 75.3415 756.637 74.4828 756.637 73.3474C756.637 73.1661 756.632 72.9562 756.623 72.7177C756.613 72.4696 756.58 72.2215 756.522 71.9735L757.095 72.6032C756.933 72.9944 756.699 73.3235 756.394 73.5907C756.088 73.8483 755.731 74.0439 755.32 74.1775C754.91 74.311 754.457 74.3778 753.961 74.3778C753.312 74.3778 752.725 74.2538 752.2 74.0057C751.685 73.7481 751.275 73.3903 750.97 72.9323C750.664 72.4648 750.512 71.921 750.512 71.3008C750.512 70.6329 750.674 70.0605 750.998 69.5834C751.323 69.0968 751.761 68.7199 752.315 68.4528C752.878 68.1856 753.498 68.052 754.175 68.052ZM754.276 69.5118C753.894 69.5118 753.555 69.5834 753.259 69.7265C752.964 69.8601 752.73 70.0557 752.558 70.3133C752.396 70.5614 752.315 70.8619 752.315 71.2149C752.315 71.7397 752.496 72.1547 752.859 72.4601C753.221 72.7654 753.708 72.918 754.318 72.918C754.719 72.918 755.072 72.8465 755.378 72.7034C755.683 72.5507 755.921 72.3456 756.093 72.088C756.265 71.8208 756.351 71.525 756.351 71.2006C756.351 70.8858 756.27 70.6043 756.107 70.3562C755.945 70.0986 755.711 69.8935 755.406 69.7408C755.101 69.5882 754.724 69.5118 754.276 69.5118ZM762.375 78.3565C761.669 78.3565 760.978 78.2563 760.3 78.0559C759.632 77.846 759.069 77.5598 758.611 77.1972L759.398 75.7518C759.761 76.0475 760.2 76.2861 760.715 76.4673C761.24 76.6486 761.784 76.7393 762.347 76.7393C763.005 76.7393 763.52 76.6009 763.892 76.3242C764.274 76.0475 764.465 75.6754 764.465 75.2079C764.465 74.8931 764.384 74.6164 764.222 74.3778C764.069 74.1393 763.792 73.958 763.391 73.834C763 73.71 762.461 73.6479 761.774 73.6479H759.356L759.871 68.1952H765.753V69.7551H760.558L761.531 68.8678L761.145 72.9467L760.171 72.0736H762.189C763.182 72.0736 763.978 72.2072 764.579 72.4744C765.19 72.732 765.634 73.0945 765.91 73.5621C766.197 74.02 766.34 74.5448 766.34 75.1364C766.34 75.7184 766.197 76.2527 765.91 76.7393C765.624 77.2259 765.185 77.6171 764.594 77.9128C764.012 78.2086 763.272 78.3565 762.375 78.3565Z" fill="#A8B0B7"/>
<path d="M804.419 53.082L804.419 61.033" stroke="#A8B0B7" stroke-width="1.59019"/>
<path d="M795.012 78.2134V68.9108L795.828 69.7551H792.894V68.1952H796.873V78.2134H795.012ZM802.323 78.3565C801.531 78.3565 800.816 78.1561 800.177 77.7554C799.547 77.3547 799.051 76.7727 798.688 76.0094C798.326 75.2365 798.144 74.3015 798.144 73.2043C798.144 72.107 798.326 71.1768 798.688 70.4135C799.051 69.6406 799.547 69.0539 800.177 68.6531C800.816 68.2524 801.531 68.052 802.323 68.052C803.125 68.052 803.84 68.2524 804.47 68.6531C805.1 69.0539 805.596 69.6406 805.959 70.4135C806.331 71.1768 806.517 72.107 806.517 73.2043C806.517 74.3015 806.331 75.2365 805.959 76.0094C805.596 76.7727 805.1 77.3547 804.47 77.7554C803.84 78.1561 803.125 78.3565 802.323 78.3565ZM802.323 76.7393C802.791 76.7393 803.196 76.6152 803.54 76.3672C803.883 76.1096 804.151 75.7184 804.341 75.1936C804.542 74.6688 804.642 74.0057 804.642 73.2043C804.642 72.3933 804.542 71.7302 804.341 71.2149C804.151 70.6902 803.883 70.3038 803.54 70.0557C803.196 69.7981 802.791 69.6693 802.323 69.6693C801.875 69.6693 801.474 69.7981 801.121 70.0557C800.778 70.3038 800.506 70.6902 800.305 71.2149C800.115 71.7302 800.019 72.3933 800.019 73.2043C800.019 74.0057 800.115 74.6688 800.305 75.1936C800.506 75.7184 800.778 76.1096 801.121 76.3672C801.474 76.6152 801.875 76.7393 802.323 76.7393ZM811.237 78.3565C810.446 78.3565 809.73 78.1561 809.091 77.7554C808.461 77.3547 807.965 76.7727 807.602 76.0094C807.24 75.2365 807.058 74.3015 807.058 73.2043C807.058 72.107 807.24 71.1768 807.602 70.4135C807.965 69.6406 808.461 69.0539 809.091 68.6531C809.73 68.2524 810.446 68.052 811.237 68.052C812.039 68.052 812.755 68.2524 813.384 68.6531C814.014 69.0539 814.51 69.6406 814.873 70.4135C815.245 71.1768 815.431 72.107 815.431 73.2043C815.431 74.3015 815.245 75.2365 814.873 76.0094C814.51 76.7727 814.014 77.3547 813.384 77.7554C812.755 78.1561 812.039 78.3565 811.237 78.3565ZM811.237 76.7393C811.705 76.7393 812.11 76.6152 812.454 76.3672C812.797 76.1096 813.065 75.7184 813.255 75.1936C813.456 74.6688 813.556 74.0057 813.556 73.2043C813.556 72.3933 813.456 71.7302 813.255 71.2149C813.065 70.6902 812.797 70.3038 812.454 70.0557C812.11 69.7981 811.705 69.6693 811.237 69.6693C810.789 69.6693 810.388 69.7981 810.035 70.0557C809.692 70.3038 809.42 70.6902 809.22 71.2149C809.029 71.7302 808.933 72.3933 808.933 73.2043C808.933 74.0057 809.029 74.6688 809.22 75.1936C809.42 75.7184 809.692 76.1096 810.035 76.3672C810.388 76.6152 810.789 76.7393 811.237 76.7393Z" fill="#A8B0B7"/>
<path d="M853.362 53.082L853.362 61.033" stroke="#A8B0B7" stroke-width="1.59019"/>
<path d="M844.591 78.2134V68.9108L845.407 69.7551H842.473V68.1952H846.451V78.2134H844.591ZM851.902 78.3565C851.11 78.3565 850.395 78.1561 849.755 77.7554C849.126 77.3547 848.63 76.7727 848.267 76.0094C847.904 75.2365 847.723 74.3015 847.723 73.2043C847.723 72.107 847.904 71.1768 848.267 70.4135C848.63 69.6406 849.126 69.0539 849.755 68.6531C850.395 68.2524 851.11 68.052 851.902 68.052C852.704 68.052 853.419 68.2524 854.049 68.6531C854.679 69.0539 855.175 69.6406 855.537 70.4135C855.909 71.1768 856.096 72.107 856.096 73.2043C856.096 74.3015 855.909 75.2365 855.537 76.0094C855.175 76.7727 854.679 77.3547 854.049 77.7554C853.419 78.1561 852.704 78.3565 851.902 78.3565ZM851.902 76.7393C852.37 76.7393 852.775 76.6152 853.119 76.3672C853.462 76.1096 853.729 75.7184 853.92 75.1936C854.121 74.6688 854.221 74.0057 854.221 73.2043C854.221 72.3933 854.121 71.7302 853.92 71.2149C853.729 70.6902 853.462 70.3038 853.119 70.0557C852.775 69.7981 852.37 69.6693 851.902 69.6693C851.454 69.6693 851.053 69.7981 850.7 70.0557C850.357 70.3038 850.085 70.6902 849.884 71.2149C849.693 71.7302 849.598 72.3933 849.598 73.2043C849.598 74.0057 849.693 74.6688 849.884 75.1936C850.085 75.7184 850.357 76.1096 850.7 76.3672C851.053 76.6152 851.454 76.7393 851.902 76.7393ZM859.958 78.3565C859.252 78.3565 858.56 78.2563 857.882 78.0559C857.214 77.846 856.652 77.5598 856.194 77.1972L856.981 75.7518C857.343 76.0475 857.782 76.2861 858.297 76.4673C858.822 76.6486 859.366 76.7393 859.929 76.7393C860.587 76.7393 861.103 76.6009 861.475 76.3242C861.856 76.0475 862.047 75.6754 862.047 75.2079C862.047 74.8931 861.966 74.6164 861.804 74.3778C861.651 74.1393 861.374 73.958 860.974 73.834C860.583 73.71 860.043 73.6479 859.356 73.6479H856.938L857.453 68.1952H863.335V69.7551H858.14L859.113 68.8678L858.727 72.9467L857.754 72.0736H859.772C860.764 72.0736 861.56 72.2072 862.162 72.4744C862.772 72.732 863.216 73.0945 863.493 73.5621C863.779 74.02 863.922 74.5448 863.922 75.1364C863.922 75.7184 863.779 76.2527 863.493 76.7393C863.206 77.2259 862.767 77.6171 862.176 77.9128C861.594 78.2086 860.854 78.3565 859.958 78.3565Z" fill="#A8B0B7"/>
<path d="M900.305 53.082L900.305 61.033" stroke="#A8B0B7" stroke-width="1.59019"/>
<path d="M892.988 78.2134V68.9108L893.804 69.7551H890.87V68.1952H894.848V78.2134H892.988ZM897.723 78.2134V68.9108L898.539 69.7551H895.605V68.1952H899.583V78.2134H897.723ZM905.034 78.3565C904.242 78.3565 903.527 78.1561 902.887 77.7554C902.258 77.3547 901.762 76.7727 901.399 76.0094C901.037 75.2365 900.855 74.3015 900.855 73.2043C900.855 72.107 901.037 71.1768 901.399 70.4135C901.762 69.6406 902.258 69.0539 902.887 68.6531C903.527 68.2524 904.242 68.052 905.034 68.052C905.836 68.052 906.551 68.2524 907.181 68.6531C907.811 69.0539 908.307 69.6406 908.669 70.4135C909.042 71.1768 909.228 72.107 909.228 73.2043C909.228 74.3015 909.042 75.2365 908.669 76.0094C908.307 76.7727 907.811 77.3547 907.181 77.7554C906.551 78.1561 905.836 78.3565 905.034 78.3565ZM905.034 76.7393C905.502 76.7393 905.907 76.6152 906.251 76.3672C906.594 76.1096 906.861 75.7184 907.052 75.1936C907.253 74.6688 907.353 74.0057 907.353 73.2043C907.353 72.3933 907.253 71.7302 907.052 71.2149C906.861 70.6902 906.594 70.3038 906.251 70.0557C905.907 69.7981 905.502 69.6693 905.034 69.6693C904.586 69.6693 904.185 69.7981 903.832 70.0557C903.489 70.3038 903.217 70.6902 903.016 71.2149C902.825 71.7302 902.73 72.3933 902.73 73.2043C902.73 74.0057 902.825 74.6688 903.016 75.1936C903.217 75.7184 903.489 76.1096 903.832 76.3672C904.185 76.6152 904.586 76.7393 905.034 76.7393Z" fill="#A8B0B7"/>
<rect y="5.00024" width="908" height="29" rx="7.95096" fill="#EDF0F3"/>
<rect x="3" y="8.00024" width="755" height="23" rx="6.36077" fill="#6ED375"/>
<rect x="739" y="0.584961" width="37.125" height="37.125" rx="6.36077" fill="black"/>
<path d="M763.714 18.7592C764.265 19.0609 764.265 19.8522 763.714 20.1539L753.796 25.5852C753.159 25.9342 752.426 25.3162 752.663 24.6292L754.353 19.7153C754.411 19.5477 754.411 19.3656 754.353 19.198L752.662 14.2839C752.426 13.5969 753.159 12.9789 753.796 13.3278L763.714 18.7592Z" fill="white"/>
</svg>
