<svg width="160" height="31" viewBox="0 0 160 31" fill="none" xmlns="http://www.w3.org/2000/svg">
<path d="M79.9408 12.6679L75.044 24.2737H71.5709L66.6956 12.6679H70.1687L73.3829 20.5633L76.705 12.6679H79.9408ZM91.2879 18.5139C91.2879 18.5571 91.2664 18.8591 91.2232 19.42H82.4434C82.6016 20.139 82.9755 20.7071 83.5651 21.1242C84.1548 21.5412 84.8882 21.7497 85.7655 21.7497C86.3695 21.7497 86.9016 21.6635 87.3618 21.4909C87.8364 21.3039 88.275 21.0163 88.6777 20.628L90.4682 22.5695C89.3752 23.8207 87.7789 24.4463 85.6792 24.4463C84.3705 24.4463 83.2128 24.1946 82.2061 23.6912C81.1994 23.1735 80.4228 22.4616 79.8763 21.5556C79.3298 20.6496 79.0566 19.6213 79.0566 18.4708C79.0566 17.3347 79.3226 16.3136 79.8547 15.4076C80.4012 14.4871 81.1419 13.7753 82.0767 13.2719C83.0258 12.7542 84.0829 12.4953 85.2477 12.4953C86.3839 12.4953 87.4121 12.7398 88.3326 13.2288C89.253 13.7177 89.972 14.4224 90.4898 15.3428C91.0219 16.2489 91.2879 17.3059 91.2879 18.5139ZM85.2693 15.0408C84.5071 15.0408 83.8671 15.2565 83.3494 15.688C82.8317 16.1194 82.5153 16.7091 82.4002 17.4569H88.1168C88.0018 16.7235 87.6854 16.141 87.1677 15.7096C86.6499 15.2637 86.0172 15.0408 85.2693 15.0408ZM95.664 14.1995C96.0667 13.6386 96.606 13.2144 97.2819 12.9268C97.9722 12.6391 98.7632 12.4953 99.6549 12.4953V15.6017C99.281 15.5729 99.0293 15.5586 98.8998 15.5586C97.9363 15.5586 97.1813 15.8318 96.6348 16.3783C96.0883 16.9104 95.815 17.7158 95.815 18.7944V24.2737H92.4498V12.6679H95.664V14.1995ZM114.493 24.2737L114.471 15.2134L110.027 22.6773H108.453L104.03 15.4076V24.2737H100.751V9.17322H103.642L109.294 18.5571L114.859 9.17322H117.729L117.772 24.2737H114.493ZM120.038 12.6679H123.404V24.2737H120.038V12.6679ZM121.721 11.05C121.103 11.05 120.599 10.8702 120.211 10.5107C119.823 10.1512 119.629 9.70533 119.629 9.17322C119.629 8.64111 119.823 8.19529 120.211 7.83575C120.599 7.47622 121.103 7.29645 121.721 7.29645C122.339 7.29645 122.843 7.46903 123.231 7.81418C123.619 8.15933 123.814 8.59078 123.814 9.10851C123.814 9.66938 123.619 10.1368 123.231 10.5107C122.843 10.8702 122.339 11.05 121.721 11.05ZM132.502 12.4953C133.941 12.4953 135.098 12.9268 135.976 13.7896C136.867 14.6525 137.313 15.9325 137.313 17.6295V24.2737H133.948V18.1472C133.948 17.2268 133.746 16.5437 133.344 16.0979C132.941 15.6377 132.359 15.4076 131.596 15.4076C130.748 15.4076 130.072 15.6736 129.569 16.2057C129.065 16.7235 128.814 17.5 128.814 18.5355V24.2737H125.448V12.6679H128.663V14.0269C129.108 13.538 129.662 13.1641 130.324 12.9052C130.985 12.6319 131.711 12.4953 132.502 12.4953ZM150.78 18.5139C150.78 18.5571 150.758 18.8591 150.715 19.42H141.935C142.093 20.139 142.467 20.7071 143.057 21.1242C143.647 21.5412 144.38 21.7497 145.257 21.7497C145.861 21.7497 146.393 21.6635 146.854 21.4909C147.328 21.3039 147.767 21.0163 148.169 20.628L149.96 22.5695C148.867 23.8207 147.271 24.4463 145.171 24.4463C143.862 24.4463 142.705 24.1946 141.698 23.6912C140.691 23.1735 139.915 22.4616 139.368 21.5556C138.822 20.6496 138.548 19.6213 138.548 18.4708C138.548 17.3347 138.814 16.3136 139.346 15.4076C139.893 14.4871 140.634 13.7753 141.568 13.2719C142.518 12.7542 143.575 12.4953 144.74 12.4953C145.876 12.4953 146.904 12.7398 147.824 13.2288C148.745 13.7177 149.464 14.4224 149.982 15.3428C150.514 16.2489 150.78 17.3059 150.78 18.5139ZM144.761 15.0408C143.999 15.0408 143.359 15.2565 142.841 15.688C142.323 16.1194 142.007 16.7091 141.892 17.4569H147.609C147.494 16.7235 147.177 16.141 146.659 15.7096C146.142 15.2637 145.509 15.0408 144.761 15.0408ZM155.156 14.1995C155.558 13.6386 156.098 13.2144 156.774 12.9268C157.464 12.6391 158.255 12.4953 159.147 12.4953V15.6017C158.773 15.5729 158.521 15.5586 158.392 15.5586C157.428 15.5586 156.673 15.8318 156.127 16.3783C155.58 16.9104 155.307 17.7158 155.307 18.7944V24.2737H151.942V12.6679H155.156V14.1995Z" fill="black"/>
<path d="M59.7425 6.18533C58.0078 6.18533 56.4565 6.57732 55.0887 7.3613C53.7042 8.1286 52.62 9.20448 51.836 10.589C51.052 11.9567 50.66 13.508 50.66 15.2428C50.66 16.9776 51.052 18.5372 51.836 19.9216C52.62 21.2894 53.7042 22.3653 55.0887 23.1493C56.4565 23.9166 58.0078 24.3002 59.7425 24.3002C61.2938 24.3002 62.6949 24.0334 63.946 23.4996C65.1803 22.9658 66.2145 22.1902 67.0485 21.1727L64.4714 18.7707C63.2371 20.1552 61.7275 20.8474 59.9427 20.8474C58.6583 20.8474 57.5741 20.4721 56.69 19.7215C55.7893 18.9709 55.2054 17.9617 54.9386 16.694H62.0444V13.5914H54.9886C55.2722 12.3904 55.856 11.4313 56.74 10.7141C57.6241 9.9968 58.6917 9.63817 59.9427 9.63817C61.7275 9.63817 63.2371 10.3304 64.4714 11.7149L67.0485 9.31291C66.2145 8.2954 65.1803 7.51976 63.946 6.98599C62.6949 6.45222 61.2938 6.18533 59.7425 6.18533Z" fill="black"/>
<path d="M16.9778 17.3529V12.5179H0.000370026V17.3529H16.9778ZM14.2724 4.58276C12.6967 4.58276 11.2633 4.83874 9.97231 5.35068C8.66235 5.84366 7.53274 6.5547 6.58349 7.48378C5.63424 8.41287 4.90331 9.5126 4.39072 10.783C3.85914 12.0534 3.59335 13.4565 3.59335 14.9923C3.59335 16.5281 3.85914 17.9312 4.39072 19.2016C4.90331 20.472 5.63424 21.5717 6.58349 22.5008C7.53274 23.4299 8.66235 24.1504 9.97231 24.6624C11.2633 25.1554 12.6967 25.4018 14.2724 25.4018C16.2279 25.4018 17.965 25.0605 19.4838 24.378C20.9836 23.6764 22.2271 22.6904 23.2144 21.4201L18.9712 17.6374C18.3827 18.3768 17.7372 18.9551 17.0347 19.3723C16.3133 19.7705 15.5064 19.9695 14.6141 19.9695C13.9497 19.9695 13.3611 19.8558 12.8485 19.6282C12.317 19.4007 11.8708 19.0689 11.5101 18.6328C11.1304 18.1967 10.8456 17.6753 10.6558 17.0685C10.4659 16.4428 10.371 15.7507 10.371 14.9923C10.371 14.2339 10.4659 13.5513 10.6558 12.9445C10.8456 12.3188 11.1304 11.7879 11.5101 11.3518C11.8708 10.9157 12.317 10.5839 12.8485 10.3564C13.3611 10.1288 13.9497 10.0151 14.6141 10.0151C15.5064 10.0151 16.3133 10.2236 17.0347 10.6408C17.7372 11.039 18.3827 11.6078 18.9712 12.3473L23.2144 8.56455C22.2271 7.27521 20.9836 6.28925 19.4838 5.60665C17.965 4.92406 16.2279 4.58276 14.2724 4.58276Z" fill="black"/>
<path d="M33.433 5.66431C31.1471 5.66431 28.888 6.58362 26.8244 8.33257C28.7511 10.8399 30.3099 13.847 30.3099 13.847C31.0913 13.0301 32.2679 12.0564 33.4329 12.0564C35.3143 12.0564 36.8454 13.5761 36.8454 15.4447C36.8454 17.3133 35.3143 18.8333 33.4329 18.8333C31.2667 18.8333 29.5844 15.9897 28.8588 15.058C26.5643 12.1117 24.9253 10.4748 24.2698 9.82007L19.9932 13.7485C21.3043 15.3854 22.0382 16.634 23.2864 18.3317C24.8737 20.4908 27.4553 25.2257 33.433 25.2257C38.8643 25.2257 43.2831 20.8381 43.2831 15.4447C43.2831 10.0514 38.8643 5.66431 33.433 5.66431Z" fill="url(#paint0_linear_389_2359)"/>
<defs>
<linearGradient id="paint0_linear_389_2359" x1="24.5822" y1="15.7127" x2="38.6265" y2="31.0746" gradientUnits="userSpaceOnUse">
<stop offset="0.298667" stop-color="#3171D0"/>
<stop offset="0.299342" stop-color="#003E9A"/>
<stop offset="0.511401" stop-color="#1D62CA"/>
</linearGradient>
</defs>
</svg>
