<svg width="212" height="40" viewBox="0 0 212 40" fill="none" xmlns="http://www.w3.org/2000/svg">
<path d="M94.8314 32.3378L88.3717 16.9601H92.9735L98.3472 30.194H96.0605L101.634 16.9601H105.922L99.4333 32.3378H94.8314ZM113.525 32.5664C111.772 32.5664 110.228 32.2234 108.895 31.5374C107.58 30.8515 106.56 29.9177 105.836 28.7363C105.112 27.5358 104.75 26.1734 104.75 24.6489C104.75 23.1054 105.103 21.743 105.808 20.5616C106.532 19.3611 107.513 18.4274 108.752 17.7604C109.99 17.0744 111.391 16.7314 112.953 16.7314C114.459 16.7314 115.812 17.0554 117.012 17.7033C118.232 18.3321 119.194 19.2467 119.899 20.4472C120.604 21.6287 120.957 23.0483 120.957 24.7061C120.957 24.8776 120.947 25.0777 120.928 25.3063C120.909 25.5159 120.89 25.716 120.871 25.9066H108.38V23.3055H118.527L116.812 24.0773C116.812 23.2769 116.65 22.5814 116.326 21.9907C116.002 21.4 115.554 20.9427 114.983 20.6187C114.411 20.2757 113.744 20.1042 112.982 20.1042C112.22 20.1042 111.543 20.2757 110.953 20.6187C110.381 20.9427 109.933 21.4095 109.609 22.0193C109.285 22.61 109.123 23.3151 109.123 24.1344V24.8204C109.123 25.6589 109.304 26.402 109.666 27.0499C110.047 27.6787 110.571 28.1646 111.238 28.5076C111.924 28.8316 112.725 28.9936 113.639 28.9936C114.459 28.9936 115.173 28.8697 115.783 28.622C116.412 28.3743 116.984 28.0027 117.498 27.5072L119.87 30.0797C119.165 30.88 118.279 31.4993 117.212 31.9376C116.145 32.3568 114.916 32.5664 113.525 32.5664ZM122.496 32.3378V16.9601H126.755V21.3047L126.155 20.0471C126.612 18.9609 127.346 18.1415 128.356 17.5889C129.365 17.0173 130.595 16.7314 132.043 16.7314V20.8474C131.852 20.8283 131.681 20.8188 131.528 20.8188C131.376 20.7997 131.214 20.7902 131.042 20.7902C129.823 20.7902 128.832 21.1427 128.07 21.8478C127.327 22.5338 126.955 23.6104 126.955 25.0777V32.3378H122.496ZM133.524 32.3378V12.3296H137.354L145.871 26.4497H143.842L152.217 12.3296H156.018L156.076 32.3378H151.731L151.702 18.9895H152.503L145.814 30.2226H143.728L136.896 18.9895H137.868V32.3378H133.524ZM159.079 32.3378V16.9601H163.538V32.3378H159.079ZM161.308 14.8164C160.489 14.8164 159.822 14.5782 159.308 14.1018C158.793 13.6254 158.536 13.0347 158.536 12.3296C158.536 11.6246 158.793 11.0339 159.308 10.5575C159.822 10.0811 160.489 9.84291 161.308 9.84291C162.128 9.84291 162.795 10.0716 163.309 10.5289C163.824 10.9672 164.081 11.5388 164.081 12.2439C164.081 12.987 163.824 13.6063 163.309 14.1018C162.814 14.5782 162.147 14.8164 161.308 14.8164ZM175.594 16.7314C176.813 16.7314 177.899 16.9791 178.852 17.4746C179.824 17.951 180.586 18.6941 181.139 19.7041C181.691 20.6949 181.968 21.9717 181.968 23.5342V32.3378H177.509V24.2202C177.509 22.9816 177.232 22.0669 176.68 21.4762C176.146 20.8855 175.384 20.5901 174.393 20.5901C173.688 20.5901 173.05 20.7426 172.478 21.0475C171.926 21.3333 171.487 21.7811 171.163 22.3909C170.858 23.0006 170.706 23.7819 170.706 24.7347V32.3378H166.247V16.9601H170.506V21.219L169.706 19.9327C170.258 18.9037 171.049 18.1129 172.078 17.5603C173.107 17.0077 174.279 16.7314 175.594 16.7314ZM192.324 32.5664C190.571 32.5664 189.027 32.2234 187.693 31.5374C186.378 30.8515 185.359 29.9177 184.635 28.7363C183.911 27.5358 183.549 26.1734 183.549 24.6489C183.549 23.1054 183.901 21.743 184.606 20.5616C185.33 19.3611 186.312 18.4274 187.55 17.7604C188.789 17.0744 190.19 16.7314 191.752 16.7314C193.257 16.7314 194.61 17.0554 195.811 17.7033C197.03 18.3321 197.993 19.2467 198.698 20.4472C199.403 21.6287 199.755 23.0483 199.755 24.7061C199.755 24.8776 199.746 25.0777 199.727 25.3063C199.708 25.5159 199.689 25.716 199.67 25.9066H187.179V23.3055H197.326L195.611 24.0773C195.611 23.2769 195.449 22.5814 195.125 21.9907C194.801 21.4 194.353 20.9427 193.781 20.6187C193.21 20.2757 192.543 20.1042 191.781 20.1042C191.018 20.1042 190.342 20.2757 189.751 20.6187C189.18 20.9427 188.732 21.4095 188.408 22.0193C188.084 22.61 187.922 23.3151 187.922 24.1344V24.8204C187.922 25.6589 188.103 26.402 188.465 27.0499C188.846 27.6787 189.37 28.1646 190.037 28.5076C190.723 28.8316 191.523 28.9936 192.438 28.9936C193.257 28.9936 193.972 28.8697 194.582 28.622C195.211 28.3743 195.782 28.0027 196.297 27.5072L198.669 30.0797C197.964 30.88 197.078 31.4993 196.011 31.9376C194.944 32.3568 193.715 32.5664 192.324 32.5664ZM201.295 32.3378V16.9601H205.554V21.3047L204.953 20.0471C205.411 18.9609 206.144 18.1415 207.154 17.5889C208.164 17.0173 209.393 16.7314 210.842 16.7314V20.8474C210.651 20.8283 210.479 20.8188 210.327 20.8188C210.175 20.7997 210.013 20.7902 209.841 20.7902C208.622 20.7902 207.631 21.1427 206.868 21.8478C206.125 22.5338 205.754 23.6104 205.754 25.0777V32.3378H201.295Z" fill="black"/>
<path d="M82.2091 22.3195V18.2086H70.7384V22.3195H82.2091ZM79.1591 8.39554C77.4131 8.39554 75.8107 8.69391 74.352 9.29065C72.8933 9.86529 71.6225 10.6941 70.5395 11.7771C69.4565 12.8601 68.6167 14.1309 68.0199 15.5896C67.4232 17.0483 67.1248 18.6507 67.1248 20.3967C67.1248 22.1427 67.4232 23.7451 68.0199 25.2038C68.6167 26.6625 69.4565 27.9333 70.5395 29.0163C71.6225 30.0993 72.8933 30.9391 74.352 31.5359C75.8107 32.1105 77.4131 32.3978 79.1591 32.3978C81.2146 32.3978 83.0711 32.0442 84.7287 31.337C86.3642 30.6297 87.7345 29.602 88.8396 28.2538L85.4249 25.0712C84.6071 25.9994 83.701 26.6956 82.7064 27.1598C81.7118 27.6018 80.6178 27.8228 79.4243 27.8228C78.4298 27.8228 77.5125 27.646 76.6727 27.2924C75.8107 26.9166 75.0814 26.4083 74.4846 25.7674C73.8658 25.1043 73.4017 24.3197 73.0922 23.4135C72.7607 22.5074 72.5949 21.5018 72.5949 20.3967C72.5949 19.2916 72.7607 18.286 73.0922 17.3798C73.4017 16.4737 73.8658 15.7001 74.4846 15.0592C75.0814 14.3961 75.8107 13.8878 76.6727 13.5341C77.5125 13.1584 78.4298 12.9706 79.4243 12.9706C80.6178 12.9706 81.7118 13.2026 82.7064 13.6668C83.701 14.1088 84.6071 14.7939 85.4249 15.7222L88.8396 12.5396C87.7345 11.1914 86.3642 10.1637 84.7287 9.45641C83.0711 8.74916 81.2146 8.39554 79.1591 8.39554Z" fill="black"/>
<path d="M22.4951 22.9926V16.5862H-1.71661e-05V22.9926H22.4951ZM18.9105 6.07214C16.8226 6.07214 14.9234 6.41131 13.2128 7.08963C11.4771 7.74284 9.98038 8.68496 8.72262 9.916C7.46486 11.147 6.49639 12.6042 5.8172 14.2874C5.11286 15.9707 4.76068 17.8298 4.76068 19.8648C4.76068 21.8998 5.11286 23.7589 5.8172 25.4422C6.49639 27.1254 7.46486 28.5826 8.72262 29.8136C9.98038 31.0446 11.4771 31.9993 13.2128 32.6777C14.9234 33.3309 16.8226 33.6575 18.9105 33.6575C21.5014 33.6575 23.8031 33.2052 25.8156 32.3008C27.8028 31.3712 29.4505 30.0648 30.7585 28.3816L25.1364 23.3695C24.3566 24.3493 23.5013 25.1156 22.5705 25.6683C21.6146 26.1959 20.5455 26.4596 19.3633 26.4596C18.4828 26.4596 17.703 26.3089 17.0238 26.0074C16.3195 25.706 15.7283 25.2663 15.2504 24.6885C14.7473 24.1106 14.37 23.4197 14.1184 22.6158C13.8669 21.7867 13.7411 20.8697 13.7411 19.8648C13.7411 18.8599 13.8669 17.9554 14.1184 17.1515C14.37 16.3224 14.7473 15.619 15.2504 15.0411C15.7283 14.4633 16.3195 14.0236 17.0238 13.7222C17.703 13.4207 18.4828 13.2699 19.3633 13.2699C20.5455 13.2699 21.6146 13.5463 22.5705 14.099C23.5013 14.6266 24.3566 15.3803 25.1364 16.3601L30.7585 11.348C29.4505 9.63964 27.8028 8.33323 25.8156 7.4288C23.8031 6.52436 21.5014 6.07214 18.9105 6.07214Z" fill="black"/>
<path d="M44.2988 7.50549C41.2699 7.50549 38.2767 8.72358 35.5424 11.0409C38.0953 14.3632 40.1606 18.3476 40.1606 18.3476C41.196 17.2652 42.755 15.975 44.2986 15.975C46.7915 15.975 48.8202 17.9887 48.8202 20.4646C48.8202 22.9405 46.7915 24.9544 44.2986 24.9544C41.4285 24.9544 39.1993 21.1867 38.2379 19.9522C35.1977 16.0482 33.0261 13.8794 32.1575 13.0119L26.491 18.2171C28.2282 20.3859 29.2007 22.0403 30.8545 24.2898C32.9577 27.1506 36.3783 33.4244 44.2988 33.4244C51.4953 33.4244 57.3501 27.6108 57.3501 20.4646C57.3501 13.3184 51.4953 7.50549 44.2988 7.50549Z" fill="url(#paint0_linear_329_769)"/>
<defs>
<linearGradient id="paint0_linear_329_769" x1="32.5714" y1="20.8197" x2="51.1802" y2="41.1742" gradientUnits="userSpaceOnUse">
<stop offset="0.298667" stop-color="#3171D0"/>
<stop offset="0.299342" stop-color="#003E9A"/>
<stop offset="0.511401" stop-color="#1D62CA"/>
</linearGradient>
</defs>
</svg>
