<svg width="344" height="193" viewBox="0 0 344 193" fill="none" xmlns="http://www.w3.org/2000/svg">
<g filter="url(#filter0_d_2011_2)">
<rect x="12" y="6.15771" width="150" height="94" rx="11.5197" fill="#6ED375" shape-rendering="crispEdges"/>
<path d="M61.1181 21.4811C61.9567 21.4811 62.6847 21.6194 63.3022 21.8958C63.9289 22.1723 64.4081 22.5686 64.7399 23.0847C65.0716 23.6008 65.2375 24.2136 65.2375 24.9232C65.2375 25.6236 65.0716 26.2365 64.7399 26.7618C64.4081 27.2779 63.9289 27.6741 63.3022 27.9506C62.6847 28.2271 61.9567 28.3653 61.1181 28.3653H58.9339V31.1577H57.1368V21.4811H61.1181ZM61.0351 26.8447C61.8185 26.8447 62.4129 26.6788 62.8184 26.3471C63.2239 26.0153 63.4266 25.5407 63.4266 24.9232C63.4266 24.3058 63.2239 23.8312 62.8184 23.4994C62.4129 23.1676 61.8185 23.0017 61.0351 23.0017H58.9339V26.8447H61.0351ZM68.9276 23.6929C70.015 23.6929 70.8445 23.9556 71.4158 24.4809C71.9964 24.997 72.2867 25.7803 72.2867 26.8309V31.1577H70.6555V30.2592C70.4436 30.5817 70.1395 30.8306 69.7432 31.0057C69.3561 31.1715 68.8861 31.2545 68.3332 31.2545C67.7802 31.2545 67.2964 31.1623 66.8817 30.978C66.467 30.7845 66.1444 30.5218 65.914 30.1901C65.6928 29.8491 65.5822 29.4666 65.5822 29.0427C65.5822 28.3792 65.8265 27.8492 66.3149 27.453C66.8126 27.0475 67.5913 26.8447 68.6511 26.8447H70.5588V26.7341C70.5588 26.218 70.4021 25.8218 70.0888 25.5453C69.7846 25.2688 69.3285 25.1306 68.7202 25.1306C68.3055 25.1306 67.8954 25.1951 67.4899 25.3241C67.0936 25.4531 66.7573 25.6328 66.4808 25.8632L65.8034 24.6053C66.1905 24.3104 66.6559 24.0846 67.1996 23.9279C67.7433 23.7713 68.3193 23.6929 68.9276 23.6929ZM68.6926 29.9965C69.1257 29.9965 69.5082 29.8998 69.8399 29.7062C70.1809 29.5035 70.4205 29.2178 70.5588 28.8492V27.9921H68.7755C67.7802 27.9921 67.2826 28.3192 67.2826 28.9736C67.2826 29.2869 67.407 29.5357 67.6558 29.7201C67.9046 29.9044 68.2502 29.9965 68.6926 29.9965ZM80.59 23.7759L77.1341 31.7521C76.8116 32.5539 76.4199 33.1161 75.9591 33.4386C75.4983 33.7704 74.9407 33.9363 74.2864 33.9363C73.9178 33.9363 73.5538 33.8764 73.1943 33.7566C72.8349 33.6368 72.54 33.4709 72.3096 33.2589L73.0008 31.9871C73.1667 32.1438 73.3602 32.2682 73.5814 32.3604C73.8118 32.4525 74.0422 32.4986 74.2726 32.4986C74.5767 32.4986 74.8255 32.4203 75.0191 32.2636C75.2218 32.1069 75.4061 31.8443 75.572 31.4757L75.6964 31.1854L72.4755 23.7759H74.2726L76.595 29.2362L78.9312 23.7759H80.59ZM85.0706 23.6929C85.7895 23.6929 86.43 23.8496 86.9921 24.1629C87.5635 24.4763 88.0105 24.9186 88.333 25.49C88.6556 26.0614 88.8169 26.7203 88.8169 27.4668C88.8169 28.2133 88.6556 28.8768 88.333 29.4574C88.0105 30.0288 87.5635 30.4711 86.9921 30.7845C86.43 31.0978 85.7895 31.2545 85.0706 31.2545C84.5638 31.2545 84.0984 31.1669 83.6744 30.9918C83.2597 30.8167 82.9095 30.5541 82.6238 30.2039V31.1577H80.9788V20.9005H82.7068V24.6744C83.0017 24.3518 83.3473 24.1076 83.7436 23.9417C84.1491 23.7759 84.5914 23.6929 85.0706 23.6929ZM84.8771 29.7753C85.513 29.7753 86.0337 29.5634 86.4392 29.1395C86.8539 28.7155 87.0612 28.158 87.0612 27.4668C87.0612 26.7756 86.8539 26.218 86.4392 25.7941C86.0337 25.3702 85.513 25.1582 84.8771 25.1582C84.4624 25.1582 84.0892 25.255 83.7574 25.4485C83.4256 25.6328 83.163 25.9001 82.9694 26.2503C82.7759 26.6005 82.6791 27.006 82.6791 27.4668C82.6791 27.9276 82.7759 28.3331 82.9694 28.6833C83.163 29.0335 83.4256 29.3053 83.7574 29.4989C84.0892 29.6832 84.4624 29.7753 84.8771 29.7753ZM92.49 23.6929C93.5774 23.6929 94.4068 23.9556 94.9782 24.4809C95.5588 24.997 95.8491 25.7803 95.8491 26.8309V31.1577H94.2179V30.2592C94.006 30.5817 93.7018 30.8306 93.3056 31.0057C92.9185 31.1715 92.4485 31.2545 91.8955 31.2545C91.3426 31.2545 90.8588 31.1623 90.4441 30.978C90.0293 30.7845 89.7068 30.5218 89.4764 30.1901C89.2552 29.8491 89.1446 29.4666 89.1446 29.0427C89.1446 28.3792 89.3888 27.8492 89.8773 27.453C90.3749 27.0475 91.1537 26.8447 92.2135 26.8447H94.1212V26.7341C94.1212 26.218 93.9645 25.8218 93.6512 25.5453C93.347 25.2688 92.8908 25.1306 92.2826 25.1306C91.8679 25.1306 91.4578 25.1951 91.0523 25.3241C90.656 25.4531 90.3196 25.6328 90.0432 25.8632L89.3658 24.6053C89.7529 24.3104 90.2183 24.0846 90.762 23.9279C91.3057 23.7713 91.8817 23.6929 92.49 23.6929ZM92.255 29.9965C92.6881 29.9965 93.0706 29.8998 93.4023 29.7062C93.7433 29.5035 93.9829 29.2178 94.1212 28.8492V27.9921H92.3379C91.3426 27.9921 90.8449 28.3192 90.8449 28.9736C90.8449 29.2869 90.9694 29.5357 91.2182 29.7201C91.467 29.9044 91.8126 29.9965 92.255 29.9965ZM100.83 31.2545C100.065 31.2545 99.3784 31.0932 98.7701 30.7707C98.1619 30.4481 97.6873 30.0011 97.3463 29.4298C97.0053 28.8492 96.8348 28.1948 96.8348 27.4668C96.8348 26.7387 97.0053 26.089 97.3463 25.5176C97.6873 24.9463 98.1573 24.4993 98.7563 24.1767C99.3646 23.8542 100.056 23.6929 100.83 23.6929C101.558 23.6929 102.194 23.8404 102.738 24.1353C103.29 24.4302 103.705 24.8541 103.982 25.4071L102.655 26.1812C102.443 25.8402 102.175 25.5868 101.853 25.4209C101.539 25.2458 101.194 25.1582 100.816 25.1582C100.171 25.1582 99.6364 25.3702 99.2125 25.7941C98.7886 26.2088 98.5766 26.7664 98.5766 27.4668C98.5766 28.1672 98.784 28.7294 99.1987 29.1533C99.6226 29.568 100.162 29.7753 100.816 29.7753C101.194 29.7753 101.539 29.6924 101.853 29.5265C102.175 29.3514 102.443 29.0934 102.655 28.7524L103.982 29.5265C103.696 30.0795 103.277 30.508 102.724 30.8121C102.18 31.107 101.549 31.2545 100.83 31.2545ZM107.73 27.9921L106.445 29.2086V31.1577H104.717V20.9005H106.445V27.0935L110.025 23.7759H112.099L109.016 26.8724L112.389 31.1577H110.288L107.73 27.9921Z" fill="white"/>
<path d="M12 45.1577H162" stroke="white" stroke-opacity="0.2" stroke-width="0.575987"/>
<path d="M62.1945 74.3417H59.2185V78.1577H56.1945V74.3417H46.9785V72.1817L55.2585 61.3577H58.5945L50.7945 71.7017H56.2905V68.3177H59.2185V71.7017H62.1945V74.3417ZM76.1884 72.2297V78.1577H73.0684V72.2777L66.4684 61.3577H69.8044L74.7244 69.5417L79.6924 61.3577H82.7644L76.1884 72.2297ZM93.9379 71.8217C93.9379 72.0297 93.9219 72.3257 93.8899 72.7097H83.8339C84.0099 73.6537 84.4659 74.4057 85.2019 74.9657C85.9539 75.5097 86.8819 75.7817 87.9859 75.7817C89.3939 75.7817 90.5539 75.3177 91.4659 74.3897L93.0739 76.2377C92.4979 76.9257 91.7699 77.4457 90.8899 77.7977C90.0099 78.1497 89.0179 78.3257 87.9139 78.3257C86.5059 78.3257 85.2659 78.0457 84.1939 77.4857C83.1219 76.9257 82.2899 76.1497 81.6979 75.1577C81.1219 74.1497 80.8339 73.0137 80.8339 71.7497C80.8339 70.5017 81.1139 69.3817 81.6739 68.3897C82.2499 67.3817 83.0419 66.5977 84.0499 66.0377C85.0579 65.4777 86.1939 65.1977 87.4579 65.1977C88.7059 65.1977 89.8179 65.4777 90.7939 66.0377C91.7859 66.5817 92.5539 67.3577 93.0979 68.3657C93.6579 69.3577 93.9379 70.5097 93.9379 71.8217ZM87.4579 67.5977C86.4979 67.5977 85.6819 67.8857 85.0099 68.4617C84.3539 69.0217 83.9539 69.7737 83.8099 70.7177H91.0819C90.9539 69.7897 90.5619 69.0377 89.9059 68.4617C89.2499 67.8857 88.4339 67.5977 87.4579 67.5977ZM100.164 65.1977C102.052 65.1977 103.492 65.6537 104.484 66.5657C105.492 67.4617 105.996 68.8217 105.996 70.6457V78.1577H103.164V76.5977C102.796 77.1577 102.268 77.5897 101.58 77.8937C100.908 78.1817 100.092 78.3257 99.132 78.3257C98.172 78.3257 97.332 78.1657 96.612 77.8457C95.892 77.5097 95.332 77.0537 94.932 76.4777C94.548 75.8857 94.356 75.2217 94.356 74.4857C94.356 73.3337 94.78 72.4137 95.628 71.7257C96.492 71.0217 97.844 70.6697 99.684 70.6697H102.996V70.4777C102.996 69.5817 102.724 68.8937 102.18 68.4137C101.652 67.9337 100.86 67.6937 99.804 67.6937C99.084 67.6937 98.372 67.8057 97.668 68.0297C96.98 68.2537 96.396 68.5657 95.916 68.9657L94.74 66.7817C95.412 66.2697 96.22 65.8777 97.164 65.6057C98.108 65.3337 99.108 65.1977 100.164 65.1977ZM99.756 76.1417C100.508 76.1417 101.172 75.9737 101.748 75.6377C102.34 75.2857 102.756 74.7897 102.996 74.1497V72.6617H99.9C98.172 72.6617 97.308 73.2297 97.308 74.3657C97.308 74.9097 97.524 75.3417 97.956 75.6617C98.388 75.9817 98.988 76.1417 99.756 76.1417ZM111.502 67.2137C112.366 65.8697 113.886 65.1977 116.062 65.1977V68.0537C115.806 68.0057 115.574 67.9817 115.366 67.9817C114.198 67.9817 113.286 68.3257 112.63 69.0137C111.974 69.6857 111.646 70.6617 111.646 71.9417V78.1577H108.646V65.3417H111.502V67.2137ZM121.414 78.3257C120.374 78.3257 119.358 78.1897 118.366 77.9177C117.374 77.6457 116.582 77.3017 115.99 76.8857L117.142 74.6057C117.718 74.9897 118.406 75.3017 119.206 75.5417C120.022 75.7657 120.822 75.8777 121.606 75.8777C123.398 75.8777 124.294 75.4057 124.294 74.4617C124.294 74.0137 124.062 73.7017 123.598 73.5257C123.15 73.3497 122.422 73.1817 121.414 73.0217C120.358 72.8617 119.494 72.6777 118.822 72.4697C118.166 72.2617 117.59 71.9017 117.094 71.3897C116.614 70.8617 116.374 70.1337 116.374 69.2057C116.374 67.9897 116.878 67.0217 117.886 66.3017C118.91 65.5657 120.286 65.1977 122.014 65.1977C122.894 65.1977 123.774 65.3017 124.654 65.5097C125.534 65.7017 126.254 65.9657 126.814 66.3017L125.662 68.5817C124.574 67.9417 123.35 67.6217 121.99 67.6217C121.11 67.6217 120.438 67.7577 119.974 68.0297C119.526 68.2857 119.302 68.6297 119.302 69.0617C119.302 69.5417 119.542 69.8857 120.022 70.0937C120.518 70.2857 121.278 70.4697 122.302 70.6457C123.326 70.8057 124.166 70.9897 124.822 71.1977C125.478 71.4057 126.038 71.7577 126.502 72.2537C126.982 72.7497 127.222 73.4537 127.222 74.3657C127.222 75.5657 126.702 76.5257 125.662 77.2457C124.622 77.9657 123.206 78.3257 121.414 78.3257Z" fill="white"/>
</g>
<g filter="url(#filter1_d_2011_2)">
<rect x="182" y="6.15771" width="150" height="94" rx="11.5197" fill="white" shape-rendering="crispEdges"/>
<path d="M227.682 26.1259C228.217 26.301 228.641 26.5959 228.954 27.0106C229.267 27.4161 229.424 27.923 229.424 28.5312C229.424 29.3698 229.101 30.0196 228.456 30.4804C227.811 30.9319 226.871 31.1577 225.636 31.1577H220.826V21.4811H225.36C226.503 21.4811 227.383 21.7069 228 22.1585C228.618 22.6008 228.926 23.2137 228.926 23.997C228.926 24.4763 228.816 24.9002 228.595 25.2688C228.373 25.6375 228.069 25.9231 227.682 26.1259ZM222.623 22.8911V25.5591H225.166C225.793 25.5591 226.272 25.4485 226.604 25.2273C226.945 24.997 227.115 24.6652 227.115 24.232C227.115 23.7897 226.945 23.4579 226.604 23.2367C226.272 23.0063 225.793 22.8911 225.166 22.8911H222.623ZM225.526 29.7477C226.917 29.7477 227.613 29.2823 227.613 28.3515C227.613 27.4207 226.917 26.9553 225.526 26.9553H222.623V29.7477H225.526ZM230.485 23.7759H232.213V31.1577H230.485V23.7759ZM231.356 22.5594C231.042 22.5594 230.78 22.4626 230.568 22.2691C230.356 22.0663 230.25 21.8175 230.25 21.5226C230.25 21.2277 230.356 20.9835 230.568 20.7899C230.78 20.5872 231.042 20.4858 231.356 20.4858C231.669 20.4858 231.932 20.5826 232.144 20.7761C232.356 20.9604 232.462 21.1954 232.462 21.4811C232.462 21.7852 232.356 22.0433 232.144 22.2553C231.941 22.458 231.678 22.5594 231.356 22.5594ZM238.227 30.7568C238.024 30.9227 237.775 31.0471 237.48 31.1301C237.195 31.213 236.891 31.2545 236.568 31.2545C235.757 31.2545 235.13 31.0425 234.688 30.6186C234.246 30.1947 234.025 29.5772 234.025 28.7662V25.2135H232.808V23.8312H234.025V22.1447H235.752V23.8312H237.729V25.2135H235.752V28.7247C235.752 29.0842 235.84 29.3606 236.015 29.5542C236.19 29.7385 236.444 29.8306 236.775 29.8306C237.163 29.8306 237.485 29.7293 237.743 29.5265L238.227 30.7568ZM242.101 31.2545C241.336 31.2545 240.65 31.0932 240.041 30.7707C239.433 30.4481 238.958 30.0011 238.617 29.4298C238.276 28.8492 238.106 28.1948 238.106 27.4668C238.106 26.7387 238.276 26.089 238.617 25.5176C238.958 24.9463 239.428 24.4993 240.027 24.1767C240.636 23.8542 241.327 23.6929 242.101 23.6929C242.829 23.6929 243.465 23.8404 244.009 24.1353C244.562 24.4302 244.976 24.8541 245.253 25.4071L243.926 26.1812C243.714 25.8402 243.447 25.5868 243.124 25.4209C242.811 25.2458 242.465 25.1582 242.087 25.1582C241.442 25.1582 240.908 25.3702 240.484 25.7941C240.06 26.2088 239.848 26.7664 239.848 27.4668C239.848 28.1672 240.055 28.7294 240.47 29.1533C240.894 29.568 241.433 29.7753 242.087 29.7753C242.465 29.7753 242.811 29.6924 243.124 29.5265C243.447 29.3514 243.714 29.0934 243.926 28.7524L245.253 29.5265C244.967 30.0795 244.548 30.508 243.995 30.8121C243.451 31.107 242.82 31.2545 242.101 31.2545ZM249.265 31.2545C248.519 31.2545 247.846 31.0932 247.247 30.7707C246.648 30.4481 246.178 30.0011 245.837 29.4298C245.505 28.8492 245.339 28.1948 245.339 27.4668C245.339 26.7387 245.505 26.089 245.837 25.5176C246.178 24.9463 246.648 24.4993 247.247 24.1767C247.846 23.8542 248.519 23.6929 249.265 23.6929C250.021 23.6929 250.698 23.8542 251.297 24.1767C251.896 24.4993 252.362 24.9463 252.693 25.5176C253.034 26.089 253.205 26.7387 253.205 27.4668C253.205 28.1948 253.034 28.8492 252.693 29.4298C252.362 30.0011 251.896 30.4481 251.297 30.7707C250.698 31.0932 250.021 31.2545 249.265 31.2545ZM249.265 29.7753C249.901 29.7753 250.426 29.5634 250.841 29.1395C251.256 28.7155 251.463 28.158 251.463 27.4668C251.463 26.7756 251.256 26.218 250.841 25.7941C250.426 25.3702 249.901 25.1582 249.265 25.1582C248.629 25.1582 248.104 25.3702 247.689 25.7941C247.284 26.218 247.081 26.7756 247.081 27.4668C247.081 28.158 247.284 28.7155 247.689 29.1395C248.104 29.5634 248.629 29.7753 249.265 29.7753ZM254.166 23.7759H255.894V31.1577H254.166V23.7759ZM255.037 22.5594C254.724 22.5594 254.461 22.4626 254.249 22.2691C254.037 22.0663 253.931 21.8175 253.931 21.5226C253.931 21.2277 254.037 20.9835 254.249 20.7899C254.461 20.5872 254.724 20.4858 255.037 20.4858C255.35 20.4858 255.613 20.5826 255.825 20.7761C256.037 20.9604 256.143 21.1954 256.143 21.4811C256.143 21.7852 256.037 22.0433 255.825 22.2553C255.622 22.458 255.359 22.5594 255.037 22.5594ZM261.659 23.6929C262.59 23.6929 263.337 23.9648 263.899 24.5085C264.461 25.0522 264.742 25.8586 264.742 26.9277V31.1577H263.014V27.1488C263.014 26.5037 262.862 26.0199 262.558 25.6974C262.254 25.3656 261.821 25.1997 261.258 25.1997C260.623 25.1997 260.12 25.3932 259.752 25.7803C259.383 26.1581 259.199 26.7065 259.199 27.4253V31.1577H257.471V23.7759H259.116V24.7297C259.401 24.3887 259.761 24.1307 260.194 23.9556C260.627 23.7805 261.116 23.6929 261.659 23.6929ZM271.017 24.8541C271.515 24.08 272.39 23.6929 273.644 23.6929V25.3379C273.496 25.3103 273.362 25.2965 273.243 25.2965C272.57 25.2965 272.045 25.4946 271.667 25.8909C271.289 26.2779 271.1 26.8401 271.1 27.5774V31.1577H269.372V23.7759H271.017V24.8541ZM277.198 23.6929C278.285 23.6929 279.115 23.9556 279.686 24.4809C280.267 24.997 280.557 25.7803 280.557 26.8309V31.1577H278.926V30.2592C278.714 30.5817 278.41 30.8306 278.013 31.0057C277.626 31.1715 277.156 31.2545 276.603 31.2545C276.05 31.2545 275.567 31.1623 275.152 30.978C274.737 30.7845 274.415 30.5218 274.184 30.1901C273.963 29.8491 273.852 29.4666 273.852 29.0427C273.852 28.3792 274.097 27.8492 274.585 27.453C275.083 27.0475 275.861 26.8447 276.921 26.8447H278.829V26.7341C278.829 26.218 278.672 25.8218 278.359 25.5453C278.055 25.2688 277.599 25.1306 276.99 25.1306C276.576 25.1306 276.166 25.1951 275.76 25.3241C275.364 25.4531 275.027 25.6328 274.751 25.8632L274.074 24.6053C274.461 24.3104 274.926 24.0846 275.47 23.9279C276.014 23.7713 276.59 23.6929 277.198 23.6929ZM276.963 29.9965C277.396 29.9965 277.778 29.8998 278.11 29.7062C278.451 29.5035 278.691 29.2178 278.829 28.8492V27.9921H277.046C276.05 27.9921 275.553 28.3192 275.553 28.9736C275.553 29.2869 275.677 29.5357 275.926 29.7201C276.175 29.9044 276.52 29.9965 276.963 29.9965ZM286.521 30.7568C286.318 30.9227 286.069 31.0471 285.774 31.1301C285.489 31.213 285.184 31.2545 284.862 31.2545C284.051 31.2545 283.424 31.0425 282.982 30.6186C282.54 30.1947 282.318 29.5772 282.318 28.7662V25.2135H281.102V23.8312H282.318V22.1447H284.046V23.8312H286.023V25.2135H284.046V28.7247C284.046 29.0842 284.134 29.3606 284.309 29.5542C284.484 29.7385 284.738 29.8306 285.069 29.8306C285.456 29.8306 285.779 29.7293 286.037 29.5265L286.521 30.7568ZM293.948 27.5083C293.948 27.6281 293.938 27.7986 293.92 28.0197H288.128C288.229 28.5635 288.492 28.9966 288.916 29.3192C289.349 29.6325 289.883 29.7892 290.519 29.7892C291.33 29.7892 291.998 29.5219 292.524 28.9874L293.45 30.0518C293.118 30.4481 292.699 30.7476 292.192 30.9504C291.685 31.1531 291.114 31.2545 290.478 31.2545C289.667 31.2545 288.953 31.0932 288.335 30.7707C287.718 30.4481 287.238 30.0011 286.897 29.4298C286.566 28.8492 286.4 28.1948 286.4 27.4668C286.4 26.748 286.561 26.1028 286.884 25.5315C287.215 24.9509 287.672 24.4993 288.252 24.1767C288.833 23.8542 289.487 23.6929 290.215 23.6929C290.934 23.6929 291.574 23.8542 292.137 24.1767C292.708 24.4901 293.15 24.9371 293.464 25.5176C293.786 26.089 293.948 26.7526 293.948 27.5083ZM290.215 25.0753C289.662 25.0753 289.192 25.2412 288.805 25.5729C288.427 25.8955 288.197 26.3286 288.114 26.8724H292.303C292.229 26.3379 292.003 25.9047 291.625 25.5729C291.247 25.2412 290.777 25.0753 290.215 25.0753Z" fill="black"/>
<path d="M182 45.1577H332" stroke="#F5F7F9" stroke-width="0.575987"/>
<path d="M230.305 74.3417H227.329V78.1577H224.305V74.3417H215.089V72.1817L223.369 61.3577H226.705L218.905 71.7017H224.401V68.3177H227.329V71.7017H230.305V74.3417ZM235.965 61.1177C238.269 61.1177 240.053 61.8377 241.317 63.2777C242.597 64.7177 243.237 66.7817 243.237 69.4697C243.237 71.3577 242.893 72.9737 242.205 74.3177C241.517 75.6457 240.549 76.6617 239.301 77.3657C238.069 78.0537 236.637 78.3977 235.005 78.3977C234.141 78.3977 233.325 78.3097 232.557 78.1337C231.805 77.9417 231.149 77.6697 230.589 77.3177L231.741 74.9657C232.573 75.5097 233.637 75.7817 234.933 75.7817C236.549 75.7817 237.813 75.2857 238.725 74.2937C239.637 73.3017 240.093 71.8697 240.093 69.9977V69.9737C239.597 70.5497 238.965 70.9897 238.197 71.2937C237.429 71.5817 236.565 71.7257 235.605 71.7257C234.501 71.7257 233.509 71.5177 232.629 71.1017C231.749 70.6697 231.061 70.0617 230.565 69.2777C230.069 68.4937 229.821 67.5897 229.821 66.5657C229.821 65.4777 230.093 64.5257 230.637 63.7097C231.181 62.8777 231.917 62.2377 232.845 61.7897C233.773 61.3417 234.813 61.1177 235.965 61.1177ZM236.205 69.2777C237.213 69.2777 238.029 69.0057 238.653 68.4617C239.293 67.9177 239.613 67.2297 239.613 66.3977C239.613 65.5817 239.301 64.9097 238.677 64.3817C238.069 63.8377 237.221 63.5657 236.133 63.5657C235.157 63.5657 234.365 63.8297 233.757 64.3577C233.149 64.8697 232.845 65.5577 232.845 66.4217C232.845 67.3017 233.149 67.9977 233.757 68.5097C234.365 69.0217 235.181 69.2777 236.205 69.2777ZM249.812 61.1177C252.116 61.1177 253.9 61.8377 255.164 63.2777C256.444 64.7177 257.084 66.7817 257.084 69.4697C257.084 71.3577 256.74 72.9737 256.052 74.3177C255.364 75.6457 254.396 76.6617 253.148 77.3657C251.916 78.0537 250.484 78.3977 248.852 78.3977C247.988 78.3977 247.172 78.3097 246.404 78.1337C245.652 77.9417 244.996 77.6697 244.436 77.3177L245.588 74.9657C246.42 75.5097 247.484 75.7817 248.78 75.7817C250.396 75.7817 251.66 75.2857 252.572 74.2937C253.484 73.3017 253.94 71.8697 253.94 69.9977V69.9737C253.444 70.5497 252.812 70.9897 252.044 71.2937C251.276 71.5817 250.412 71.7257 249.452 71.7257C248.348 71.7257 247.356 71.5177 246.476 71.1017C245.596 70.6697 244.908 70.0617 244.412 69.2777C243.916 68.4937 243.668 67.5897 243.668 66.5657C243.668 65.4777 243.94 64.5257 244.484 63.7097C245.028 62.8777 245.764 62.2377 246.692 61.7897C247.62 61.3417 248.66 61.1177 249.812 61.1177ZM250.052 69.2777C251.06 69.2777 251.876 69.0057 252.5 68.4617C253.14 67.9177 253.46 67.2297 253.46 66.3977C253.46 65.5817 253.148 64.9097 252.524 64.3817C251.916 63.8377 251.068 63.5657 249.98 63.5657C249.004 63.5657 248.212 63.8297 247.604 64.3577C246.996 64.8697 246.692 65.5577 246.692 66.4217C246.692 67.3017 246.996 67.9977 247.604 68.5097C248.212 69.0217 249.028 69.2777 250.052 69.2777ZM263.659 61.1177C265.963 61.1177 267.747 61.8377 269.011 63.2777C270.291 64.7177 270.931 66.7817 270.931 69.4697C270.931 71.3577 270.587 72.9737 269.899 74.3177C269.211 75.6457 268.243 76.6617 266.995 77.3657C265.763 78.0537 264.331 78.3977 262.699 78.3977C261.835 78.3977 261.019 78.3097 260.251 78.1337C259.499 77.9417 258.843 77.6697 258.283 77.3177L259.435 74.9657C260.267 75.5097 261.331 75.7817 262.627 75.7817C264.243 75.7817 265.507 75.2857 266.419 74.2937C267.331 73.3017 267.787 71.8697 267.787 69.9977V69.9737C267.291 70.5497 266.659 70.9897 265.891 71.2937C265.123 71.5817 264.259 71.7257 263.299 71.7257C262.195 71.7257 261.203 71.5177 260.323 71.1017C259.443 70.6697 258.755 70.0617 258.259 69.2777C257.763 68.4937 257.515 67.5897 257.515 66.5657C257.515 65.4777 257.787 64.5257 258.331 63.7097C258.875 62.8777 259.611 62.2377 260.539 61.7897C261.467 61.3417 262.507 61.1177 263.659 61.1177ZM263.899 69.2777C264.907 69.2777 265.723 69.0057 266.347 68.4617C266.987 67.9177 267.307 67.2297 267.307 66.3977C267.307 65.5817 266.995 64.9097 266.371 64.3817C265.763 63.8377 264.915 63.5657 263.827 63.5657C262.851 63.5657 262.059 63.8297 261.451 64.3577C260.843 64.8697 260.539 65.5577 260.539 66.4217C260.539 67.3017 260.843 67.9977 261.451 68.5097C262.059 69.0217 262.875 69.2777 263.899 69.2777ZM277.506 61.1177C279.81 61.1177 281.594 61.8377 282.858 63.2777C284.138 64.7177 284.778 66.7817 284.778 69.4697C284.778 71.3577 284.434 72.9737 283.746 74.3177C283.058 75.6457 282.09 76.6617 280.842 77.3657C279.61 78.0537 278.178 78.3977 276.546 78.3977C275.682 78.3977 274.866 78.3097 274.098 78.1337C273.346 77.9417 272.69 77.6697 272.13 77.3177L273.282 74.9657C274.114 75.5097 275.178 75.7817 276.474 75.7817C278.09 75.7817 279.354 75.2857 280.266 74.2937C281.178 73.3017 281.634 71.8697 281.634 69.9977V69.9737C281.138 70.5497 280.506 70.9897 279.738 71.2937C278.97 71.5817 278.106 71.7257 277.146 71.7257C276.042 71.7257 275.05 71.5177 274.17 71.1017C273.29 70.6697 272.602 70.0617 272.106 69.2777C271.61 68.4937 271.362 67.5897 271.362 66.5657C271.362 65.4777 271.634 64.5257 272.178 63.7097C272.722 62.8777 273.458 62.2377 274.386 61.7897C275.314 61.3417 276.354 61.1177 277.506 61.1177ZM277.746 69.2777C278.754 69.2777 279.57 69.0057 280.194 68.4617C280.834 67.9177 281.154 67.2297 281.154 66.3977C281.154 65.5817 280.842 64.9097 280.218 64.3817C279.61 63.8377 278.762 63.5657 277.674 63.5657C276.698 63.5657 275.906 63.8297 275.298 64.3577C274.69 64.8697 274.386 65.5577 274.386 66.4217C274.386 67.3017 274.69 67.9977 275.298 68.5097C275.906 69.0217 276.722 69.2777 277.746 69.2777ZM298.889 73.4057C298.889 74.7017 298.409 75.8057 297.449 76.7177C296.505 77.6137 295.129 78.1577 293.321 78.3497V81.0377H291.353V78.3737C290.169 78.2937 289.049 78.0777 287.993 77.7257C286.937 77.3737 286.097 76.9257 285.473 76.3817L286.553 73.9577C287.145 74.4377 287.865 74.8457 288.713 75.1817C289.561 75.5017 290.441 75.7017 291.353 75.7817V70.9817C290.217 70.7097 289.265 70.4137 288.497 70.0937C287.745 69.7577 287.113 69.2777 286.601 68.6537C286.089 68.0137 285.833 67.1737 285.833 66.1337C285.833 64.8377 286.305 63.7337 287.249 62.8217C288.193 61.9097 289.561 61.3657 291.353 61.1897V58.4777H293.321V61.1417C294.217 61.1897 295.089 61.3417 295.937 61.5977C296.801 61.8537 297.553 62.1897 298.193 62.6057L297.209 65.0297C295.993 64.3257 294.697 63.8937 293.321 63.7337V68.5817C294.473 68.8537 295.425 69.1497 296.177 69.4697C296.945 69.7897 297.585 70.2697 298.097 70.9097C298.625 71.5337 298.889 72.3657 298.889 73.4057ZM288.929 65.9897C288.929 66.5177 289.137 66.9417 289.553 67.2617C289.969 67.5817 290.569 67.8537 291.353 68.0777V63.8057C290.537 63.9337 289.929 64.1897 289.529 64.5737C289.129 64.9577 288.929 65.4297 288.929 65.9897ZM293.321 75.7337C294.169 75.6057 294.793 75.3577 295.193 74.9897C295.609 74.6217 295.817 74.1657 295.817 73.6217C295.817 73.0777 295.601 72.6457 295.169 72.3257C294.737 71.9897 294.121 71.7097 293.321 71.4857V75.7337Z" fill="#4C91E5"/>
</g>
<rect x="12" y="130.158" width="320" height="62" rx="31" fill="#F5F7F9"/>
<rect x="12" y="130.158" width="189" height="62" rx="31" fill="#0370F3"/>
<path d="M73.6118 167.158V155.521H78.0663C78.9072 155.521 79.6061 155.654 80.1629 155.919C80.7235 156.18 81.1421 156.538 81.4186 156.993C81.6989 157.447 81.8391 157.963 81.8391 158.538C81.8391 159.012 81.7482 159.417 81.5663 159.754C81.3845 160.088 81.1402 160.358 80.8334 160.567C80.5266 160.775 80.1838 160.925 79.805 161.016V161.129C80.2178 161.152 80.6137 161.279 80.9925 161.51C81.375 161.737 81.6875 162.059 81.93 162.476C82.1724 162.893 82.2936 163.396 82.2936 163.987C82.2936 164.59 82.1478 165.131 81.8561 165.612C81.5644 166.09 81.125 166.466 80.5379 166.743C79.9508 167.019 79.2122 167.158 78.322 167.158H73.6118ZM75.7197 165.396H77.9868C78.7519 165.396 79.3031 165.251 79.6402 164.959C79.9811 164.663 80.1516 164.285 80.1516 163.822C80.1516 163.478 80.0663 163.167 79.8959 162.891C79.7254 162.61 79.483 162.391 79.1686 162.232C78.8542 162.069 78.4792 161.987 78.0436 161.987H75.7197V165.396ZM75.7197 160.47H77.805C78.1686 160.47 78.4963 160.404 78.7879 160.271C79.0796 160.135 79.3088 159.944 79.4754 159.697C79.6459 159.447 79.7311 159.152 79.7311 158.811C79.7311 158.36 79.572 157.989 79.2538 157.697C78.9394 157.406 78.4716 157.26 77.8504 157.26H75.7197V160.47ZM90.6626 155.521H92.7706V163.124C92.7706 163.957 92.5736 164.69 92.1797 165.322C91.7895 165.955 91.2403 166.449 90.532 166.805C89.8236 167.158 88.996 167.334 88.049 167.334C87.0982 167.334 86.2687 167.158 85.5604 166.805C84.852 166.449 84.3028 165.955 83.9126 165.322C83.5225 164.69 83.3274 163.957 83.3274 163.124V155.521H85.4354V162.947C85.4354 163.432 85.5414 163.864 85.7536 164.243C85.9695 164.622 86.2725 164.919 86.6626 165.135C87.0528 165.347 87.5149 165.453 88.049 165.453C88.5831 165.453 89.0452 165.347 89.4354 165.135C89.8293 164.919 90.1323 164.622 90.3445 164.243C90.5566 163.864 90.6626 163.432 90.6626 162.947V155.521ZM93.4663 155.521H95.847L98.6936 160.669H98.8072L101.654 155.521H104.035L99.8016 162.817V167.158H97.6993V162.817L93.4663 155.521ZM109.862 162.044V167.158H107.805V158.43H109.771V159.913H109.873C110.074 159.425 110.394 159.037 110.834 158.749C111.277 158.461 111.824 158.317 112.476 158.317C113.078 158.317 113.603 158.446 114.05 158.703C114.5 158.961 114.849 159.334 115.095 159.822C115.345 160.311 115.468 160.904 115.464 161.601V167.158H113.408V161.919C113.408 161.336 113.256 160.879 112.953 160.55C112.654 160.22 112.239 160.055 111.709 160.055C111.349 160.055 111.029 160.135 110.748 160.294C110.472 160.449 110.254 160.675 110.095 160.97C109.94 161.266 109.862 161.624 109.862 162.044ZM119.504 157.288V155.521H128.788V157.288H125.191V167.158H123.1V157.288H119.504ZM129.777 167.158V155.521H131.885V160.447H137.277V155.521H139.391V167.158H137.277V162.215H131.885V167.158H129.777Z" fill="white"/>
<path d="M238.4 153.612V168.158H235.765V156.176H235.68L232.278 158.349V155.935L235.893 153.612H238.4ZM246.47 168.435C245.3 168.435 244.297 168.139 243.458 167.547C242.625 166.95 241.984 166.091 241.534 164.969C241.089 163.842 240.866 162.485 240.866 160.899C240.871 159.313 241.096 157.964 241.541 156.851C241.991 155.733 242.632 154.881 243.466 154.294C244.304 153.707 245.305 153.413 246.47 153.413C247.635 153.413 248.636 153.707 249.474 154.294C250.312 154.881 250.954 155.733 251.399 156.851C251.849 157.968 252.074 159.318 252.074 160.899C252.074 162.49 251.849 163.849 251.399 164.976C250.954 166.098 250.312 166.955 249.474 167.547C248.641 168.139 247.639 168.435 246.47 168.435ZM246.47 166.212C247.379 166.212 248.096 165.764 248.622 164.869C249.152 163.97 249.417 162.646 249.417 160.899C249.417 159.744 249.297 158.773 249.055 157.987C248.814 157.201 248.473 156.609 248.032 156.212C247.592 155.809 247.071 155.608 246.47 155.608C245.565 155.608 244.85 156.058 244.325 156.957C243.799 157.852 243.534 159.166 243.529 160.899C243.525 162.059 243.641 163.035 243.877 163.825C244.119 164.616 244.46 165.213 244.9 165.615C245.341 166.013 245.864 166.212 246.47 166.212ZM258.81 168.435C257.64 168.435 256.636 168.139 255.798 167.547C254.965 166.95 254.323 166.091 253.874 164.969C253.429 163.842 253.206 162.485 253.206 160.899C253.211 159.313 253.436 157.964 253.881 156.851C254.33 155.733 254.972 154.881 255.805 154.294C256.643 153.707 257.645 153.413 258.81 153.413C259.974 153.413 260.976 153.707 261.814 154.294C262.652 154.881 263.294 155.733 263.739 156.851C264.188 157.968 264.413 159.318 264.413 160.899C264.413 162.49 264.188 163.849 263.739 164.976C263.294 166.098 262.652 166.955 261.814 167.547C260.981 168.139 259.979 168.435 258.81 168.435ZM258.81 166.212C259.719 166.212 260.436 165.764 260.962 164.869C261.492 163.97 261.757 162.646 261.757 160.899C261.757 159.744 261.636 158.773 261.395 157.987C261.153 157.201 260.813 156.609 260.372 156.212C259.932 155.809 259.411 155.608 258.81 155.608C257.905 155.608 257.19 156.058 256.665 156.957C256.139 157.852 255.874 159.166 255.869 160.899C255.865 162.059 255.981 163.035 256.217 163.825C256.459 164.616 256.8 165.213 257.24 165.615C257.68 166.013 258.204 166.212 258.81 166.212ZM271.15 168.435C269.98 168.435 268.976 168.139 268.138 167.547C267.305 166.95 266.663 166.091 266.213 164.969C265.768 163.842 265.546 162.485 265.546 160.899C265.551 159.313 265.775 157.964 266.221 156.851C266.67 155.733 267.312 154.881 268.145 154.294C268.983 153.707 269.985 153.413 271.15 153.413C272.314 153.413 273.316 153.707 274.154 154.294C274.992 154.881 275.633 155.733 276.078 156.851C276.528 157.968 276.753 159.318 276.753 160.899C276.753 162.49 276.528 163.849 276.078 164.976C275.633 166.098 274.992 166.955 274.154 167.547C273.32 168.139 272.319 168.435 271.15 168.435ZM271.15 166.212C272.059 166.212 272.776 165.764 273.301 164.869C273.832 163.97 274.097 162.646 274.097 160.899C274.097 159.744 273.976 158.773 273.735 157.987C273.493 157.201 273.152 156.609 272.712 156.212C272.272 155.809 271.751 155.608 271.15 155.608C270.245 155.608 269.53 156.058 269.005 156.957C268.479 157.852 268.214 159.166 268.209 160.899C268.204 162.059 268.32 163.035 268.557 163.825C268.799 164.616 269.14 165.213 269.58 165.615C270.02 166.013 270.543 166.212 271.15 166.212ZM282.8 169.976V151.794H283.965V169.976H282.8ZM286.16 157.611C286.094 156.991 285.814 156.508 285.322 156.162C284.834 155.816 284.2 155.644 283.418 155.644C282.869 155.644 282.398 155.726 282.005 155.892C281.612 156.058 281.311 156.283 281.103 156.567C280.895 156.851 280.788 157.175 280.783 157.54C280.783 157.843 280.852 158.106 280.989 158.328C281.131 158.551 281.323 158.74 281.565 158.896C281.806 159.048 282.074 159.176 282.367 159.28C282.661 159.384 282.957 159.472 283.255 159.543L284.619 159.884C285.168 160.011 285.696 160.184 286.202 160.402C286.714 160.62 287.171 160.894 287.573 161.226C287.98 161.557 288.302 161.957 288.539 162.426C288.776 162.895 288.894 163.444 288.894 164.074C288.894 164.926 288.676 165.677 288.241 166.325C287.805 166.969 287.175 167.474 286.352 167.838C285.532 168.198 284.54 168.378 283.376 168.378C282.244 168.378 281.262 168.203 280.428 167.852C279.6 167.502 278.951 166.991 278.482 166.318C278.018 165.646 277.767 164.827 277.729 163.861H280.322C280.36 164.367 280.516 164.789 280.79 165.125C281.065 165.461 281.423 165.712 281.863 165.878C282.308 166.044 282.805 166.126 283.354 166.126C283.927 166.126 284.429 166.041 284.86 165.871C285.296 165.696 285.637 165.454 285.883 165.146C286.129 164.834 286.254 164.469 286.259 164.053C286.254 163.674 286.143 163.361 285.925 163.115C285.708 162.864 285.402 162.656 285.009 162.49C284.621 162.32 284.166 162.168 283.646 162.036L281.991 161.609C280.793 161.302 279.846 160.835 279.15 160.21C278.459 159.581 278.113 158.745 278.113 157.703C278.113 156.846 278.345 156.096 278.809 155.452C279.278 154.808 279.915 154.308 280.719 153.953C281.524 153.593 282.436 153.413 283.454 153.413C284.486 153.413 285.39 153.593 286.167 153.953C286.948 154.308 287.561 154.803 288.006 155.438C288.451 156.067 288.681 156.792 288.695 157.611H286.16Z" fill="black"/>
<defs>
<filter id="filter0_d_2011_2" x="0.634996" y="0.475213" width="172.73" height="116.73" filterUnits="userSpaceOnUse" color-interpolation-filters="sRGB">
<feFlood flood-opacity="0" result="BackgroundImageFix"/>
<feColorMatrix in="SourceAlpha" type="matrix" values="0 0 0 0 0 0 0 0 0 0 0 0 0 0 0 0 0 0 127 0" result="hardAlpha"/>
<feOffset dy="5.6825"/>
<feGaussianBlur stdDeviation="5.6825"/>
<feComposite in2="hardAlpha" operator="out"/>
<feColorMatrix type="matrix" values="0 0 0 0 0.431373 0 0 0 0 0.827451 0 0 0 0 0.458824 0 0 0 0.2 0"/>
<feBlend mode="normal" in2="BackgroundImageFix" result="effect1_dropShadow_2011_2"/>
<feBlend mode="normal" in="SourceGraphic" in2="effect1_dropShadow_2011_2" result="shape"/>
</filter>
<filter id="filter1_d_2011_2" x="170.635" y="0.475213" width="172.73" height="116.73" filterUnits="userSpaceOnUse" color-interpolation-filters="sRGB">
<feFlood flood-opacity="0" result="BackgroundImageFix"/>
<feColorMatrix in="SourceAlpha" type="matrix" values="0 0 0 0 0 0 0 0 0 0 0 0 0 0 0 0 0 0 127 0" result="hardAlpha"/>
<feOffset dy="5.6825"/>
<feGaussianBlur stdDeviation="5.6825"/>
<feComposite in2="hardAlpha" operator="out"/>
<feColorMatrix type="matrix" values="0 0 0 0 0.438281 0 0 0 0 0.5931 0 0 0 0 0.779167 0 0 0 0.2 0"/>
<feBlend mode="normal" in2="BackgroundImageFix" result="effect1_dropShadow_2011_2"/>
<feBlend mode="normal" in="SourceGraphic" in2="effect1_dropShadow_2011_2" result="shape"/>
</filter>
</defs>
</svg>
