<svg width="26" height="26" viewBox="0 0 26 26" fill="none" xmlns="http://www.w3.org/2000/svg">
<g id="Group 409554">
<path id="Vector" fill-rule="evenodd" clip-rule="evenodd" d="M18.2268 2.05246C18.0513 2.00741 17.851 2.00008 17.1 2.00008H5.26692C4.50369 2.00008 3.99125 2.00085 3.5966 2.03309C3.21354 2.06438 3.03041 2.12023 2.90972 2.18173C2.59637 2.34139 2.34157 2.59626 2.18165 2.91011C2.12013 3.03087 2.06429 3.21391 2.03301 3.59674C2.00077 3.99123 2 4.50351 2 5.26675V20.7333C2 21.4965 2.00077 22.0088 2.03301 22.4033C2.06429 22.7861 2.12013 22.9692 2.18165 23.09C2.34156 23.4037 2.59633 23.6587 2.90972 23.8183C3.03042 23.8797 3.21357 23.9356 3.59661 23.9669C3.99126 23.9992 4.5037 24 5.26692 24H5.33333V19.8928C5.33331 19.1806 5.3333 18.5862 5.37298 18.1004C5.41437 17.594 5.50385 17.1184 5.73297 16.6687C6.08437 15.9791 6.64487 15.418 7.33506 15.0663C7.78481 14.8372 8.26052 14.7478 8.7671 14.7063C9.25287 14.6667 9.84747 14.6667 10.5597 14.6667H15.4408C16.153 14.6667 16.7473 14.6667 17.2329 14.7063C17.7393 14.7478 18.2146 14.8372 18.6644 15.0663C19.3538 15.4176 19.9156 15.9784 20.2673 16.6687C20.4965 17.1186 20.5858 17.5942 20.6272 18.1007C20.6666 18.5854 20.6666 19.1787 20.6666 19.8891V24H20.7336C21.4968 24 22.0089 23.9992 22.4033 23.9669C22.7858 23.9357 22.9689 23.8799 23.0897 23.8183C23.4037 23.6583 23.659 23.4031 23.8186 23.09C23.8801 22.9693 23.9358 22.7864 23.967 22.4035C23.9993 22.0089 24 21.4967 24 20.7333V9.304C24 8.65529 23.9941 8.48125 23.9596 8.32654C23.9237 8.16618 23.8652 8.01322 23.7857 7.87208C23.708 7.73407 23.5961 7.60135 23.1617 7.11873L19.5281 3.08147C19.0261 2.52367 18.8858 2.37903 18.7349 2.27871C18.5794 2.17545 18.4076 2.09893 18.2268 2.05246ZM19.6721 26H20.7736C21.4861 26 22.0806 26 22.5662 25.9603C23.0726 25.9189 23.5481 25.8293 23.9977 25.6003C24.6872 25.2489 25.2488 24.6883 25.6006 23.998C25.8298 23.5481 25.9192 23.0725 25.9605 22.566C26 22.0813 26 21.488 26 20.7775V9.304C26 9.27529 26 9.24692 26 9.21887C26.0002 8.69763 26.0004 8.28867 25.9114 7.89038C25.8334 7.54124 25.7049 7.20427 25.5282 6.89055C25.3284 6.53563 25.055 6.23224 24.7074 5.84654C24.688 5.8249 24.6682 5.803 24.6482 5.78081L21.0148 1.74354C20.9921 1.71836 20.9697 1.69345 20.9476 1.66882C20.5461 1.22225 20.2308 0.871519 19.8418 0.613053C19.4998 0.385694 19.1218 0.217468 18.7242 0.115335C18.2728 -0.000624933 17.8022 -0.000331768 17.204 4.15638e-05C17.1697 6.82304e-05 17.135 8.1618e-05 17.1 8.1618e-05H5.22637C4.51414 6.82847e-05 3.91954 5.50795e-05 3.43378 0.039735C2.92721 0.0811082 2.45148 0.170575 2.00173 0.39972C1.31155 0.751386 0.751053 1.31248 0.39964 2.00214C0.17052 2.45182 0.0810405 2.92735 0.0396539 3.43387C-2.60497e-05 3.91951 -1.28447e-05 4.51396 4.88614e-07 5.22617V20.7739C-1.28447e-05 21.4861 -2.60497e-05 22.0805 0.0396539 22.5663C0.0810405 23.0727 0.17052 23.5483 0.39964 23.998C0.751066 24.6876 1.3116 25.2487 2.00173 25.6003C2.45146 25.8295 2.92717 25.9189 3.43376 25.9603C3.91966 26 4.51445 26 5.22697 26H19.6666H19.6721ZM18.6666 24V19.9334C18.6666 19.17 18.666 18.6578 18.6337 18.2632C18.6025 17.8803 18.5468 17.6974 18.4853 17.5767C18.3257 17.2635 18.0704 17.0083 17.7564 16.8483C17.6356 16.7868 17.4526 16.731 17.07 16.6998C16.6756 16.6675 16.1635 16.6667 15.4003 16.6667H10.6003C9.83702 16.6667 9.32458 16.6675 8.92991 16.6998C8.54686 16.731 8.36373 16.7868 8.24305 16.8483C7.9297 17.008 7.6749 17.2628 7.51498 17.5767C7.45346 17.6975 7.39761 17.8806 7.36634 18.2634C7.3341 18.6579 7.33333 19.1702 7.33333 19.9334V24H18.6666ZM7.99999 6.3334C7.99999 5.78112 8.4477 5.3334 8.99999 5.3334H17C17.5522 5.3334 18 5.78112 18 6.3334C18 6.88567 17.5522 7.33339 17 7.33339H8.99999C8.4477 7.33339 7.99999 6.88567 7.99999 6.3334Z" fill="white"/>
</g>
</svg>
