<svg width="631" height="113" viewBox="0 0 631 113" fill="none" xmlns="http://www.w3.org/2000/svg">
<path d="M13.3878 4.45455V19H11.044L4.19034 9.09233H4.0696V19H1.43466V4.45455H3.79261L10.6392 14.3693H10.767V4.45455H13.3878ZM19.9748 19.2131C18.881 19.2131 17.9364 18.9858 17.141 18.5312C16.3503 18.072 15.7418 17.4233 15.3157 16.5852C14.8896 15.7424 14.6765 14.7505 14.6765 13.6094C14.6765 12.4872 14.8896 11.5024 15.3157 10.6548C15.7466 9.80256 16.3479 9.13968 17.1197 8.66619C17.8915 8.18797 18.7982 7.94886 19.8398 7.94886C20.5122 7.94886 21.1467 8.05777 21.7433 8.27557C22.3446 8.48864 22.8749 8.82008 23.3342 9.26989C23.7982 9.7197 24.1628 10.2926 24.4279 10.9886C24.6931 11.6799 24.8256 12.5038 24.8256 13.4602V14.2486H15.8839V12.5156H22.3612C22.3564 12.0232 22.2499 11.5852 22.0415 11.2017C21.8332 10.8134 21.542 10.508 21.168 10.2855C20.7987 10.063 20.3678 9.9517 19.8754 9.9517C19.3498 9.9517 18.8881 10.0795 18.4904 10.3352C18.0927 10.5862 17.7826 10.9176 17.56 11.3295C17.3422 11.7367 17.2309 12.1842 17.2262 12.6719V14.1847C17.2262 14.8191 17.3422 15.3636 17.5742 15.8182C17.8062 16.268 18.1306 16.6136 18.5472 16.8551C18.9639 17.0919 19.4516 17.2102 20.0103 17.2102C20.3844 17.2102 20.7229 17.1581 21.0259 17.054C21.329 16.9451 21.5917 16.7865 21.8143 16.5781C22.0368 16.3698 22.2049 16.1117 22.3185 15.804L24.7191 16.0739C24.5676 16.7083 24.2788 17.2623 23.8526 17.7358C23.4312 18.2045 22.8915 18.5691 22.2333 18.8295C21.5752 19.0852 20.8223 19.2131 19.9748 19.2131ZM28.1935 19L25.1112 8.09091H27.7319L29.6495 15.7614H29.7489L31.7092 8.09091H34.3015L36.2617 15.7188H36.3683L38.2575 8.09091H40.8853L37.7958 19H35.1183L33.0728 11.6278H32.9237L30.8782 19H28.1935ZM45.6413 19V8.09091H48.1342V9.90909H48.2479C48.4467 9.27936 48.7876 8.79403 49.2706 8.45312C49.7583 8.10748 50.3146 7.93466 50.9396 7.93466C51.0817 7.93466 51.2403 7.94176 51.4155 7.95597C51.5954 7.96544 51.7446 7.98201 51.8629 8.00568V10.3707C51.754 10.3329 51.5812 10.2997 51.3445 10.2713C51.1125 10.2382 50.8875 10.2216 50.6697 10.2216C50.201 10.2216 49.7796 10.3234 49.4055 10.527C49.0362 10.7259 48.745 11.0028 48.532 11.358C48.3189 11.7131 48.2124 12.1226 48.2124 12.5866V19H45.6413ZM56.9513 19.2131C55.8576 19.2131 54.913 18.9858 54.1175 18.5312C53.3268 18.072 52.7184 17.4233 52.2923 16.5852C51.8661 15.7424 51.6531 14.7505 51.6531 13.6094C51.6531 12.4872 51.8661 11.5024 52.2923 10.6548C52.7231 9.80256 53.3245 9.13968 54.0962 8.66619C54.868 8.18797 55.7747 7.94886 56.8164 7.94886C57.4888 7.94886 58.1232 8.05777 58.7198 8.27557C59.3211 8.48864 59.8514 8.82008 60.3107 9.26989C60.7747 9.7197 61.1393 10.2926 61.4045 10.9886C61.6696 11.6799 61.8022 12.5038 61.8022 13.4602V14.2486H52.8604V12.5156H59.3377C59.333 12.0232 59.2264 11.5852 59.0181 11.2017C58.8098 10.8134 58.5186 10.508 58.1445 10.2855C57.7752 10.063 57.3443 9.9517 56.8519 9.9517C56.3263 9.9517 55.8647 10.0795 55.467 10.3352C55.0692 10.5862 54.7591 10.9176 54.5366 11.3295C54.3188 11.7367 54.2075 12.1842 54.2028 12.6719V14.1847C54.2028 14.8191 54.3188 15.3636 54.5508 15.8182C54.7828 16.268 55.1071 16.6136 55.5238 16.8551C55.9405 17.0919 56.4281 17.2102 56.9869 17.2102C57.3609 17.2102 57.6995 17.1581 58.0025 17.054C58.3055 16.9451 58.5683 16.7865 58.7908 16.5781C59.0134 16.3698 59.1815 16.1117 59.2951 15.804L61.6957 16.0739C61.5442 16.7083 61.2553 17.2623 60.8292 17.7358C60.4078 18.2045 59.868 18.5691 59.2099 18.8295C58.5517 19.0852 57.7989 19.2131 56.9513 19.2131ZM67.7358 19.2131C66.6468 19.2131 65.7116 18.974 64.9304 18.4957C64.1539 18.0175 63.5549 17.357 63.1335 16.5142C62.7169 15.6667 62.5085 14.6913 62.5085 13.5881C62.5085 12.4801 62.7216 11.5024 63.1477 10.6548C63.5739 9.80256 64.1752 9.13968 64.9517 8.66619C65.733 8.18797 66.6563 7.94886 67.7216 7.94886C68.607 7.94886 69.3906 8.11222 70.0724 8.43892C70.759 8.76089 71.3059 9.2178 71.7131 9.80966C72.1203 10.3968 72.3523 11.0833 72.4091 11.8693H69.9517C69.8523 11.3437 69.6155 10.9058 69.2415 10.5554C68.8722 10.2003 68.3774 10.0227 67.7571 10.0227C67.2315 10.0227 66.7699 10.1648 66.3722 10.4489C65.9744 10.7282 65.6643 11.1307 65.4418 11.6562C65.224 12.1818 65.1151 12.8116 65.1151 13.5455C65.1151 14.2888 65.224 14.928 65.4418 15.4631C65.6596 15.9934 65.965 16.4029 66.358 16.6918C66.7557 16.9759 67.2221 17.1179 67.7571 17.1179C68.1359 17.1179 68.4744 17.0469 68.7727 16.9048C69.0758 16.758 69.3291 16.5473 69.5327 16.2727C69.7363 15.9981 69.8759 15.6643 69.9517 15.2713H72.4091C72.3475 16.0431 72.1203 16.7273 71.7273 17.3239C71.3343 17.9157 70.7992 18.3797 70.1222 18.7159C69.4451 19.0473 68.6496 19.2131 67.7358 19.2131ZM78.3498 19.2131C77.256 19.2131 76.3114 18.9858 75.516 18.5312C74.7253 18.072 74.1168 17.4233 73.6907 16.5852C73.2646 15.7424 73.0515 14.7505 73.0515 13.6094C73.0515 12.4872 73.2646 11.5024 73.6907 10.6548C74.1216 9.80256 74.7229 9.13968 75.4947 8.66619C76.2665 8.18797 77.1732 7.94886 78.2148 7.94886C78.8872 7.94886 79.5217 8.05777 80.1183 8.27557C80.7196 8.48864 81.2499 8.82008 81.7092 9.26989C82.1732 9.7197 82.5378 10.2926 82.8029 10.9886C83.0681 11.6799 83.2006 12.5038 83.2006 13.4602V14.2486H74.2589V12.5156H80.7362C80.7314 12.0232 80.6249 11.5852 80.4165 11.2017C80.2082 10.8134 79.917 10.508 79.543 10.2855C79.1737 10.063 78.7428 9.9517 78.2504 9.9517C77.7248 9.9517 77.2631 10.0795 76.8654 10.3352C76.4677 10.5862 76.1576 10.9176 75.935 11.3295C75.7172 11.7367 75.6059 12.1842 75.6012 12.6719V14.1847C75.6012 14.8191 75.7172 15.3636 75.9492 15.8182C76.1812 16.268 76.5056 16.6136 76.9222 16.8551C77.3389 17.0919 77.8266 17.2102 78.3853 17.2102C78.7594 17.2102 79.0979 17.1581 79.4009 17.054C79.704 16.9451 79.9667 16.7865 80.1893 16.5781C80.4118 16.3698 80.5799 16.1117 80.6935 15.804L83.0941 16.0739C82.9426 16.7083 82.6538 17.2623 82.2276 17.7358C81.8062 18.2045 81.2665 18.5691 80.6083 18.8295C79.9502 19.0852 79.1973 19.2131 78.3498 19.2131ZM84.3757 19V8.09091H86.9467V19H84.3757ZM85.6683 6.54261C85.2611 6.54261 84.9107 6.40767 84.6172 6.13778C84.3236 5.86316 84.1768 5.53409 84.1768 5.15057C84.1768 4.76231 84.3236 4.43324 84.6172 4.16335C84.9107 3.88873 85.2611 3.75142 85.6683 3.75142C86.0803 3.75142 86.4306 3.88873 86.7195 4.16335C87.013 4.43324 87.1598 4.76231 87.1598 5.15057C87.1598 5.53409 87.013 5.86316 86.7195 6.13778C86.4306 6.40767 86.0803 6.54261 85.6683 6.54261ZM88.5906 23.0909V8.09091H91.119V9.89489H91.2681C91.4007 9.62973 91.5877 9.34801 91.8292 9.04972C92.0707 8.74669 92.3974 8.48864 92.8093 8.27557C93.2212 8.05777 93.7468 7.94886 94.386 7.94886C95.2288 7.94886 95.9888 8.1643 96.6658 8.59517C97.3477 9.02131 97.8874 9.65341 98.2852 10.4915C98.6876 11.3248 98.8888 12.3475 98.8888 13.5597C98.8888 14.7576 98.6924 15.7756 98.2994 16.6136C97.9064 17.4517 97.3713 18.0909 96.6942 18.5312C96.0172 18.9716 95.2501 19.1918 94.3931 19.1918C93.7681 19.1918 93.2496 19.0876 92.8377 18.8793C92.4258 18.6709 92.0943 18.42 91.8434 18.1264C91.5972 17.8281 91.4054 17.5464 91.2681 17.2812H91.1616V23.0909H88.5906ZM91.1119 13.5455C91.1119 14.2509 91.2113 14.8688 91.4102 15.3991C91.6138 15.9295 91.9049 16.3437 92.2837 16.642C92.6673 16.9356 93.1313 17.0824 93.6758 17.0824C94.244 17.0824 94.7198 16.9309 95.1033 16.6278C95.4869 16.3201 95.7757 15.901 95.9698 15.3707C96.1687 14.8357 96.2681 14.2273 96.2681 13.5455C96.2681 12.8684 96.171 12.267 95.9769 11.7415C95.7828 11.2159 95.494 10.804 95.1104 10.5057C94.7269 10.2074 94.2487 10.0582 93.6758 10.0582C93.1265 10.0582 92.6602 10.2027 92.2766 10.4915C91.8931 10.7803 91.6019 11.1851 91.4031 11.706C91.2089 12.2268 91.1119 12.84 91.1119 13.5455ZM105.538 8.09091V10.0795H99.2667V8.09091H105.538ZM100.815 5.47727H103.386V15.7188C103.386 16.0644 103.438 16.3295 103.542 16.5142C103.651 16.6941 103.793 16.8172 103.968 16.8835C104.144 16.9498 104.338 16.983 104.551 16.983C104.712 16.983 104.859 16.9711 104.991 16.9474C105.128 16.9238 105.233 16.9025 105.304 16.8835L105.737 18.8935C105.6 18.9408 105.403 18.9929 105.147 19.0497C104.896 19.1065 104.589 19.1397 104.224 19.1491C103.58 19.1681 103 19.071 102.484 18.858C101.968 18.6402 101.558 18.304 101.255 17.8494C100.957 17.3949 100.81 16.8267 100.815 16.1449V5.47727ZM115.154 10.9744L112.81 11.2301C112.744 10.9934 112.628 10.7708 112.462 10.5625C112.301 10.3542 112.084 10.1861 111.809 10.0582C111.534 9.9304 111.198 9.86648 110.8 9.86648C110.265 9.86648 109.816 9.98248 109.451 10.2145C109.091 10.4465 108.914 10.7472 108.918 11.1165C108.914 11.4337 109.03 11.6918 109.266 11.8906C109.508 12.0895 109.906 12.2528 110.46 12.3807L112.32 12.7784C113.353 13.0009 114.12 13.3537 114.621 13.8366C115.128 14.3196 115.384 14.9517 115.388 15.733C115.384 16.4195 115.183 17.0256 114.785 17.5511C114.392 18.072 113.845 18.4792 113.144 18.7727C112.443 19.0663 111.638 19.2131 110.729 19.2131C109.394 19.2131 108.319 18.9337 107.505 18.375C106.691 17.8116 106.205 17.0279 106.049 16.0241L108.556 15.7827C108.67 16.2751 108.911 16.6468 109.281 16.8977C109.65 17.1487 110.13 17.2741 110.722 17.2741C111.333 17.2741 111.823 17.1487 112.192 16.8977C112.567 16.6468 112.754 16.3366 112.754 15.9673C112.754 15.6548 112.633 15.3968 112.391 15.1932C112.155 14.9896 111.785 14.8333 111.283 14.7244L109.423 14.3338C108.376 14.116 107.602 13.7491 107.1 13.233C106.598 12.7121 106.35 12.054 106.354 11.2585C106.35 10.5862 106.532 10.0038 106.901 9.51136C107.275 9.0142 107.794 8.63068 108.457 8.3608C109.124 8.08617 109.894 7.94886 110.765 7.94886C112.043 7.94886 113.049 8.22112 113.783 8.76562C114.522 9.31013 114.979 10.0464 115.154 10.9744Z" fill="black"/>
<path d="M14.3523 81.3636V37.7273H17.1477V81.3636H14.3523ZM22.4148 51.6875C22.2557 50.1989 21.5852 49.0398 20.4034 48.2102C19.233 47.3807 17.7102 46.9659 15.8352 46.9659C14.517 46.9659 13.3864 47.1648 12.4432 47.5625C11.5 47.9602 10.7784 48.5 10.2784 49.1818C9.77841 49.8636 9.52273 50.642 9.51136 51.517C9.51136 52.2443 9.67614 52.875 10.0057 53.4091C10.3466 53.9432 10.8068 54.3977 11.3864 54.7727C11.9659 55.1364 12.608 55.4432 13.3125 55.6932C14.017 55.9432 14.7273 56.1534 15.4432 56.3239L18.7159 57.142C20.0341 57.4489 21.3011 57.8636 22.517 58.3864C23.7443 58.9091 24.8409 59.5682 25.8068 60.3636C26.7841 61.1591 27.5568 62.1193 28.125 63.2443C28.6932 64.3693 28.9773 65.6875 28.9773 67.1989C28.9773 69.2443 28.4545 71.0455 27.4091 72.6023C26.3636 74.1477 24.8523 75.358 22.875 76.233C20.9091 77.0966 18.5284 77.5284 15.733 77.5284C13.017 77.5284 10.6591 77.108 8.65909 76.267C6.67045 75.4261 5.11364 74.1989 3.98864 72.5852C2.875 70.9716 2.27273 69.0057 2.18182 66.6875H8.40341C8.49432 67.9034 8.86932 68.9148 9.52841 69.7216C10.1875 70.5284 11.0455 71.1307 12.1023 71.5284C13.1705 71.9261 14.3636 72.125 15.6818 72.125C17.0568 72.125 18.2614 71.9205 19.2955 71.5114C20.3409 71.0909 21.1591 70.5114 21.75 69.7727C22.3409 69.0227 22.642 68.1477 22.6534 67.1477C22.642 66.2386 22.375 65.4886 21.8523 64.8977C21.3295 64.2955 20.5966 63.7955 19.6534 63.3977C18.7216 62.9886 17.6307 62.625 16.3807 62.3068L12.4091 61.2841C9.53409 60.5455 7.26136 59.4261 5.59091 57.9261C3.93182 56.4148 3.10227 54.4091 3.10227 51.9091C3.10227 49.8523 3.65909 48.0511 4.77273 46.5057C5.89773 44.9602 7.42614 43.7614 9.35795 42.9091C11.2898 42.0455 13.4773 41.6136 15.9205 41.6136C18.3977 41.6136 20.5682 42.0455 22.4318 42.9091C24.3068 43.7614 25.7784 44.9489 26.8466 46.4716C27.9148 47.983 28.4659 49.7216 28.5 51.6875H22.4148Z" fill="#A8B0B7"/>
<path d="M46.073 42.0909V77H39.7491V48.2443H39.5446L31.3798 53.4602V47.6648L40.056 42.0909H46.073ZM64.673 77.4773C62.4003 77.4773 60.3662 77.0511 58.5707 76.1989C56.7753 75.3352 55.3491 74.1534 54.2923 72.6534C53.2469 71.1534 52.6901 69.4375 52.6219 67.5057H58.7582C58.8719 68.9375 59.4912 70.108 60.6162 71.017C61.7412 71.9148 63.0935 72.3636 64.673 72.3636C65.9116 72.3636 67.0139 72.0795 67.9798 71.5114C68.9457 70.9432 69.7071 70.1534 70.2639 69.142C70.8207 68.1307 71.0935 66.9773 71.0821 65.6818C71.0935 64.3636 70.8151 63.1932 70.2469 62.1705C69.6787 61.1477 68.9003 60.3466 67.9116 59.767C66.923 59.1761 65.7866 58.8807 64.5026 58.8807C63.4571 58.8693 62.4287 59.0625 61.4173 59.4602C60.406 59.858 59.6048 60.3807 59.0139 61.0284L53.3037 60.0909L55.1276 42.0909H75.3776V47.375H60.3605L59.3548 56.6307H59.5594C60.2071 55.8693 61.1219 55.2386 62.3037 54.7386C63.4855 54.2273 64.781 53.9716 66.1901 53.9716C68.3037 53.9716 70.1901 54.4716 71.8491 55.4716C73.5082 56.4602 74.8151 57.8239 75.7696 59.5625C76.7241 61.3011 77.2014 63.2898 77.2014 65.5284C77.2014 67.8352 76.6673 69.892 75.5991 71.6989C74.5423 73.4943 73.0707 74.9091 71.1844 75.9432C69.3094 76.9659 67.1389 77.4773 64.673 77.4773ZM93.2957 77.4773C91.6253 77.4659 89.9946 77.1761 88.4037 76.608C86.8128 76.0284 85.381 75.0909 84.1082 73.7955C82.8355 72.4886 81.8242 70.7557 81.0742 68.5966C80.3242 66.4261 79.9548 63.7386 79.9662 60.5341C79.9662 57.5455 80.2844 54.8807 80.9207 52.5398C81.5571 50.1989 82.4719 48.2216 83.6651 46.608C84.8582 44.983 86.2957 43.7443 87.9776 42.892C89.6707 42.0398 91.5628 41.6136 93.6537 41.6136C95.8469 41.6136 97.7901 42.0455 99.4832 42.9091C101.188 43.7727 102.563 44.9545 103.608 46.4545C104.654 47.9432 105.301 49.625 105.551 51.5H99.3298C99.0117 50.1591 98.3582 49.0909 97.3696 48.2955C96.3923 47.4886 95.1537 47.0852 93.6537 47.0852C91.2332 47.0852 89.3696 48.1364 88.0628 50.2386C86.7673 52.3409 86.1139 55.2273 86.1026 58.8977H86.3412C86.898 57.8977 87.6196 57.0398 88.506 56.3239C89.3923 55.608 90.3923 55.0568 91.506 54.6705C92.631 54.2727 93.8185 54.0739 95.0685 54.0739C97.1139 54.0739 98.9492 54.5625 100.574 55.5398C102.211 56.517 103.506 57.8636 104.461 59.5795C105.415 61.2841 105.887 63.2386 105.875 65.4432C105.887 67.7386 105.364 69.8011 104.307 71.6307C103.25 73.4489 101.779 74.8807 99.8923 75.9261C98.006 76.9716 95.8071 77.4886 93.2957 77.4773ZM93.2617 72.3636C94.5003 72.3636 95.6082 72.0625 96.5855 71.4602C97.5628 70.858 98.3355 70.0455 98.9037 69.0227C99.4719 68 99.7503 66.8523 99.7389 65.5795C99.7503 64.3295 99.4776 63.1989 98.9207 62.1875C98.3753 61.1761 97.6196 60.375 96.6537 59.7841C95.6878 59.1932 94.5855 58.8977 93.3469 58.8977C92.4264 58.8977 91.5685 59.0739 90.773 59.4261C89.9776 59.7784 89.2844 60.267 88.6935 60.892C88.1026 61.5057 87.6367 62.2216 87.2957 63.0398C86.9662 63.8466 86.7957 64.7102 86.7844 65.6307C86.7957 66.8466 87.0798 67.9659 87.6367 68.9886C88.1935 70.0114 88.9605 70.8295 89.9378 71.4432C90.9151 72.0568 92.023 72.3636 93.2617 72.3636ZM122.14 77.6648C119.333 77.6648 116.924 76.9545 114.913 75.5341C112.913 74.1023 111.373 72.0398 110.293 69.3466C109.225 66.642 108.691 63.3864 108.691 59.5795C108.703 55.7727 109.242 52.5341 110.311 49.8636C111.39 47.1818 112.93 45.1364 114.93 43.7273C116.941 42.3182 119.345 41.6136 122.14 41.6136C124.936 41.6136 127.339 42.3182 129.35 43.7273C131.362 45.1364 132.901 47.1818 133.97 49.8636C135.049 52.5455 135.589 55.7841 135.589 59.5795C135.589 63.3977 135.049 66.6591 133.97 69.3636C132.901 72.0568 131.362 74.1136 129.35 75.5341C127.35 76.9545 124.947 77.6648 122.14 77.6648ZM122.14 72.3295C124.322 72.3295 126.043 71.2557 127.305 69.108C128.578 66.9489 129.214 63.7727 129.214 59.5795C129.214 56.8068 128.924 54.4773 128.345 52.5909C127.765 50.7045 126.947 49.2841 125.89 48.3295C124.833 47.3636 123.583 46.8807 122.14 46.8807C119.97 46.8807 118.254 47.9602 116.992 50.1193C115.731 52.267 115.095 55.4205 115.083 59.5795C115.072 62.3636 115.35 64.7045 115.918 66.6023C116.498 68.5 117.316 69.9318 118.373 70.8977C119.43 71.8523 120.686 72.3295 122.14 72.3295Z" fill="black"/>
<path d="M1.00426 110V99.8182H2.84872V108.454H7.3331V110H1.00426ZM10.3518 110.154C9.86795 110.154 9.4321 110.068 9.04432 109.896C8.65985 109.72 8.35492 109.461 8.12955 109.12C7.90748 108.779 7.79645 108.358 7.79645 107.857C7.79645 107.426 7.87599 107.07 8.03509 106.788C8.19418 106.507 8.41127 106.281 8.68636 106.112C8.96146 105.943 9.27135 105.816 9.61605 105.729C9.96406 105.64 10.3237 105.575 10.6949 105.536C11.1423 105.489 11.5053 105.448 11.7837 105.411C12.0621 105.371 12.2643 105.312 12.3902 105.232C12.5195 105.149 12.5841 105.022 12.5841 104.849V104.82C12.5841 104.445 12.4731 104.155 12.251 103.95C12.0289 103.744 11.7091 103.641 11.2915 103.641C10.8507 103.641 10.501 103.737 10.2425 103.93C9.98726 104.122 9.81492 104.349 9.72543 104.611L8.04503 104.372C8.1776 103.908 8.39635 103.52 8.70128 103.209C9.0062 102.894 9.37907 102.659 9.81989 102.503C10.2607 102.344 10.7479 102.264 11.2815 102.264C11.6494 102.264 12.0157 102.307 12.3803 102.393C12.7448 102.48 13.0779 102.622 13.3795 102.821C13.6812 103.017 13.9231 103.283 14.1054 103.621C14.291 103.96 14.3838 104.382 14.3838 104.889V110H12.6537V108.951H12.594C12.4847 109.163 12.3305 109.362 12.1317 109.548C11.9361 109.73 11.6892 109.877 11.3909 109.99C11.0959 110.099 10.7496 110.154 10.3518 110.154ZM10.8192 108.832C11.1804 108.832 11.4937 108.76 11.7588 108.618C12.024 108.472 12.2278 108.28 12.3703 108.041C12.5161 107.803 12.5891 107.542 12.5891 107.261V106.361C12.5327 106.407 12.4366 106.45 12.3007 106.49C12.1681 106.53 12.019 106.565 11.8533 106.594C11.6875 106.624 11.5235 106.651 11.3611 106.674C11.1987 106.697 11.0578 106.717 10.9385 106.734C10.67 106.77 10.4297 106.83 10.2176 106.913C10.0055 106.996 9.83812 107.112 9.71548 107.261C9.59285 107.406 9.53153 107.595 9.53153 107.827C9.53153 108.159 9.65251 108.409 9.89446 108.578C10.1364 108.747 10.4447 108.832 10.8192 108.832ZM21.529 104.382L19.8884 104.561C19.842 104.395 19.7607 104.24 19.6447 104.094C19.5321 103.948 19.3796 103.83 19.1874 103.741C18.9951 103.651 18.7598 103.607 18.4814 103.607C18.1069 103.607 17.792 103.688 17.5368 103.85C17.2849 104.013 17.1606 104.223 17.1639 104.482C17.1606 104.704 17.2418 104.884 17.4075 105.023C17.5766 105.163 17.855 105.277 18.2428 105.366L19.5453 105.645C20.2679 105.801 20.8048 106.048 21.1561 106.386C21.5107 106.724 21.6897 107.166 21.693 107.713C21.6897 108.194 21.5489 108.618 21.2705 108.986C20.9954 109.35 20.6125 109.635 20.122 109.841C19.6315 110.046 19.068 110.149 18.4317 110.149C17.497 110.149 16.7447 109.954 16.1746 109.562C15.6045 109.168 15.2648 108.62 15.1554 107.917L16.9104 107.748C16.9899 108.093 17.1589 108.353 17.4175 108.528C17.676 108.704 18.0124 108.792 18.4267 108.792C18.8543 108.792 19.1973 108.704 19.4558 108.528C19.7177 108.353 19.8486 108.136 19.8486 107.877C19.8486 107.658 19.7641 107.478 19.595 107.335C19.4293 107.193 19.1708 107.083 18.8195 107.007L17.5169 106.734C16.7844 106.581 16.2425 106.324 15.8912 105.963C15.5399 105.598 15.3659 105.138 15.3692 104.581C15.3659 104.11 15.4935 103.703 15.752 103.358C16.0138 103.01 16.3768 102.741 16.8408 102.553C17.3081 102.36 17.8467 102.264 18.4565 102.264C19.3514 102.264 20.0557 102.455 20.5695 102.836C21.0865 103.217 21.4063 103.732 21.529 104.382ZM26.2903 102.364V103.756H21.9004V102.364H26.2903ZM22.9842 100.534H24.7839V107.703C24.7839 107.945 24.8203 108.131 24.8933 108.26C24.9695 108.386 25.0689 108.472 25.1915 108.518C25.3142 108.565 25.4501 108.588 25.5992 108.588C25.7119 108.588 25.8147 108.58 25.9075 108.563C26.0036 108.547 26.0765 108.532 26.1262 108.518L26.4295 109.925C26.3334 109.959 26.1958 109.995 26.0168 110.035C25.8412 110.075 25.6257 110.098 25.3705 110.104C24.9198 110.118 24.5138 110.05 24.1525 109.901C23.7912 109.748 23.5045 109.513 23.2924 109.195C23.0836 108.876 22.9808 108.479 22.9842 108.001V100.534ZM29.8681 110V102.364H31.5882V103.661H31.6777C31.8368 103.224 32.1003 102.882 32.4682 102.637C32.8361 102.388 33.2753 102.264 33.7857 102.264C34.3027 102.264 34.7386 102.39 35.0932 102.642C35.4512 102.891 35.7031 103.23 35.8489 103.661H35.9284C36.0975 103.237 36.3825 102.899 36.7836 102.647C37.1879 102.392 37.6668 102.264 38.2203 102.264C38.923 102.264 39.4964 102.486 39.9405 102.93C40.3846 103.375 40.6067 104.022 40.6067 104.874V110H38.802V105.153C38.802 104.679 38.6761 104.332 38.4242 104.114C38.1723 103.892 37.8641 103.781 37.4995 103.781C37.0653 103.781 36.7256 103.916 36.4803 104.188C36.2383 104.457 36.1174 104.806 36.1174 105.237V110H34.3525V105.078C34.3525 104.684 34.2331 104.369 33.9945 104.134C33.7592 103.898 33.4509 103.781 33.0698 103.781C32.8113 103.781 32.5759 103.847 32.3638 103.979C32.1517 104.109 31.9827 104.293 31.8567 104.531C31.7308 104.767 31.6678 105.042 31.6678 105.357V110H29.8681ZM45.0635 110.149C44.3178 110.149 43.6714 109.985 43.1246 109.657C42.5777 109.329 42.1535 108.87 41.8518 108.28C41.5536 107.69 41.4044 107 41.4044 106.212C41.4044 105.423 41.5536 104.732 41.8518 104.138C42.1535 103.545 42.5777 103.085 43.1246 102.756C43.6714 102.428 44.3178 102.264 45.0635 102.264C45.8092 102.264 46.4555 102.428 47.0024 102.756C47.5493 103.085 47.9719 103.545 48.2702 104.138C48.5718 104.732 48.7226 105.423 48.7226 106.212C48.7226 107 48.5718 107.69 48.2702 108.28C47.9719 108.87 47.5493 109.329 47.0024 109.657C46.4555 109.985 45.8092 110.149 45.0635 110.149ZM45.0734 108.707C45.4778 108.707 45.8159 108.596 46.0876 108.374C46.3594 108.149 46.5616 107.847 46.6942 107.469C46.8301 107.092 46.898 106.671 46.898 106.207C46.898 105.739 46.8301 105.317 46.6942 104.939C46.5616 104.558 46.3594 104.254 46.0876 104.029C45.8159 103.804 45.4778 103.691 45.0734 103.691C44.6591 103.691 44.3144 103.804 44.0393 104.029C43.7676 104.254 43.5637 104.558 43.4278 104.939C43.2953 105.317 43.229 105.739 43.229 106.207C43.229 106.671 43.2953 107.092 43.4278 107.469C43.5637 107.847 43.7676 108.149 44.0393 108.374C44.3144 108.596 44.6591 108.707 45.0734 108.707ZM51.3498 105.526V110H49.5501V102.364H51.2703V103.661H51.3598C51.5354 103.234 51.8155 102.894 52.2 102.642C52.5877 102.39 53.0667 102.264 53.6368 102.264C54.1637 102.264 54.6228 102.377 55.0139 102.602C55.4083 102.828 55.7132 103.154 55.9287 103.582C56.1474 104.009 56.2551 104.528 56.2518 105.138V110H54.4521V105.416C54.4521 104.906 54.3195 104.506 54.0544 104.218C53.7925 103.93 53.4296 103.786 52.9656 103.786C52.6507 103.786 52.3707 103.855 52.1254 103.994C51.8834 104.13 51.6929 104.327 51.5537 104.586C51.4178 104.844 51.3498 105.158 51.3498 105.526ZM61.1946 102.364V103.756H56.8047V102.364H61.1946ZM57.8885 100.534H59.6882V107.703C59.6882 107.945 59.7246 108.131 59.7976 108.26C59.8738 108.386 59.9732 108.472 60.0958 108.518C60.2185 108.565 60.3544 108.588 60.5035 108.588C60.6162 108.588 60.719 108.58 60.8118 108.563C60.9079 108.547 60.9808 108.532 61.0305 108.518L61.3338 109.925C61.2377 109.959 61.1001 109.995 60.9211 110.035C60.7455 110.075 60.53 110.098 60.2748 110.104C59.8241 110.118 59.4181 110.05 59.0568 109.901C58.6955 109.748 58.4088 109.513 58.1967 109.195C57.9879 108.876 57.8851 108.479 57.8885 108.001V100.534ZM63.9635 105.526V110H62.1638V99.8182H63.9237V103.661H64.0132C64.1922 103.23 64.4689 102.891 64.8435 102.642C65.2213 102.39 65.7019 102.264 66.2852 102.264C66.8155 102.264 67.2779 102.375 67.6723 102.597C68.0667 102.819 68.3716 103.144 68.5871 103.572C68.8058 103.999 68.9152 104.521 68.9152 105.138V110H67.1155V105.416C67.1155 104.902 66.9829 104.503 66.7178 104.218C66.4559 103.93 66.088 103.786 65.6141 103.786C65.2959 103.786 65.0108 103.855 64.7589 103.994C64.5104 104.13 64.3148 104.327 64.1723 104.586C64.0331 104.844 63.9635 105.158 63.9635 105.526ZM71.1584 110.109C70.8568 110.109 70.5982 110.003 70.3828 109.791C70.1674 109.579 70.0613 109.321 70.0646 109.016C70.0613 108.717 70.1674 108.462 70.3828 108.25C70.5982 108.038 70.8568 107.932 71.1584 107.932C71.45 107.932 71.7036 108.038 71.919 108.25C72.1378 108.462 72.2488 108.717 72.2521 109.016C72.2488 109.218 72.1958 109.402 72.093 109.567C71.9936 109.733 71.861 109.866 71.6953 109.965C71.5329 110.061 71.3539 110.109 71.1584 110.109ZM71.1584 104.661C70.8568 104.661 70.5982 104.554 70.3828 104.342C70.1674 104.127 70.0613 103.868 70.0646 103.567C70.0613 103.268 70.1674 103.013 70.3828 102.801C70.5982 102.586 70.8568 102.478 71.1584 102.478C71.45 102.478 71.7036 102.586 71.919 102.801C72.1378 103.013 72.2488 103.268 72.2521 103.567C72.2488 103.766 72.1958 103.948 72.093 104.114C71.9936 104.279 71.861 104.412 71.6953 104.511C71.5329 104.611 71.3539 104.661 71.1584 104.661ZM79.4443 111.273V98.5455H80.2596V111.273H79.4443ZM81.7958 102.617C81.7494 102.183 81.5539 101.845 81.2092 101.603C80.8678 101.361 80.4237 101.24 79.8768 101.24C79.4923 101.24 79.1626 101.298 78.8875 101.414C78.6124 101.53 78.4019 101.687 78.2561 101.886C78.1102 102.085 78.0357 102.312 78.0323 102.567C78.0323 102.78 78.0804 102.964 78.1765 103.119C78.276 103.275 78.4102 103.408 78.5792 103.517C78.7483 103.623 78.9355 103.713 79.141 103.786C79.3465 103.858 79.5537 103.92 79.7625 103.969L80.717 104.208C81.1015 104.298 81.471 104.419 81.8257 104.571C82.1836 104.723 82.5035 104.916 82.7852 105.148C83.0702 105.38 83.2956 105.66 83.4613 105.988C83.627 106.316 83.7099 106.701 83.7099 107.141C83.7099 107.738 83.5574 108.263 83.2525 108.717C82.9476 109.168 82.5068 109.521 81.9301 109.776C81.3567 110.028 80.6623 110.154 79.847 110.154C79.0548 110.154 78.3671 110.031 77.7838 109.786C77.2038 109.541 76.7497 109.183 76.4216 108.712C76.0967 108.242 75.9211 107.668 75.8946 106.992H77.7092C77.7357 107.347 77.8451 107.642 78.0373 107.877C78.2296 108.112 78.4798 108.288 78.788 108.404C79.0996 108.52 79.4476 108.578 79.8321 108.578C80.2331 108.578 80.5844 108.518 80.886 108.399C81.191 108.277 81.4296 108.107 81.602 107.892C81.7743 107.673 81.8621 107.418 81.8654 107.126C81.8621 106.861 81.7842 106.643 81.6318 106.47C81.4793 106.295 81.2655 106.149 80.9904 106.033C80.7187 105.913 80.4005 105.807 80.0359 105.714L78.8775 105.416C78.039 105.201 77.3761 104.874 76.8889 104.437C76.405 103.996 76.163 103.411 76.163 102.682C76.163 102.082 76.3254 101.557 76.6502 101.106C76.9784 100.655 77.4242 100.305 77.9876 100.057C78.5511 99.8049 79.1891 99.679 79.9017 99.679C80.6242 99.679 81.2573 99.8049 81.8008 100.057C82.3477 100.305 82.7769 100.652 83.0885 101.096C83.4 101.537 83.5608 102.044 83.5707 102.617H81.7958ZM88.6962 99.8182V110H86.8517V101.613H86.792L84.4107 103.134V101.444L86.9412 99.8182H88.6962ZM94.3449 110.194C93.5262 110.194 92.8236 109.987 92.2369 109.572C91.6536 109.155 91.2045 108.553 90.8896 107.768C90.5781 106.979 90.4223 106.029 90.4223 104.919C90.4256 103.809 90.583 102.864 90.8946 102.085C91.2095 101.303 91.6586 100.706 92.2419 100.295C92.8285 99.8845 93.5295 99.679 94.3449 99.679C95.1602 99.679 95.8612 99.8845 96.4479 100.295C97.0345 100.706 97.4836 101.303 97.7952 102.085C98.11 102.867 98.2675 103.812 98.2675 104.919C98.2675 106.033 98.11 106.984 97.7952 107.773C97.4836 108.558 97.0345 109.158 96.4479 109.572C95.8645 109.987 95.1635 110.194 94.3449 110.194ZM94.3449 108.638C94.9812 108.638 95.4834 108.325 95.8513 107.698C96.2225 107.068 96.4081 106.142 96.4081 104.919C96.4081 104.11 96.3236 103.431 96.1545 102.881C95.9855 102.33 95.7469 101.916 95.4386 101.638C95.1304 101.356 94.7658 101.215 94.3449 101.215C93.7118 101.215 93.2114 101.53 92.8435 102.16C92.4756 102.786 92.29 103.706 92.2866 104.919C92.2833 105.731 92.3645 106.414 92.5303 106.967C92.6993 107.521 92.9379 107.938 93.2462 108.22C93.5544 108.499 93.9206 108.638 94.3449 108.638ZM102.873 110.139C102.157 110.139 101.521 110.017 100.964 109.771C100.411 109.526 99.9733 109.185 99.6518 108.747C99.3303 108.31 99.1596 107.804 99.1397 107.231H101.009C101.026 107.506 101.117 107.746 101.282 107.952C101.448 108.154 101.669 108.311 101.944 108.424C102.219 108.537 102.527 108.593 102.868 108.593C103.233 108.593 103.556 108.53 103.838 108.404C104.12 108.275 104.34 108.096 104.499 107.867C104.658 107.638 104.736 107.375 104.733 107.077C104.736 106.768 104.657 106.497 104.494 106.261C104.332 106.026 104.096 105.842 103.788 105.71C103.483 105.577 103.115 105.511 102.684 105.511H101.785V104.089H102.684C103.039 104.089 103.349 104.027 103.614 103.905C103.883 103.782 104.093 103.61 104.246 103.388C104.398 103.162 104.473 102.902 104.469 102.607C104.473 102.319 104.408 102.069 104.275 101.857C104.146 101.641 103.962 101.474 103.724 101.354C103.488 101.235 103.211 101.175 102.893 101.175C102.582 101.175 102.293 101.232 102.028 101.344C101.763 101.457 101.549 101.618 101.387 101.827C101.224 102.032 101.138 102.277 101.128 102.562H99.3535C99.3668 101.992 99.5308 101.492 99.8457 101.061C100.164 100.627 100.588 100.289 101.118 100.047C101.649 99.8016 102.244 99.679 102.903 99.679C103.583 99.679 104.173 99.8066 104.673 100.062C105.177 100.314 105.566 100.653 105.841 101.081C106.117 101.509 106.254 101.981 106.254 102.498C106.257 103.071 106.088 103.552 105.747 103.94C105.409 104.327 104.965 104.581 104.415 104.7V104.78C105.131 104.879 105.679 105.144 106.06 105.575C106.445 106.003 106.635 106.535 106.632 107.171C106.632 107.741 106.47 108.252 106.145 108.702C105.823 109.15 105.379 109.501 104.812 109.756C104.249 110.012 103.603 110.139 102.873 110.139ZM111.402 110.194C110.583 110.194 109.881 109.987 109.294 109.572C108.711 109.155 108.262 108.553 107.947 107.768C107.635 106.979 107.479 106.029 107.479 104.919C107.483 103.809 107.64 102.864 107.952 102.085C108.267 101.303 108.716 100.706 109.299 100.295C109.886 99.8845 110.587 99.679 111.402 99.679C112.217 99.679 112.918 99.8845 113.505 100.295C114.092 100.706 114.541 101.303 114.852 102.085C115.167 102.867 115.325 103.812 115.325 104.919C115.325 106.033 115.167 106.984 114.852 107.773C114.541 108.558 114.092 109.158 113.505 109.572C112.922 109.987 112.221 110.194 111.402 110.194ZM111.402 108.638C112.038 108.638 112.54 108.325 112.908 107.698C113.28 107.068 113.465 106.142 113.465 104.919C113.465 104.11 113.381 103.431 113.212 102.881C113.043 102.33 112.804 101.916 112.496 101.638C112.187 101.356 111.823 101.215 111.402 101.215C110.769 101.215 110.268 101.53 109.901 102.16C109.533 102.786 109.347 103.706 109.344 104.919C109.34 105.731 109.422 106.414 109.587 106.967C109.756 107.521 109.995 107.938 110.303 108.22C110.611 108.499 110.978 108.638 111.402 108.638Z" fill="#A8B0B7"/>
<g clip-path="url(#clip0_2011_29)">
<path d="M279 56.5C279 86.8757 254.376 111.5 224 111.5C193.624 111.5 169 86.8757 169 56.5C169 26.1243 193.624 1.5 224 1.5C254.376 1.5 279 26.1243 279 56.5ZM184.477 56.5C184.477 78.3282 202.172 96.0234 224 96.0234C245.828 96.0234 263.523 78.3282 263.523 56.5C263.523 34.6718 245.828 16.9766 224 16.9766C202.172 16.9766 184.477 34.6718 184.477 56.5Z" fill="#F5F7F9"/>
<path d="M271.262 56.5C275.535 56.5 279.056 53.0185 278.457 48.787C277.304 40.6467 274.335 32.8341 269.731 25.9436C263.687 16.8989 255.098 9.84945 245.048 5.68663C234.998 1.52381 223.939 0.434622 213.27 2.55681C205.142 4.17354 197.519 7.59873 190.947 12.5395C187.531 15.1078 187.559 20.0589 190.581 23.0809C193.603 26.1029 198.472 26.026 202.024 23.6497C206.323 20.7735 211.167 18.755 216.289 17.736C223.956 16.211 231.903 16.9937 239.125 19.9851C246.347 22.9766 252.52 28.0424 256.863 34.542C259.764 38.8846 261.762 43.737 262.768 48.8109C263.6 53.003 266.988 56.5 271.262 56.5Z" fill="#11BFD7"/>
<path d="M200.733 62.7045V50.9091H203.409V62.7045H200.733ZM196.173 58.1449V55.4688H207.969V58.1449H196.173ZM216.568 65.7386C215.431 65.7386 214.414 65.5256 213.517 65.0994C212.619 64.6676 211.906 64.0767 211.377 63.3267C210.855 62.5767 210.576 61.7187 210.542 60.7528H213.61C213.667 61.4687 213.977 62.054 214.539 62.5085C215.102 62.9574 215.778 63.1818 216.568 63.1818C217.187 63.1818 217.738 63.0398 218.221 62.7557C218.704 62.4716 219.085 62.0767 219.363 61.571C219.642 61.0653 219.778 60.4886 219.772 59.8409C219.778 59.1818 219.639 58.5966 219.355 58.0852C219.071 57.5739 218.681 57.1733 218.187 56.8835C217.693 56.5881 217.125 56.4403 216.483 56.4403C215.96 56.4347 215.446 56.5312 214.94 56.7301C214.434 56.929 214.034 57.1903 213.738 57.5142L210.883 57.0455L211.795 48.0455H221.92V50.6875H214.412L213.909 55.3153H214.011C214.335 54.9347 214.792 54.6193 215.383 54.3693C215.974 54.1136 216.622 53.9858 217.326 53.9858C218.383 53.9858 219.326 54.2358 220.156 54.7358C220.985 55.2301 221.639 55.9119 222.116 56.7812C222.593 57.6506 222.832 58.6449 222.832 59.7642C222.832 60.9176 222.565 61.946 222.031 62.8494C221.502 63.7472 220.767 64.4545 219.823 64.9716C218.886 65.483 217.801 65.7386 216.568 65.7386ZM231.587 48.0455V65.5H228.425V51.1222H228.322L224.24 53.7301V50.8324L228.578 48.0455H231.587ZM244.151 62.2273V61.3068C244.151 60.6307 244.293 60.0085 244.577 59.4403C244.867 58.8722 245.287 58.4148 245.838 58.0682C246.389 57.7216 247.057 57.5483 247.841 57.5483C248.648 57.5483 249.324 57.7216 249.869 58.0682C250.415 58.4091 250.827 58.8636 251.105 59.4318C251.389 60 251.531 60.625 251.531 61.3068V62.2273C251.531 62.9034 251.389 63.5256 251.105 64.0938C250.821 64.6619 250.404 65.1193 249.852 65.4659C249.307 65.8125 248.637 65.9858 247.841 65.9858C247.046 65.9858 246.372 65.8125 245.821 65.4659C245.27 65.1193 244.852 64.6619 244.568 64.0938C244.29 63.5256 244.151 62.9034 244.151 62.2273ZM246.375 61.3068V62.2273C246.375 62.6761 246.483 63.0881 246.699 63.4631C246.915 63.8381 247.296 64.0256 247.841 64.0256C248.392 64.0256 248.77 63.8409 248.975 63.4716C249.185 63.0966 249.29 62.6818 249.29 62.2273V61.3068C249.29 60.8523 249.19 60.4375 248.992 60.0625C248.793 59.6818 248.409 59.4915 247.841 59.4915C247.307 59.4915 246.929 59.6818 246.708 60.0625C246.486 60.4375 246.375 60.8523 246.375 61.3068ZM235.279 52.2386V51.3182C235.279 50.6364 235.423 50.0114 235.713 49.4432C236.003 48.875 236.423 48.4205 236.975 48.0795C237.526 47.733 238.193 47.5597 238.977 47.5597C239.779 47.5597 240.452 47.733 240.997 48.0795C241.548 48.4205 241.963 48.875 242.242 49.4432C242.52 50.0114 242.659 50.6364 242.659 51.3182V52.2386C242.659 52.9205 242.517 53.5455 242.233 54.1136C241.955 54.6761 241.54 55.1278 240.989 55.4688C240.438 55.8097 239.767 55.9801 238.977 55.9801C238.176 55.9801 237.5 55.8097 236.949 55.4688C236.404 55.1278 235.989 54.6733 235.705 54.1051C235.421 53.5369 235.279 52.9148 235.279 52.2386ZM237.52 51.3182V52.2386C237.52 52.6932 237.625 53.108 237.835 53.483C238.051 53.8523 238.432 54.0369 238.977 54.0369C239.523 54.0369 239.898 53.8523 240.102 53.483C240.313 53.108 240.418 52.6932 240.418 52.2386V51.3182C240.418 50.8636 240.318 50.4489 240.119 50.0739C239.921 49.6932 239.54 49.5028 238.977 49.5028C238.438 49.5028 238.06 49.6932 237.844 50.0739C237.628 50.4545 237.52 50.8693 237.52 51.3182ZM236.25 65.5L248.25 48.0455H250.381L238.381 65.5H236.25Z" fill="#11BFD7"/>
</g>
<path d="M343.321 23.0909V8.09091H345.849V9.89489H345.999C346.131 9.62973 346.318 9.34801 346.56 9.04972C346.801 8.74669 347.128 8.48864 347.54 8.27557C347.952 8.05777 348.477 7.94886 349.116 7.94886C349.959 7.94886 350.719 8.1643 351.396 8.59517C352.078 9.02131 352.618 9.65341 353.016 10.4915C353.418 11.3248 353.619 12.3475 353.619 13.5597C353.619 14.7576 353.423 15.7756 353.03 16.6136C352.637 17.4517 352.102 18.0909 351.425 18.5312C350.748 18.9716 349.981 19.1918 349.124 19.1918C348.499 19.1918 347.98 19.0876 347.568 18.8793C347.156 18.6709 346.825 18.42 346.574 18.1264C346.328 17.8281 346.136 17.5464 345.999 17.2812H345.892V23.0909H343.321ZM345.842 13.5455C345.842 14.2509 345.942 14.8688 346.141 15.3991C346.344 15.9295 346.635 16.3437 347.014 16.642C347.398 16.9356 347.862 17.0824 348.406 17.0824C348.974 17.0824 349.45 16.9309 349.834 16.6278C350.217 16.3201 350.506 15.901 350.7 15.3707C350.899 14.8357 350.999 14.2273 350.999 13.5455C350.999 12.8684 350.902 12.267 350.707 11.7415C350.513 11.2159 350.224 10.804 349.841 10.5057C349.457 10.2074 348.979 10.0582 348.406 10.0582C347.857 10.0582 347.391 10.2027 347.007 10.4915C346.624 10.7803 346.332 11.1851 346.134 11.706C345.939 12.2268 345.842 12.84 345.842 13.5455ZM354.821 19V8.09091H357.314V9.90909H357.428C357.626 9.27936 357.967 8.79403 358.45 8.45312C358.938 8.10748 359.494 7.93466 360.119 7.93466C360.261 7.93466 360.42 7.94176 360.595 7.95597C360.775 7.96544 360.924 7.98201 361.043 8.00568V10.3707C360.934 10.3329 360.761 10.2997 360.524 10.2713C360.292 10.2382 360.067 10.2216 359.849 10.2216C359.381 10.2216 358.959 10.3234 358.585 10.527C358.216 10.7259 357.925 11.0028 357.712 11.358C357.499 11.7131 357.392 12.1226 357.392 12.5866V19H354.821ZM366.06 19.2131C364.995 19.2131 364.071 18.9787 363.29 18.5099C362.509 18.0412 361.903 17.3854 361.472 16.5426C361.046 15.6998 360.833 14.715 360.833 13.5881C360.833 12.4612 361.046 11.474 361.472 10.6264C361.903 9.77888 362.509 9.12074 363.29 8.65199C364.071 8.18324 364.995 7.94886 366.06 7.94886C367.125 7.94886 368.049 8.18324 368.83 8.65199C369.611 9.12074 370.215 9.77888 370.641 10.6264C371.072 11.474 371.287 12.4612 371.287 13.5881C371.287 14.715 371.072 15.6998 370.641 16.5426C370.215 17.3854 369.611 18.0412 368.83 18.5099C368.049 18.9787 367.125 19.2131 366.06 19.2131ZM366.074 17.1534C366.652 17.1534 367.135 16.9948 367.523 16.6776C367.911 16.3556 368.2 15.9247 368.39 15.3849C368.584 14.8452 368.681 14.2438 368.681 13.581C368.681 12.9134 368.584 12.3097 368.39 11.7699C368.2 11.2254 367.911 10.7921 367.523 10.4702C367.135 10.1482 366.652 9.98722 366.074 9.98722C365.482 9.98722 364.99 10.1482 364.597 10.4702C364.209 10.7921 363.917 11.2254 363.723 11.7699C363.534 12.3097 363.439 12.9134 363.439 13.581C363.439 14.2438 363.534 14.8452 363.723 15.3849C363.917 15.9247 364.209 16.3556 364.597 16.6776C364.99 16.9948 365.482 17.1534 366.074 17.1534ZM377.995 8.09091V10.0795H371.546V8.09091H377.995ZM373.158 19V7.06108C373.158 6.32718 373.31 5.71638 373.613 5.22869C373.921 4.741 374.333 4.37642 374.849 4.13494C375.365 3.89347 375.938 3.77273 376.567 3.77273C377.013 3.77273 377.408 3.80824 377.754 3.87926C378.099 3.95028 378.355 4.0142 378.521 4.07102L378.009 6.05966C377.9 6.02651 377.763 5.99337 377.597 5.96023C377.432 5.92235 377.247 5.90341 377.043 5.90341C376.565 5.90341 376.227 6.01941 376.028 6.25142C375.834 6.47869 375.737 6.8054 375.737 7.23153V19H373.158ZM379.009 19V8.09091H381.58V19H379.009ZM380.301 6.54261C379.894 6.54261 379.544 6.40767 379.25 6.13778C378.956 5.86316 378.81 5.53409 378.81 5.15057C378.81 4.76231 378.956 4.43324 379.25 4.16335C379.544 3.88873 379.894 3.75142 380.301 3.75142C380.713 3.75142 381.063 3.88873 381.352 4.16335C381.646 4.43324 381.793 4.76231 381.793 5.15057C381.793 5.53409 381.646 5.86316 381.352 6.13778C381.063 6.40767 380.713 6.54261 380.301 6.54261ZM388.671 8.09091V10.0795H382.4V8.09091H388.671ZM383.948 5.47727H386.519V15.7188C386.519 16.0644 386.571 16.3295 386.675 16.5142C386.784 16.6941 386.926 16.8172 387.101 16.8835C387.276 16.9498 387.471 16.983 387.684 16.983C387.845 16.983 387.991 16.9711 388.124 16.9474C388.261 16.9238 388.365 16.9025 388.436 16.8835L388.87 18.8935C388.732 18.9408 388.536 18.9929 388.28 19.0497C388.029 19.1065 387.721 19.1397 387.357 19.1491C386.713 19.1681 386.133 19.071 385.617 18.858C385.101 18.6402 384.691 18.304 384.388 17.8494C384.09 17.3949 383.943 16.8267 383.948 16.1449V5.47727ZM399.308 8.09091V10.0795H392.859V8.09091H399.308ZM394.471 19V7.06108C394.471 6.32718 394.622 5.71638 394.925 5.22869C395.233 4.741 395.645 4.37642 396.161 4.13494C396.677 3.89347 397.25 3.77273 397.88 3.77273C398.325 3.77273 398.72 3.80824 399.066 3.87926C399.412 3.95028 399.667 4.0142 399.833 4.07102L399.322 6.05966C399.213 6.02651 399.076 5.99337 398.91 5.96023C398.744 5.92235 398.559 5.90341 398.356 5.90341C397.878 5.90341 397.539 6.01941 397.34 6.25142C397.146 6.47869 397.049 6.8054 397.049 7.23153V19H394.471ZM404.669 19.2131C403.604 19.2131 402.681 18.9787 401.9 18.5099C401.118 18.0412 400.512 17.3854 400.081 16.5426C399.655 15.6998 399.442 14.715 399.442 13.5881C399.442 12.4612 399.655 11.474 400.081 10.6264C400.512 9.77888 401.118 9.12074 401.9 8.65199C402.681 8.18324 403.604 7.94886 404.669 7.94886C405.735 7.94886 406.658 8.18324 407.439 8.65199C408.221 9.12074 408.824 9.77888 409.25 10.6264C409.681 11.474 409.897 12.4612 409.897 13.5881C409.897 14.715 409.681 15.6998 409.25 16.5426C408.824 17.3854 408.221 18.0412 407.439 18.5099C406.658 18.9787 405.735 19.2131 404.669 19.2131ZM404.684 17.1534C405.261 17.1534 405.744 16.9948 406.132 16.6776C406.521 16.3556 406.81 15.9247 406.999 15.3849C407.193 14.8452 407.29 14.2438 407.29 13.581C407.29 12.9134 407.193 12.3097 406.999 11.7699C406.81 11.2254 406.521 10.7921 406.132 10.4702C405.744 10.1482 405.261 9.98722 404.684 9.98722C404.092 9.98722 403.599 10.1482 403.206 10.4702C402.818 10.7921 402.527 11.2254 402.333 11.7699C402.143 12.3097 402.049 12.9134 402.049 13.581C402.049 14.2438 402.143 14.8452 402.333 15.3849C402.527 15.9247 402.818 16.3556 403.206 16.6776C403.599 16.9948 404.092 17.1534 404.684 17.1534ZM411.079 19V8.09091H413.572V9.90909H413.685C413.884 9.27936 414.225 8.79403 414.708 8.45312C415.196 8.10748 415.752 7.93466 416.377 7.93466C416.519 7.93466 416.678 7.94176 416.853 7.95597C417.033 7.96544 417.182 7.98201 417.3 8.00568V10.3707C417.192 10.3329 417.019 10.2997 416.782 10.2713C416.55 10.2382 416.325 10.2216 416.107 10.2216C415.638 10.2216 415.217 10.3234 414.843 10.527C414.474 10.7259 414.183 11.0028 413.969 11.358C413.756 11.7131 413.65 12.1226 413.65 12.5866V19H411.079ZM422.389 19.2131C421.295 19.2131 420.35 18.9858 419.555 18.5312C418.764 18.072 418.156 17.4233 417.73 16.5852C417.304 15.7424 417.091 14.7505 417.091 13.6094C417.091 12.4872 417.304 11.5024 417.73 10.6548C418.161 9.80256 418.762 9.13968 419.534 8.66619C420.306 8.18797 421.212 7.94886 422.254 7.94886C422.926 7.94886 423.561 8.05777 424.157 8.27557C424.759 8.48864 425.289 8.82008 425.748 9.26989C426.212 9.7197 426.577 10.2926 426.842 10.9886C427.107 11.6799 427.24 12.5038 427.24 13.4602V14.2486H418.298V12.5156H424.775C424.77 12.0232 424.664 11.5852 424.456 11.2017C424.247 10.8134 423.956 10.508 423.582 10.2855C423.213 10.063 422.782 9.9517 422.289 9.9517C421.764 9.9517 421.302 10.0795 420.904 10.3352C420.507 10.5862 420.197 10.9176 419.974 11.3295C419.756 11.7367 419.645 12.1842 419.64 12.6719V14.1847C419.64 14.8191 419.756 15.3636 419.988 15.8182C420.22 16.268 420.545 16.6136 420.961 16.8551C421.378 17.0919 421.866 17.2102 422.424 17.2102C422.798 17.2102 423.137 17.1581 423.44 17.054C423.743 16.9451 424.006 16.7865 424.228 16.5781C424.451 16.3698 424.619 16.1117 424.733 15.804L427.133 16.0739C426.982 16.7083 426.693 17.2623 426.267 17.7358C425.845 18.2045 425.306 18.5691 424.647 18.8295C423.989 19.0852 423.236 19.2131 422.389 19.2131ZM433.173 19.2131C432.084 19.2131 431.149 18.974 430.368 18.4957C429.591 18.0175 428.992 17.357 428.571 16.5142C428.154 15.6667 427.946 14.6913 427.946 13.5881C427.946 12.4801 428.159 11.5024 428.585 10.6548C429.011 9.80256 429.613 9.13968 430.389 8.66619C431.17 8.18797 432.094 7.94886 433.159 7.94886C434.045 7.94886 434.828 8.11222 435.51 8.43892C436.196 8.76089 436.743 9.2178 437.151 9.80966C437.558 10.3968 437.79 11.0833 437.847 11.8693H435.389C435.29 11.3437 435.053 10.9058 434.679 10.5554C434.31 10.2003 433.815 10.0227 433.195 10.0227C432.669 10.0227 432.207 10.1648 431.81 10.4489C431.412 10.7282 431.102 11.1307 430.879 11.6562C430.661 12.1818 430.553 12.8116 430.553 13.5455C430.553 14.2888 430.661 14.928 430.879 15.4631C431.097 15.9934 431.402 16.4029 431.795 16.6918C432.193 16.9759 432.66 17.1179 433.195 17.1179C433.573 17.1179 433.912 17.0469 434.21 16.9048C434.513 16.758 434.767 16.5473 434.97 16.2727C435.174 15.9981 435.313 15.6643 435.389 15.2713H437.847C437.785 16.0431 437.558 16.7273 437.165 17.3239C436.772 17.9157 436.237 18.3797 435.56 18.7159C434.883 19.0473 434.087 19.2131 433.173 19.2131ZM442.097 19.2202C441.406 19.2202 440.783 19.0971 440.229 18.8509C439.68 18.5999 439.244 18.2306 438.922 17.7429C438.605 17.2552 438.446 16.6539 438.446 15.9389C438.446 15.3234 438.56 14.8144 438.787 14.4119C439.015 14.0095 439.325 13.6875 439.718 13.446C440.111 13.2045 440.553 13.0223 441.046 12.8991C441.543 12.7713 442.057 12.679 442.587 12.6222C443.226 12.5559 443.745 12.4967 444.142 12.4446C444.54 12.3878 444.829 12.3026 445.009 12.1889C445.194 12.0705 445.286 11.8883 445.286 11.642V11.5994C445.286 11.0644 445.127 10.6501 444.81 10.3565C444.493 10.063 444.036 9.91619 443.439 9.91619C442.81 9.91619 442.31 10.0535 441.941 10.3281C441.576 10.6027 441.33 10.9271 441.202 11.3011L438.801 10.9602C438.991 10.2973 439.303 9.74337 439.739 9.2983C440.175 8.84848 440.707 8.51231 441.337 8.28977C441.967 8.0625 442.663 7.94886 443.425 7.94886C443.951 7.94886 444.474 8.01042 444.995 8.13352C445.516 8.25663 445.991 8.46023 446.422 8.74432C446.853 9.02367 447.199 9.40483 447.459 9.88778C447.724 10.3707 447.857 10.9744 447.857 11.6989V19H445.385V17.5014H445.3C445.144 17.8045 444.924 18.0885 444.64 18.3537C444.36 18.6141 444.007 18.8248 443.581 18.9858C443.16 19.142 442.665 19.2202 442.097 19.2202ZM442.765 17.331C443.281 17.331 443.728 17.2292 444.107 17.0256C444.486 16.8172 444.777 16.5426 444.98 16.2017C445.189 15.8608 445.293 15.4891 445.293 15.0866V13.8011C445.212 13.8674 445.075 13.929 444.881 13.9858C444.692 14.0426 444.479 14.0923 444.242 14.1349C444.005 14.1776 443.771 14.2154 443.539 14.2486C443.307 14.2817 443.105 14.3101 442.935 14.3338C442.551 14.3859 442.208 14.4711 441.905 14.5895C441.602 14.7079 441.363 14.8736 441.188 15.0866C441.013 15.295 440.925 15.5649 440.925 15.8963C440.925 16.3698 441.098 16.7273 441.444 16.9688C441.789 17.2102 442.23 17.331 442.765 17.331ZM458.064 10.9744L455.721 11.2301C455.654 10.9934 455.538 10.7708 455.373 10.5625C455.212 10.3542 454.994 10.1861 454.719 10.0582C454.444 9.9304 454.108 9.86648 453.711 9.86648C453.176 9.86648 452.726 9.98248 452.361 10.2145C452.001 10.4465 451.824 10.7472 451.828 11.1165C451.824 11.4337 451.94 11.6918 452.176 11.8906C452.418 12.0895 452.816 12.2528 453.37 12.3807L455.23 12.7784C456.263 13.0009 457.03 13.3537 457.532 13.8366C458.038 14.3196 458.294 14.9517 458.299 15.733C458.294 16.4195 458.093 17.0256 457.695 17.5511C457.302 18.072 456.755 18.4792 456.054 18.7727C455.354 19.0663 454.549 19.2131 453.64 19.2131C452.304 19.2131 451.23 18.9337 450.415 18.375C449.601 17.8116 449.115 17.0279 448.959 16.0241L451.466 15.7827C451.58 16.2751 451.821 16.6468 452.191 16.8977C452.56 17.1487 453.041 17.2741 453.632 17.2741C454.243 17.2741 454.733 17.1487 455.103 16.8977C455.477 16.6468 455.664 16.3366 455.664 15.9673C455.664 15.6548 455.543 15.3968 455.301 15.1932C455.065 14.9896 454.695 14.8333 454.194 14.7244L452.333 14.3338C451.286 14.116 450.512 13.7491 450.01 13.233C449.508 12.7121 449.26 12.054 449.265 11.2585C449.26 10.5862 449.442 10.0038 449.811 9.51136C450.185 9.0142 450.704 8.63068 451.367 8.3608C452.034 8.08617 452.804 7.94886 453.675 7.94886C454.953 7.94886 455.96 8.22112 456.694 8.76562C457.432 9.31013 457.889 10.0464 458.064 10.9744ZM464.866 8.09091V10.0795H458.595V8.09091H464.866ZM460.143 5.47727H462.714V15.7188C462.714 16.0644 462.766 16.3295 462.87 16.5142C462.979 16.6941 463.121 16.8172 463.297 16.8835C463.472 16.9498 463.666 16.983 463.879 16.983C464.04 16.983 464.187 16.9711 464.319 16.9474C464.457 16.9238 464.561 16.9025 464.632 16.8835L465.065 18.8935C464.928 18.9408 464.731 18.9929 464.475 19.0497C464.225 19.1065 463.917 19.1397 463.552 19.1491C462.908 19.1681 462.328 19.071 461.812 18.858C461.296 18.6402 460.886 18.304 460.583 17.8494C460.285 17.3949 460.138 16.8267 460.143 16.1449V5.47727Z" fill="black"/>
<path d="M356.352 81.3636V37.7273H359.148V81.3636H356.352ZM364.415 51.6875C364.256 50.1989 363.585 49.0398 362.403 48.2102C361.233 47.3807 359.71 46.9659 357.835 46.9659C356.517 46.9659 355.386 47.1648 354.443 47.5625C353.5 47.9602 352.778 48.5 352.278 49.1818C351.778 49.8636 351.523 50.642 351.511 51.517C351.511 52.2443 351.676 52.875 352.006 53.4091C352.347 53.9432 352.807 54.3977 353.386 54.7727C353.966 55.1364 354.608 55.4432 355.312 55.6932C356.017 55.9432 356.727 56.1534 357.443 56.3239L360.716 57.142C362.034 57.4489 363.301 57.8636 364.517 58.3864C365.744 58.9091 366.841 59.5682 367.807 60.3636C368.784 61.1591 369.557 62.1193 370.125 63.2443C370.693 64.3693 370.977 65.6875 370.977 67.1989C370.977 69.2443 370.455 71.0455 369.409 72.6023C368.364 74.1477 366.852 75.358 364.875 76.233C362.909 77.0966 360.528 77.5284 357.733 77.5284C355.017 77.5284 352.659 77.108 350.659 76.267C348.67 75.4261 347.114 74.1989 345.989 72.5852C344.875 70.9716 344.273 69.0057 344.182 66.6875H350.403C350.494 67.9034 350.869 68.9148 351.528 69.7216C352.188 70.5284 353.045 71.1307 354.102 71.5284C355.17 71.9261 356.364 72.125 357.682 72.125C359.057 72.125 360.261 71.9205 361.295 71.5114C362.341 71.0909 363.159 70.5114 363.75 69.7727C364.341 69.0227 364.642 68.1477 364.653 67.1477C364.642 66.2386 364.375 65.4886 363.852 64.8977C363.33 64.2955 362.597 63.7955 361.653 63.3977C360.722 62.9886 359.631 62.625 358.381 62.3068L354.409 61.2841C351.534 60.5455 349.261 59.4261 347.591 57.9261C345.932 56.4148 345.102 54.4091 345.102 51.9091C345.102 49.8523 345.659 48.0511 346.773 46.5057C347.898 44.9602 349.426 43.7614 351.358 42.9091C353.29 42.0455 355.477 41.6136 357.92 41.6136C360.398 41.6136 362.568 42.0455 364.432 42.9091C366.307 43.7614 367.778 44.9489 368.847 46.4716C369.915 47.983 370.466 49.7216 370.5 51.6875H364.415Z" fill="#A8B0B7"/>
<path d="M386.403 77.4773C383.948 77.4773 381.766 77.0568 379.857 76.2159C377.959 75.375 376.459 74.2045 375.357 72.7045C374.255 71.2045 373.67 69.4716 373.601 67.5057H380.011C380.067 68.4489 380.38 69.2727 380.948 69.9773C381.516 70.6705 382.272 71.2102 383.215 71.5966C384.158 71.983 385.215 72.1761 386.386 72.1761C387.636 72.1761 388.743 71.9602 389.709 71.5284C390.675 71.0852 391.431 70.4716 391.976 69.6875C392.522 68.9034 392.789 68 392.778 66.9773C392.789 65.9205 392.516 64.9886 391.959 64.1818C391.403 63.375 390.596 62.7443 389.539 62.2898C388.493 61.8352 387.232 61.608 385.755 61.608H382.67V56.733H385.755C386.971 56.733 388.033 56.5227 388.942 56.1023C389.863 55.6818 390.584 55.0909 391.107 54.3295C391.63 53.5568 391.886 52.6648 391.874 51.6534C391.886 50.6648 391.664 49.8068 391.209 49.0795C390.766 48.3409 390.136 47.767 389.317 47.358C388.511 46.9489 387.562 46.7443 386.471 46.7443C385.403 46.7443 384.414 46.9375 383.505 47.3239C382.596 47.7102 381.863 48.2614 381.306 48.9773C380.749 49.6818 380.454 50.5227 380.42 51.5H374.334C374.38 49.5455 374.942 47.8295 376.022 46.3523C377.113 44.8636 378.567 43.7045 380.386 42.875C382.204 42.0341 384.243 41.6136 386.505 41.6136C388.834 41.6136 390.857 42.0511 392.573 42.9261C394.3 43.7898 395.636 44.9545 396.579 46.4205C397.522 47.8864 397.993 49.5057 397.993 51.2784C398.005 53.2443 397.425 54.892 396.255 56.2216C395.096 57.5511 393.573 58.4205 391.687 58.8295V59.1023C394.141 59.4432 396.022 60.3523 397.329 61.8295C398.647 63.2955 399.3 65.1193 399.289 67.3011C399.289 69.2557 398.732 71.0057 397.618 72.5511C396.516 74.0852 394.993 75.2898 393.05 76.1648C391.118 77.0398 388.903 77.4773 386.403 77.4773ZM415.643 77.6648C412.836 77.6648 410.427 76.9545 408.416 75.5341C406.416 74.1023 404.876 72.0398 403.797 69.3466C402.728 66.642 402.194 63.3864 402.194 59.5795C402.206 55.7727 402.745 52.5341 403.814 49.8636C404.893 47.1818 406.433 45.1364 408.433 43.7273C410.444 42.3182 412.848 41.6136 415.643 41.6136C418.439 41.6136 420.842 42.3182 422.853 43.7273C424.865 45.1364 426.405 47.1818 427.473 49.8636C428.552 52.5455 429.092 55.7841 429.092 59.5795C429.092 63.3977 428.552 66.6591 427.473 69.3636C426.405 72.0568 424.865 74.1136 422.853 75.5341C420.853 76.9545 418.45 77.6648 415.643 77.6648ZM415.643 72.3295C417.825 72.3295 419.547 71.2557 420.808 69.108C422.081 66.9489 422.717 63.7727 422.717 59.5795C422.717 56.8068 422.427 54.4773 421.848 52.5909C421.268 50.7045 420.45 49.2841 419.393 48.3295C418.336 47.3636 417.086 46.8807 415.643 46.8807C413.473 46.8807 411.757 47.9602 410.495 50.1193C409.234 52.267 408.598 55.4205 408.586 59.5795C408.575 62.3636 408.853 64.7045 409.422 66.6023C410.001 68.5 410.819 69.9318 411.876 70.8977C412.933 71.8523 414.189 72.3295 415.643 72.3295ZM445.259 77.6648C442.452 77.6648 440.043 76.9545 438.032 75.5341C436.032 74.1023 434.492 72.0398 433.412 69.3466C432.344 66.642 431.81 63.3864 431.81 59.5795C431.821 55.7727 432.361 52.5341 433.429 49.8636C434.509 47.1818 436.049 45.1364 438.049 43.7273C440.06 42.3182 442.463 41.6136 445.259 41.6136C448.054 41.6136 450.458 42.3182 452.469 43.7273C454.48 45.1364 456.02 47.1818 457.088 49.8636C458.168 52.5455 458.708 55.7841 458.708 59.5795C458.708 63.3977 458.168 66.6591 457.088 69.3636C456.02 72.0568 454.48 74.1136 452.469 75.5341C450.469 76.9545 448.066 77.6648 445.259 77.6648ZM445.259 72.3295C447.441 72.3295 449.162 71.2557 450.424 69.108C451.696 66.9489 452.333 63.7727 452.333 59.5795C452.333 56.8068 452.043 54.4773 451.463 52.5909C450.884 50.7045 450.066 49.2841 449.009 48.3295C447.952 47.3636 446.702 46.8807 445.259 46.8807C443.088 46.8807 441.372 47.9602 440.111 50.1193C438.85 52.267 438.213 55.4205 438.202 59.5795C438.191 62.3636 438.469 64.7045 439.037 66.6023C439.617 68.5 440.435 69.9318 441.492 70.8977C442.549 71.8523 443.804 72.3295 445.259 72.3295ZM474.874 77.6648C472.068 77.6648 469.659 76.9545 467.647 75.5341C465.647 74.1023 464.107 72.0398 463.028 69.3466C461.96 66.642 461.426 63.3864 461.426 59.5795C461.437 55.7727 461.977 52.5341 463.045 49.8636C464.124 47.1818 465.664 45.1364 467.664 43.7273C469.676 42.3182 472.079 41.6136 474.874 41.6136C477.67 41.6136 480.073 42.3182 482.085 43.7273C484.096 45.1364 485.636 47.1818 486.704 49.8636C487.784 52.5455 488.323 55.7841 488.323 59.5795C488.323 63.3977 487.784 66.6591 486.704 69.3636C485.636 72.0568 484.096 74.1136 482.085 75.5341C480.085 76.9545 477.681 77.6648 474.874 77.6648ZM474.874 72.3295C477.056 72.3295 478.778 71.2557 480.039 69.108C481.312 66.9489 481.948 63.7727 481.948 59.5795C481.948 56.8068 481.659 54.4773 481.079 52.5909C480.499 50.7045 479.681 49.2841 478.624 48.3295C477.568 47.3636 476.318 46.8807 474.874 46.8807C472.704 46.8807 470.988 47.9602 469.727 50.1193C468.465 52.267 467.829 55.4205 467.818 59.5795C467.806 62.3636 468.085 64.7045 468.653 66.6023C469.232 68.5 470.051 69.9318 471.107 70.8977C472.164 71.8523 473.42 72.3295 474.874 72.3295Z" fill="black"/>
<path d="M351.371 99.8182V110H349.731L344.933 103.065H344.849V110H343.004V99.8182H344.655L349.447 106.759H349.537V99.8182H351.371ZM355.982 110.149C355.217 110.149 354.556 109.99 353.999 109.672C353.445 109.35 353.019 108.896 352.721 108.31C352.423 107.72 352.274 107.025 352.274 106.227C352.274 105.441 352.423 104.752 352.721 104.158C353.023 103.562 353.444 103.098 353.984 102.766C354.524 102.432 355.159 102.264 355.888 102.264C356.359 102.264 356.803 102.34 357.22 102.493C357.641 102.642 358.012 102.874 358.334 103.189C358.659 103.504 358.914 103.905 359.1 104.392C359.285 104.876 359.378 105.453 359.378 106.122V106.674H353.119V105.461H357.653C357.649 105.116 357.575 104.81 357.429 104.541C357.283 104.269 357.079 104.056 356.818 103.9C356.559 103.744 356.257 103.666 355.913 103.666C355.545 103.666 355.222 103.756 354.943 103.935C354.665 104.11 354.448 104.342 354.292 104.631C354.14 104.916 354.062 105.229 354.058 105.57V106.629C354.058 107.073 354.14 107.455 354.302 107.773C354.464 108.088 354.691 108.33 354.983 108.499C355.275 108.664 355.616 108.747 356.007 108.747C356.269 108.747 356.506 108.711 356.718 108.638C356.93 108.562 357.114 108.451 357.27 108.305C357.426 108.159 357.543 107.978 357.623 107.763L359.303 107.952C359.197 108.396 358.995 108.784 358.697 109.115C358.402 109.443 358.024 109.698 357.563 109.881C357.103 110.06 356.576 110.149 355.982 110.149ZM361.508 102.364L363.049 105.183L364.615 102.364H366.519L364.218 106.182L366.559 110H364.665L363.049 107.251L361.448 110H359.539L361.866 106.182L359.599 102.364H361.508ZM371.025 102.364V103.756H366.635V102.364H371.025ZM367.719 100.534H369.518V107.703C369.518 107.945 369.555 108.131 369.628 108.26C369.704 108.386 369.803 108.472 369.926 108.518C370.049 108.565 370.184 108.588 370.334 108.588C370.446 108.588 370.549 108.58 370.642 108.563C370.738 108.547 370.811 108.532 370.861 108.518L371.164 109.925C371.068 109.959 370.93 109.995 370.751 110.035C370.576 110.075 370.36 110.098 370.105 110.104C369.654 110.118 369.248 110.05 368.887 109.901C368.526 109.748 368.239 109.513 368.027 109.195C367.818 108.876 367.715 108.479 367.719 108.001V100.534ZM374.602 110V102.364H376.323V103.661H376.412C376.571 103.224 376.835 102.882 377.203 102.637C377.57 102.388 378.01 102.264 378.52 102.264C379.037 102.264 379.473 102.39 379.828 102.642C380.186 102.891 380.437 103.23 380.583 103.661H380.663C380.832 103.237 381.117 102.899 381.518 102.647C381.922 102.392 382.401 102.264 382.955 102.264C383.657 102.264 384.231 102.486 384.675 102.93C385.119 103.375 385.341 104.022 385.341 104.874V110H383.536V105.153C383.536 104.679 383.41 104.332 383.159 104.114C382.907 103.892 382.598 103.781 382.234 103.781C381.8 103.781 381.46 103.916 381.215 104.188C380.973 104.457 380.852 104.806 380.852 105.237V110H379.087V105.078C379.087 104.684 378.968 104.369 378.729 104.134C378.494 103.898 378.185 103.781 377.804 103.781C377.546 103.781 377.31 103.847 377.098 103.979C376.886 104.109 376.717 104.293 376.591 104.531C376.465 104.767 376.402 105.042 376.402 105.357V110H374.602ZM389.798 110.149C389.052 110.149 388.406 109.985 387.859 109.657C387.312 109.329 386.888 108.87 386.586 108.28C386.288 107.69 386.139 107 386.139 106.212C386.139 105.423 386.288 104.732 386.586 104.138C386.888 103.545 387.312 103.085 387.859 102.756C388.406 102.428 389.052 102.264 389.798 102.264C390.544 102.264 391.19 102.428 391.737 102.756C392.284 103.085 392.706 103.545 393.005 104.138C393.306 104.732 393.457 105.423 393.457 106.212C393.457 107 393.306 107.69 393.005 108.28C392.706 108.87 392.284 109.329 391.737 109.657C391.19 109.985 390.544 110.149 389.798 110.149ZM389.808 108.707C390.212 108.707 390.55 108.596 390.822 108.374C391.094 108.149 391.296 107.847 391.429 107.469C391.564 107.092 391.632 106.671 391.632 106.207C391.632 105.739 391.564 105.317 391.429 104.939C391.296 104.558 391.094 104.254 390.822 104.029C390.55 103.804 390.212 103.691 389.808 103.691C389.394 103.691 389.049 103.804 388.774 104.029C388.502 104.254 388.298 104.558 388.162 104.939C388.03 105.317 387.963 105.739 387.963 106.207C387.963 106.671 388.03 107.092 388.162 107.469C388.298 107.847 388.502 108.149 388.774 108.374C389.049 108.596 389.394 108.707 389.808 108.707ZM396.084 105.526V110H394.284V102.364H396.005V103.661H396.094C396.27 103.234 396.55 102.894 396.934 102.642C397.322 102.39 397.801 102.264 398.371 102.264C398.898 102.264 399.357 102.377 399.748 102.602C400.143 102.828 400.448 103.154 400.663 103.582C400.882 104.009 400.989 104.528 400.986 105.138V110H399.186V105.416C399.186 104.906 399.054 104.506 398.789 104.218C398.527 103.93 398.164 103.786 397.7 103.786C397.385 103.786 397.105 103.855 396.86 103.994C396.618 104.13 396.427 104.327 396.288 104.586C396.152 104.844 396.084 105.158 396.084 105.526ZM405.929 102.364V103.756H401.539V102.364H405.929ZM402.623 100.534H404.423V107.703C404.423 107.945 404.459 108.131 404.532 108.26C404.608 108.386 404.708 108.472 404.83 108.518C404.953 108.565 405.089 108.588 405.238 108.588C405.351 108.588 405.453 108.58 405.546 108.563C405.642 108.547 405.715 108.532 405.765 108.518L406.068 109.925C405.972 109.959 405.834 109.995 405.656 110.035C405.48 110.075 405.264 110.098 405.009 110.104C404.558 110.118 404.152 110.05 403.791 109.901C403.43 109.748 403.143 109.513 402.931 109.195C402.722 108.876 402.62 108.479 402.623 108.001V100.534ZM408.698 105.526V110H406.898V99.8182H408.658V103.661H408.748C408.927 103.23 409.203 102.891 409.578 102.642C409.956 102.39 410.436 102.264 411.02 102.264C411.55 102.264 412.012 102.375 412.407 102.597C412.801 102.819 413.106 103.144 413.321 103.572C413.54 103.999 413.65 104.521 413.65 105.138V110H411.85V105.416C411.85 104.902 411.717 104.503 411.452 104.218C411.19 103.93 410.822 103.786 410.348 103.786C410.03 103.786 409.745 103.855 409.493 103.994C409.245 104.13 409.049 104.327 408.907 104.586C408.767 104.844 408.698 105.158 408.698 105.526Z" fill="#A8B0B7"/>
<g clip-path="url(#clip1_2011_29)">
<path d="M631 56.5C631 86.8757 606.376 111.5 576 111.5C545.624 111.5 521 86.8757 521 56.5C521 26.1243 545.624 1.5 576 1.5C606.376 1.5 631 26.1243 631 56.5ZM536.477 56.5C536.477 78.3282 554.172 96.0234 576 96.0234C597.828 96.0234 615.523 78.3282 615.523 56.5C615.523 34.6718 597.828 16.9766 576 16.9766C554.172 16.9766 536.477 34.6718 536.477 56.5Z" fill="#F5F7F9"/>
<path d="M530.721 42.9535C526.627 41.7286 522.256 44.0549 521.618 48.2806C520.24 57.3981 521.17 66.7601 524.383 75.4915C528.491 86.6557 536.107 96.1872 546.09 102.656C556.073 109.125 567.885 112.184 579.753 111.372C591.621 110.56 602.906 105.922 611.915 98.1543C620.925 90.3862 627.173 79.9064 629.722 68.2869C632.272 56.6675 630.985 44.5346 626.055 33.7082C621.126 22.8818 612.819 13.9455 602.381 8.23968C594.217 3.77717 585.094 1.47879 575.873 1.50008C571.599 1.50994 568.655 5.49064 569.264 9.72075C569.873 13.9509 573.818 16.8061 578.085 17.0316C583.965 17.3423 589.734 18.9647 594.957 21.8198C602.458 25.92 608.428 32.3417 611.97 40.1217C615.513 47.9016 616.437 56.6203 614.605 64.9702C612.773 73.32 608.283 80.8508 601.809 86.4331C595.335 92.0153 587.225 95.348 578.697 95.9313C570.168 96.5146 561.681 94.317 554.507 89.6683C547.333 85.0195 541.859 78.1701 538.908 70.1475C536.852 64.5611 536.097 58.6155 536.654 52.7545C537.059 48.5 534.816 44.1785 530.721 42.9535Z" fill="#6ED375"/>
<path d="M552.733 62.7045V50.9091H555.409V62.7045H552.733ZM548.173 58.1449V55.4688H559.969V58.1449H548.173ZM568.704 65.7386C567.437 65.7386 566.312 65.5256 565.329 65.0994C564.352 64.6733 563.585 64.0909 563.028 63.3523C562.477 62.608 562.204 61.7642 562.21 60.821C562.204 60.0881 562.363 59.4148 562.687 58.8011C563.011 58.1875 563.448 57.6761 564 57.267C564.556 56.8523 565.176 56.5881 565.858 56.4744V56.3551C564.96 56.1562 564.233 55.6989 563.676 54.983C563.125 54.2614 562.852 53.429 562.858 52.4858C562.852 51.5881 563.102 50.7869 563.608 50.0824C564.113 49.3778 564.806 48.8239 565.687 48.4205C566.568 48.0114 567.573 47.8068 568.704 47.8068C569.823 47.8068 570.821 48.0114 571.696 48.4205C572.576 48.8239 573.269 49.3778 573.775 50.0824C574.287 50.7869 574.542 51.5881 574.542 52.4858C574.542 53.429 574.261 54.2614 573.698 54.983C573.142 55.6989 572.423 56.1562 571.542 56.3551V56.4744C572.224 56.5881 572.838 56.8523 573.383 57.267C573.934 57.6761 574.372 58.1875 574.696 58.8011C575.025 59.4148 575.19 60.0881 575.19 60.821C575.19 61.7642 574.912 62.608 574.355 63.3523C573.798 64.0909 573.031 64.6733 572.054 65.0994C571.082 65.5256 569.965 65.7386 568.704 65.7386ZM568.704 63.3011C569.358 63.3011 569.926 63.1903 570.409 62.9688C570.892 62.7415 571.267 62.4233 571.534 62.0142C571.801 61.6051 571.937 61.1335 571.943 60.5994C571.937 60.0426 571.792 59.5511 571.508 59.125C571.23 58.6932 570.846 58.3551 570.358 58.1108C569.875 57.8665 569.323 57.7443 568.704 57.7443C568.079 57.7443 567.522 57.8665 567.034 58.1108C566.545 58.3551 566.159 58.6932 565.875 59.125C565.596 59.5511 565.46 60.0426 565.465 60.5994C565.46 61.1335 565.59 61.6051 565.858 62.0142C566.125 62.4176 566.5 62.733 566.983 62.9602C567.471 63.1875 568.045 63.3011 568.704 63.3011ZM568.704 55.3494C569.238 55.3494 569.71 55.2415 570.119 55.0256C570.534 54.8097 570.86 54.5085 571.099 54.1222C571.338 53.7358 571.46 53.2898 571.465 52.7841C571.46 52.2841 571.34 51.8466 571.108 51.4716C570.875 51.0909 570.551 50.7983 570.136 50.5938C569.721 50.3835 569.244 50.2784 568.704 50.2784C568.153 50.2784 567.667 50.3835 567.247 50.5938C566.832 50.7983 566.508 51.0909 566.275 51.4716C566.048 51.8466 565.937 52.2841 565.943 52.7841C565.937 53.2898 566.051 53.7358 566.284 54.1222C566.522 54.5028 566.849 54.804 567.264 55.0256C567.684 55.2415 568.164 55.3494 568.704 55.3494ZM583.243 65.8324C581.84 65.8324 580.636 65.4773 579.63 64.767C578.63 64.0511 577.86 63.0199 577.32 61.6733C576.786 60.321 576.519 58.6932 576.519 56.7898C576.525 54.8864 576.795 53.267 577.329 51.9318C577.868 50.5909 578.638 49.5682 579.638 48.8636C580.644 48.1591 581.846 47.8068 583.243 47.8068C584.641 47.8068 585.843 48.1591 586.849 48.8636C587.854 49.5682 588.624 50.5909 589.158 51.9318C589.698 53.2727 589.968 54.892 589.968 56.7898C589.968 58.6989 589.698 60.3295 589.158 61.6818C588.624 63.0284 587.854 64.0568 586.849 64.767C585.849 65.4773 584.647 65.8324 583.243 65.8324ZM583.243 63.1648C584.334 63.1648 585.195 62.6278 585.826 61.554C586.462 60.4744 586.78 58.8864 586.78 56.7898C586.78 55.4034 586.636 54.2386 586.346 53.2955C586.056 52.3523 585.647 51.642 585.118 51.1648C584.59 50.6818 583.965 50.4403 583.243 50.4403C582.158 50.4403 581.3 50.9801 580.67 52.0597C580.039 53.1335 579.721 54.7102 579.715 56.7898C579.709 58.1818 579.849 59.3523 580.133 60.3011C580.422 61.25 580.832 61.9659 581.36 62.4489C581.888 62.9261 582.516 63.1648 583.243 63.1648ZM600.932 62.2273V61.3068C600.932 60.6307 601.074 60.0085 601.358 59.4403C601.648 58.8722 602.068 58.4148 602.619 58.0682C603.171 57.7216 603.838 57.5483 604.622 57.5483C605.429 57.5483 606.105 57.7216 606.651 58.0682C607.196 58.4091 607.608 58.8636 607.887 59.4318C608.171 60 608.313 60.625 608.313 61.3068V62.2273C608.313 62.9034 608.171 63.5256 607.887 64.0938C607.602 64.6619 607.185 65.1193 606.634 65.4659C606.088 65.8125 605.418 65.9858 604.622 65.9858C603.827 65.9858 603.154 65.8125 602.602 65.4659C602.051 65.1193 601.634 64.6619 601.35 64.0938C601.071 63.5256 600.932 62.9034 600.932 62.2273ZM603.156 61.3068V62.2273C603.156 62.6761 603.264 63.0881 603.48 63.4631C603.696 63.8381 604.077 64.0256 604.622 64.0256C605.173 64.0256 605.551 63.8409 605.756 63.4716C605.966 63.0966 606.071 62.6818 606.071 62.2273V61.3068C606.071 60.8523 605.972 60.4375 605.773 60.0625C605.574 59.6818 605.19 59.4915 604.622 59.4915C604.088 59.4915 603.71 59.6818 603.489 60.0625C603.267 60.4375 603.156 60.8523 603.156 61.3068ZM592.06 52.2386V51.3182C592.06 50.6364 592.205 50.0114 592.494 49.4432C592.784 48.875 593.205 48.4205 593.756 48.0795C594.307 47.733 594.975 47.5597 595.759 47.5597C596.56 47.5597 597.233 47.733 597.779 48.0795C598.33 48.4205 598.744 48.875 599.023 49.4432C599.301 50.0114 599.44 50.6364 599.44 51.3182V52.2386C599.44 52.9205 599.298 53.5455 599.014 54.1136C598.736 54.6761 598.321 55.1278 597.77 55.4688C597.219 55.8097 596.548 55.9801 595.759 55.9801C594.958 55.9801 594.281 55.8097 593.73 55.4688C593.185 55.1278 592.77 54.6733 592.486 54.1051C592.202 53.5369 592.06 52.9148 592.06 52.2386ZM594.301 51.3182V52.2386C594.301 52.6932 594.406 53.108 594.617 53.483C594.833 53.8523 595.213 54.0369 595.759 54.0369C596.304 54.0369 596.679 53.8523 596.884 53.483C597.094 53.108 597.199 52.6932 597.199 52.2386V51.3182C597.199 50.8636 597.1 50.4489 596.901 50.0739C596.702 49.6932 596.321 49.5028 595.759 49.5028C595.219 49.5028 594.841 49.6932 594.625 50.0739C594.409 50.4545 594.301 50.8693 594.301 51.3182ZM593.031 65.5L605.031 48.0455H607.162L595.162 65.5H593.031Z" fill="#6ED375"/>
</g>
<defs>
<clipPath id="clip0_2011_29">
<rect width="110" height="110" fill="white" transform="translate(169 1.5)"/>
</clipPath>
<clipPath id="clip1_2011_29">
<rect width="110" height="110" fill="white" transform="translate(521 1.5)"/>
</clipPath>
</defs>
</svg>
