<svg width="21" height="21" viewBox="0 0 21 21" fill="none" xmlns="http://www.w3.org/2000/svg">
<path d="M8.67104 3.14626C9.47837 1.74792 11.4967 1.74792 12.304 3.14626L17.7535 12.585C18.5608 13.9834 17.5517 15.7313 15.937 15.7313H5.03805C3.42339 15.7313 2.41423 13.9834 3.22156 12.585L8.67104 3.14626Z" fill="#F18383"/>
<path d="M10.0601 11.4735L9.83861 7.15427H11.2045L10.9738 11.4735H10.0601ZM10.5216 13.6792C10.3062 13.6792 10.1278 13.6084 9.98627 13.4669C9.84476 13.3254 9.77401 13.1562 9.77401 12.9593C9.77401 12.7624 9.84476 12.5963 9.98627 12.461C10.1278 12.3195 10.3062 12.2487 10.5216 12.2487C10.7369 12.2487 10.9123 12.3195 11.0476 12.461C11.183 12.5963 11.2507 12.7624 11.2507 12.9593C11.2507 13.1562 11.183 13.3254 11.0476 13.4669C10.9123 13.6084 10.7369 13.6792 10.5216 13.6792Z" fill="white"/>
</svg>
