<svg width="60" height="60" viewBox="0 0 60 60" fill="none" xmlns="http://www.w3.org/2000/svg">
<rect width="60" height="60" rx="30" fill="#0370F3" fill-opacity="0.25"/>
<path d="M45.1732 21.2452C45.1303 20.3003 45.1303 19.3983 45.1303 18.4963C45.1303 17.7662 44.5719 17.2078 43.8418 17.2078C38.4729 17.2078 34.3926 15.6616 30.9995 12.3543C30.484 11.8819 29.7109 11.8819 29.1955 12.3543C25.8024 15.6616 21.7221 17.2078 16.3532 17.2078C15.623 17.2078 15.0647 17.7662 15.0647 18.4963C15.0647 19.3983 15.0647 20.3003 15.0217 21.2452C14.8499 30.2649 14.5922 42.6347 29.668 47.8318L30.0975 47.9177L30.527 47.8318C45.5598 42.6347 45.345 30.3078 45.1732 21.2452ZM29.0667 33.7439C28.809 33.9586 28.5083 34.0875 28.1647 34.0875H28.1217C27.7781 34.0875 27.4345 33.9157 27.2198 33.658L23.2253 29.234L25.1581 27.516L28.2935 30.995L35.2516 24.3806L37.0126 26.2704L29.0667 33.7439Z" fill="#0370F3"/>
</svg>
