<svg width="60" height="60" viewBox="0 0 60 60" fill="none" xmlns="http://www.w3.org/2000/svg">
<rect width="60" height="60" rx="30" fill="#38D37F" fill-opacity="0.25"/>
<path fill-rule="evenodd" clip-rule="evenodd" d="M41.2626 22.5811C42.0688 23.871 42.6376 25.267 42.9696 26.7064L46.7012 27.2879C47.1399 27.3563 47.4576 27.7274 47.4576 28.1714V31.3791C47.4576 31.8231 47.1399 32.1942 46.7012 32.2625L42.9697 32.8441C42.6376 34.2835 42.0685 35.6792 41.2624 36.9692L43.4889 40.0178C43.7507 40.3763 43.713 40.8634 43.3991 41.1773L41.1309 43.4455C40.8169 43.7595 40.3299 43.7972 39.9713 43.5353L36.923 41.309C35.633 42.1152 34.2371 42.684 32.7976 43.016L32.2161 46.7476C32.1477 47.1863 31.7766 47.5041 31.3327 47.5041H28.125C27.681 47.5041 27.3099 47.1863 27.2415 46.7476L26.66 43.0162C25.2206 42.684 23.8248 42.1149 22.5349 41.3088L19.4863 43.5353C19.1278 43.7972 18.6407 43.7594 18.3267 43.4455L16.0586 41.1773C15.7446 40.8634 15.7069 40.3763 15.9688 40.0177L18.1951 36.9694C17.3888 35.6794 16.8201 34.2835 16.488 32.8441L12.7565 32.2625C12.3178 32.1941 12 31.823 12 31.3791L12 28.1714C12 27.7274 12.3177 27.3563 12.7565 27.288L16.4879 26.7064C16.8201 25.267 17.3892 23.8712 18.1952 22.5813L15.9688 19.5327C15.7069 19.1742 15.7446 18.6871 16.0586 18.3731L18.3267 16.105C18.6407 15.791 19.1277 15.7533 19.4863 16.0152L22.5353 18.242C23.8251 17.4359 25.2207 16.867 26.6599 16.5348L27.2415 12.8028C27.3099 12.3641 27.681 12.0464 28.125 12.0464L31.3326 12.0464C31.7767 12.0464 32.1477 12.3641 32.2161 12.8028L32.7976 16.5343C34.2371 16.8664 35.633 17.4352 36.923 18.2415L39.9713 16.0152C40.3299 15.7533 40.817 15.791 41.1309 16.105L43.3991 18.3731C43.713 18.6871 43.7508 19.1742 43.4889 19.5327L41.2626 22.5811ZM32.5258 19.3369C26.7608 17.7922 20.8352 21.2134 19.2905 26.9783C17.7458 32.7432 21.167 38.6689 26.9319 40.2136C32.6968 41.7583 38.6225 38.3371 40.1671 32.5722C41.7119 26.8073 38.2907 20.8816 32.5258 19.3369Z" fill="#38D37F"/>
<path fill-rule="evenodd" clip-rule="evenodd" d="M21.0059 34.3738L22.4423 32.9373C22.8354 32.5442 23.322 32.1793 23.0459 31.5301C22.6083 29.4685 23.1897 27.2339 24.791 25.6327C26.585 23.8387 29.1738 23.3247 31.4237 24.0898L27.6039 27.9097L28.4243 31.1412L31.6222 31.9281L35.4421 28.1082C36.2073 30.358 35.6933 32.9469 33.8993 34.7409C32.298 36.3422 30.0634 36.9236 28.0018 36.486C27.4007 36.3868 27.2875 36.3967 26.9211 36.7631L25.1656 38.5187C23.3939 37.5963 21.9464 36.1565 21.0059 34.3738Z" fill="#38D37F"/>
</svg>
