<svg width="60" height="60" viewBox="0 0 60 60" fill="none" xmlns="http://www.w3.org/2000/svg">
<rect width="60" height="60" rx="30" fill="#F38503" fill-opacity="0.25"/>
<path d="M46.8001 22.9399V19.94C46.8001 18.6146 45.7255 17.54 44.4001 17.54H14.4009C13.0755 17.54 12.001 18.6146 12.001 19.94V22.9399H46.8001Z" fill="#F38503"/>
<path d="M32.0206 25.3398H12.001V39.1395C12.001 40.4648 13.0755 41.5394 14.4009 41.5394H30.1649C28.5635 39.5763 27.6006 37.0713 27.6006 34.3396C27.6006 30.6767 29.3357 27.426 32.0206 25.3398ZM14.4009 33.7396H22.2007V35.5396H14.4009V33.7396ZM25.2006 39.1395H14.4009V37.3395H25.2006V39.1395Z" fill="#F38503"/>
<path d="M38.9998 25.3398C34.0295 25.3398 30 29.3693 30 34.3396C30 39.3099 34.0295 43.3394 38.9998 43.3394C43.97 43.3394 47.9995 39.3099 47.9995 34.3396C47.9995 29.3693 43.97 25.3398 38.9998 25.3398ZM38.3998 39.0363L33.9515 34.588L35.6483 32.8912L38.3998 35.6428L42.9513 31.0913L44.648 32.788L38.3998 39.0363Z" fill="#F38503"/>
</svg>
