<svg width="60" height="60" viewBox="0 0 60 60" fill="none" xmlns="http://www.w3.org/2000/svg">
<rect width="60" height="60" rx="30" fill="#15B8C2" fill-opacity="0.25"/>
<path d="M29.9991 14.4995C21.3916 14.4995 14.3984 21.4927 14.3984 30.1002C14.3984 38.7077 21.3916 45.7009 29.9991 45.7009C38.6067 45.7009 45.5998 38.7077 45.5998 30.1002C45.5998 21.4927 38.6067 14.4995 29.9991 14.4995ZM29.2467 16.0425V17.7531C26.3982 17.9255 23.8117 19.0582 21.802 20.8391L20.5852 19.6223C22.9061 17.5362 25.9191 16.218 29.2467 16.0425ZM30.7515 16.0425C34.0791 16.218 37.0921 17.5362 39.413 19.6223L38.1962 20.8391C36.1865 19.0582 33.6 17.9255 30.7515 17.7531V16.0425ZM19.5213 20.6863L20.738 21.9031C18.9571 23.9128 17.8244 26.4993 17.652 29.3478H15.9415C16.1169 26.0202 17.4351 23.0072 19.5213 20.6863ZM40.477 20.6863C42.5631 23.0072 43.8813 26.0202 44.0568 29.3478H42.3462C42.1738 26.4993 41.0411 23.9128 39.2602 21.9031L40.477 20.6863ZM28.6648 22.291H30.1696V23.0434V24.3425H31.5245C33.2962 24.3425 34.731 25.8165 34.731 27.599C34.731 28.6819 34.1187 29.5069 33.3056 30.1002C34.1187 30.6935 34.731 31.5185 34.731 32.6014C34.731 34.3838 33.2962 35.8579 31.5245 35.8579H30.1696V37.1569V37.9093H28.6648V37.1569V35.8579H25.2672V30.8526V29.3478V24.3425H28.6648V23.0434V22.291ZM26.772 25.8473V29.3478H31.5245C32.4732 29.3478 33.2262 28.5893 33.2262 27.599C33.2262 26.6087 32.4732 25.8473 31.5245 25.8473H26.772ZM15.9415 30.8526H17.652C17.8244 33.7011 18.9571 36.2876 20.738 38.2973L19.5213 39.5141C17.4351 37.1932 16.1169 34.1802 15.9415 30.8526ZM26.772 30.8526V34.3531H31.5245C32.4732 34.3531 33.2262 33.5916 33.2262 32.6014C33.2262 31.6111 32.4732 30.8526 31.5245 30.8526H26.772ZM42.3462 30.8526H44.0568C43.8813 34.1802 42.5631 37.1932 40.477 39.5141L39.2602 38.2973C41.0411 36.2876 42.1738 33.7011 42.3462 30.8526ZM21.802 39.3613C23.8117 41.1422 26.3982 42.2749 29.2467 42.4473V44.1578C25.9191 43.9824 22.9061 42.6642 20.5852 40.578L21.802 39.3613ZM38.1962 39.3613L39.413 40.578C37.0921 42.6642 34.0791 43.9824 30.7515 44.1578V42.4473C33.6 42.2749 36.1865 41.1422 38.1962 39.3613Z" fill="#15B8C2"/>
</svg>
