<svg width="143" height="143" viewBox="0 0 143 143" fill="none" xmlns="http://www.w3.org/2000/svg">
<circle cx="71.5" cy="71.5" r="68.5" stroke="#0370F3" stroke-width="6"/>
<path d="M72.0001 43C58.5146 43 44 45.3901 44 50.6364V59.5455C44 66.0819 60.7443 68.4546 72.0001 68.4546C83.2558 68.4546 100 66.082 100 59.5455V50.6364C100 45.3901 85.4855 43 72.0001 43ZM72.0001 55.7273C57.1773 55.7273 49.091 52.364 49.091 50.6364C49.091 48.9088 57.1773 45.5454 72.0001 45.5454C86.8228 45.5454 94.9092 48.9086 94.9092 50.6364C94.9092 52.364 86.8228 55.7273 72.0001 55.7273Z" fill="black"/>
<path d="M98.0765 81.3863C90.1713 86.0939 74.3309 86.273 72.0001 86.273C69.6692 86.273 53.8288 86.0938 45.9236 81.3863C45.068 80.8768 44 81.4652 44 82.4609V90.0912C44 95.9403 58.0858 99.0003 72.0001 99.0003C85.9144 99.0003 100 95.9403 100 90.0912V82.4609C100 81.4652 98.932 80.8768 98.0765 81.3863Z" fill="black"/>
<path d="M98.0765 66.1129C90.1713 70.8204 74.3309 70.9995 72.0001 70.9995C69.6692 70.9995 53.8288 70.8203 45.9236 66.1129C45.068 65.6034 44 66.1917 44 67.1874V74.8177C44 81.3541 60.7443 83.7269 72.0001 83.7269C83.2558 83.7269 100 81.3542 100 74.8177V67.1874C100 66.1917 98.932 65.6034 98.0765 66.1129Z" fill="black"/>
</svg>
