<svg width="40" height="40" viewBox="0 0 40 40" fill="none" xmlns="http://www.w3.org/2000/svg">
<rect width="40" height="40" rx="20" fill="#F5F7F9"/>
<path d="M26.4849 22.5819V18.8775C26.4849 16.1259 24.7239 13.7265 22.2993 12.8303C22.3277 12.6887 22.3434 12.5441 22.3434 12.3994C22.3434 11.2139 21.3811 10.2516 20.1956 10.2516C19.01 10.2516 18.0477 11.2139 18.0477 12.3994C18.0477 12.5409 18.0634 12.6824 18.0886 12.8177C17.2553 13.1133 16.4848 13.5818 15.8276 14.217C14.5886 15.412 13.9062 17.0189 13.9062 18.7422V22.5819C13.9062 22.7171 13.7961 22.8304 13.6578 22.8304C12.4974 22.8304 11.5068 23.7046 11.3999 24.8178C11.3401 25.4373 11.5445 26.0537 11.9628 26.5128C12.3779 26.9688 12.9722 27.2329 13.5917 27.2329H17.3842C17.5414 28.6449 18.7427 29.7487 20.1956 29.7487C21.6484 29.7487 22.8497 28.6449 23.0069 27.2329H26.7995C27.419 27.2329 28.0133 26.9688 28.4284 26.5128C28.8435 26.0537 29.0479 25.4373 28.9913 24.8178C28.8844 23.7046 27.8907 22.8304 26.7334 22.8304C26.595 22.8303 26.4849 22.7202 26.4849 22.5819ZM20.1956 11.5094C20.6861 11.5094 21.0855 11.9088 21.0855 12.3994C21.0855 12.4402 21.0792 12.478 21.0729 12.5188C20.8591 12.4874 20.6421 12.4654 20.4251 12.4591C20.0508 12.4465 19.6829 12.4717 19.3181 12.522C19.3118 12.4811 19.3055 12.4434 19.3055 12.4025C19.3056 11.9088 19.705 11.5094 20.1956 11.5094ZM20.1956 28.4907C19.4377 28.4907 18.8025 27.9498 18.6547 27.2329H21.7364C21.5887 27.9499 20.9535 28.4907 20.1956 28.4907ZM27.7397 24.9373C27.7648 25.2077 27.6799 25.4687 27.5007 25.6668C27.3152 25.865 27.0699 25.975 26.7995 25.975H13.5918C13.3213 25.975 13.0761 25.8649 12.8936 25.6668C12.7112 25.4687 12.6263 25.2077 12.6515 24.9373C12.6955 24.4624 13.1389 24.0882 13.6578 24.0882C14.488 24.0882 15.1641 23.4121 15.1641 22.5819V18.7422C15.1641 17.3649 15.7112 16.0787 16.7018 15.1227C17.6484 14.2076 18.8811 13.7107 20.1956 13.7107C20.2585 13.7107 20.3182 13.7107 20.3811 13.7139C23.0509 13.8082 25.2271 16.1259 25.2271 18.8775V22.5819C25.2271 23.4121 25.9032 24.0882 26.7334 24.0882C27.2522 24.0882 27.6925 24.4624 27.7397 24.9373Z" fill="#A8B0B7"/>
<circle cx="26" cy="16" r="4" fill="#FF4545"/>
</svg>
