<svg width="31" height="30" viewBox="0 0 31 30" fill="none" xmlns="http://www.w3.org/2000/svg">
<rect x="0.5" width="30" height="30" rx="15" fill="#0370F3"/>
<path d="M23.1448 13.6079L21.3095 13.1566C21.1992 12.8087 21.0573 12.4713 20.8861 12.1486C21.1616 11.6899 21.7407 10.7245 21.7407 10.7245C21.8515 10.54 21.8222 10.3038 21.6702 10.1518L20.3445 8.82616C20.1926 8.67372 19.9568 8.64444 19.7719 8.75566L18.3455 9.61031C18.0246 9.44047 17.689 9.29994 17.3434 9.19053L16.8921 7.35525C16.8399 7.1465 16.6527 7 16.4375 7H14.5625C14.3473 7 14.1597 7.1465 14.1079 7.35522C14.1079 7.35522 13.7953 8.63616 13.657 9.19006C13.2885 9.30678 12.9324 9.45831 12.5932 9.64325L11.1142 8.75566C10.9292 8.64578 10.6939 8.67419 10.5415 8.82616L9.21581 10.1518C9.06384 10.3038 9.03453 10.54 9.14531 10.7245L10.0599 12.2521C9.91253 12.5427 9.78894 12.8453 9.69053 13.1552L7.85525 13.6079C7.6465 13.6601 7.5 13.8473 7.5 14.0625V15.9375C7.5 16.1527 7.6465 16.3403 7.85522 16.3921L9.69097 16.8434C9.80222 17.1963 9.94684 17.5392 10.1222 17.8683L9.30372 19.2325C9.19294 19.4169 9.22225 19.6532 9.37422 19.8051L10.6999 21.1308C10.8514 21.2823 11.0876 21.3112 11.2726 21.2013C11.2726 21.2013 12.1904 20.6511 12.6399 20.3819C12.9654 20.5554 13.3059 20.6987 13.6571 20.8099L14.108 22.6447C14.1597 22.8535 14.3473 23 14.5625 23H16.4375C16.6527 23 16.8399 22.8535 16.8921 22.6448L17.343 20.8099C17.7042 20.6955 18.052 20.5476 18.383 20.3682C18.8449 20.6451 19.7718 21.2013 19.7718 21.2013C19.9563 21.3116 20.1925 21.2832 20.3445 21.1308L21.6702 19.8051C21.8222 19.6532 21.8515 19.4169 21.7407 19.2325L20.8979 17.8285C21.0641 17.5131 21.2019 17.1831 21.3095 16.8434L23.1447 16.3921C23.3535 16.3399 23.5 16.1527 23.5 15.9375V14.0625C23.5 13.8473 23.3535 13.6601 23.1448 13.6079ZM15.5 18.2812C13.6909 18.2812 12.2188 16.8091 12.2188 15C12.2188 13.1909 13.6909 11.7188 15.5 11.7188C17.3091 11.7188 18.7812 13.1909 18.7812 15C18.7812 16.8091 17.3091 18.2812 15.5 18.2812Z" fill="white"/>
</svg>
