<svg width="31" height="30" viewBox="0 0 31 30" fill="none" xmlns="http://www.w3.org/2000/svg">
<rect x="0.5" width="30" height="30" rx="15" fill="#11BFD7"/>
<path d="M20.8657 12.2517C20.3743 10.5031 18.78 9.28027 16.9114 9.28027C15.8886 9.28027 14.9 9.66313 14.1457 10.3431C13.7857 10.2403 13.4143 10.1888 13.0314 10.1888C11.46 10.1888 10.0714 11.0746 9.48857 12.4231C8.30571 12.8917 7.5 14.1031 7.5 15.4688C7.5 16.9717 8.47143 18.246 9.78571 18.606V17.2917C9.78571 15.7146 11.0657 14.4346 12.6429 14.4346H18.3571C19.9343 14.4346 21.2143 15.7146 21.2143 17.2917V18.606C22.5286 18.246 23.5 16.9774 23.5 15.4688C23.5 13.8288 22.3514 12.4688 20.8657 12.2517Z" fill="white"/>
<path d="M18.3583 15.5781H12.644C11.7011 15.5781 10.9297 16.3496 10.9297 17.2924V19.0067C10.9297 19.9553 11.7011 20.721 12.644 20.721H18.3583C19.3011 20.721 20.0725 19.9553 20.0725 19.0067V17.2924C20.0725 16.3496 19.3011 15.5781 18.3583 15.5781ZM18.3583 18.1496C18.3583 18.4638 18.1011 18.721 17.7868 18.721H15.5011C15.1868 18.721 14.9297 18.4638 14.9297 18.1496C14.9297 17.8353 15.1868 17.5781 15.5011 17.5781H17.7868C18.1011 17.5781 18.3583 17.8353 18.3583 18.1496ZM14.084 18.1496C14.084 18.4638 13.8268 18.721 13.5125 18.721C13.1983 18.721 12.9411 18.4638 12.9411 18.1496C12.9411 17.8353 13.1925 17.5781 13.5068 17.5781H13.5125C13.8268 17.5781 14.084 17.8353 14.084 18.1496Z" fill="white"/>
</svg>
