<svg width="31" height="30" viewBox="0 0 31 30" fill="none" xmlns="http://www.w3.org/2000/svg">
<rect x="0.5" width="30" height="30" rx="15" fill="#37D37F"/>
<path d="M8.4375 15C8.4375 11.1057 11.6057 7.9375 15.5 7.9375C16.8148 7.9375 18.0468 8.299 19.102 8.92734C19.1933 8.71619 19.3245 8.51831 19.4968 8.346C19.5568 8.286 19.6204 8.231 19.6866 8.18028C18.4398 7.4115 17.0017 7 15.5 7C13.3631 7 11.3542 7.83216 9.84313 9.34313C8.33216 10.8542 7.5 12.8631 7.5 15C7.5 16.5017 7.91156 17.94 8.68041 19.1869C8.73081 19.1208 8.78569 19.0571 8.846 18.9968C9.01594 18.8269 9.21288 18.694 9.42691 18.6011C8.79881 17.546 8.4375 16.3145 8.4375 15Z" fill="white"/>
<path d="M20.8242 10.6162C21.0651 10.6162 21.3061 10.5243 21.4899 10.3405C21.8575 9.9728 21.8575 9.37674 21.4899 9.00912C21.3061 8.8253 21.0652 8.7334 20.8242 8.7334C20.5833 8.7334 20.3424 8.8253 20.1585 9.00912C19.7909 9.37674 19.7909 9.97284 20.1585 10.3405C20.3423 10.5243 20.5833 10.6162 20.8242 10.6162Z" fill="white"/>
<path d="M22.3188 10.8125C22.2684 10.8785 22.2135 10.9423 22.1532 11.0026C21.9833 11.1725 21.7863 11.3054 21.5724 11.3982C22.2004 12.4533 22.5617 13.6849 22.5617 14.9994C22.5617 18.8937 19.3935 22.0619 15.4992 22.0619C14.1843 22.0619 12.9525 21.7004 11.8972 21.0719C11.806 21.2831 11.6747 21.4811 11.5024 21.6534C11.4424 21.7134 11.3788 21.7684 11.3125 21.8191C12.5594 22.5879 13.9975 22.9994 15.4992 22.9994C17.6361 22.9994 19.645 22.1672 21.1561 20.6562C22.667 19.1452 23.4992 17.1363 23.4992 14.9994C23.4992 13.4976 23.0876 12.0594 22.3188 10.8125Z" fill="white"/>
<path d="M10.1758 19.3838C9.93487 19.3838 9.69396 19.4757 9.51012 19.6595C9.14246 20.0272 9.14246 20.6232 9.51012 20.9909C9.69393 21.1747 9.93487 21.2666 10.1758 21.2666C10.4167 21.2666 10.6576 21.1747 10.8415 20.9909C11.2091 20.6232 11.2091 20.0271 10.8415 19.6595C10.6577 19.4757 10.4167 19.3838 10.1758 19.3838Z" fill="white"/>
<path d="M15.8902 19.7056L18.7298 14.6767L18.5149 14.1626L15.9684 13.4709V10.2939H15.1091L12.2695 15.3228L12.4844 15.8369L15.0309 16.5287V19.7056H15.8902Z" fill="white"/>
</svg>
