<svg width="30" height="30" viewBox="0 0 30 30" fill="none" xmlns="http://www.w3.org/2000/svg">
<path d="M29.9992 15.0904C29.9992 6.85438 23.3226 0.177734 15.0865 0.177734C6.85047 0.177734 0.173828 6.85438 0.173828 15.0904C0.173828 23.3265 6.85047 30.0031 15.0865 30.0031C23.3226 30.0031 29.9992 23.3265 29.9992 15.0904Z" fill="url(#paint0_linear_437_1183)"/>
<path opacity="0.1" d="M26.3111 5.2792C24.1369 9.27031 21.0622 13.387 17.2202 17.229C13.3782 21.071 9.26153 24.1398 5.27631 26.314C5.02645 26.0968 4.78379 25.8705 4.54833 25.635C3.12506 24.2593 1.98993 22.6139 1.20913 20.795C0.428332 18.976 0.017484 17.0197 0.000545995 15.0403C-0.016392 13.0609 0.360919 11.0979 1.11048 9.26582C1.86004 7.43373 2.96684 5.76921 4.36636 4.3693C5.76587 2.9694 7.43009 1.86212 9.26197 1.11205C11.0938 0.361984 13.0567 -0.0158745 15.0361 0.000510951C17.0156 0.0168964 18.9719 0.427198 20.7911 1.20749C22.6103 1.98779 24.256 3.12245 25.6321 4.54534C25.8676 4.7808 26.0939 5.02542 26.3111 5.2792Z" fill="white"/>
<path d="M18.619 7.24158H11.5551C10.4102 7.24158 9.31222 7.69639 8.50265 8.50595C7.69309 9.31551 7.23828 10.4135 7.23828 11.5584V18.6223C7.23828 19.7672 7.69309 20.8652 8.50265 21.6748C9.31222 22.4844 10.4102 22.9392 11.5551 22.9392H18.619C19.7639 22.9392 20.8619 22.4844 21.6715 21.6748C22.4811 20.8652 22.9359 19.7672 22.9359 18.6223V11.5584C22.9359 10.4135 22.4811 9.31551 21.6715 8.50595C20.8619 7.69639 19.7639 7.24158 18.619 7.24158ZM21.5623 18.0023C21.5623 18.9473 21.1869 19.8537 20.5186 20.5219C19.8504 21.1902 18.944 21.5656 17.999 21.5656H12.1752C11.2301 21.5656 10.3238 21.1902 9.6555 20.5219C8.98724 19.8537 8.61182 18.9473 8.61182 18.0023V12.1785C8.61182 11.2334 8.98724 10.3271 9.6555 9.6588C10.3238 8.99054 11.2301 8.61512 12.1752 8.61512H17.999C18.944 8.61512 19.8504 8.99054 20.5186 9.6588C21.1869 10.3271 21.5623 11.2334 21.5623 12.1785V18.0023Z" fill="white"/>
<path d="M17.9498 12.2568L17.9125 12.2195L17.8811 12.1881C17.1392 11.4487 16.1344 11.0338 15.087 11.0343C14.558 11.0379 14.035 11.1457 13.5477 11.3515C13.0605 11.5573 12.6185 11.8571 12.2472 12.2337C11.8758 12.6104 11.5823 13.0565 11.3834 13.5466C11.1845 14.0367 11.0841 14.5612 11.088 15.0902C11.0872 16.1636 11.5103 17.1939 12.2653 17.9569C12.6351 18.3312 13.0758 18.6281 13.5616 18.8303C14.0474 19.0324 14.5686 19.1358 15.0948 19.1343C15.8841 19.1177 16.6515 18.8718 17.3034 18.4266C17.9553 17.9814 18.4636 17.3562 18.7663 16.627C19.069 15.8979 19.153 15.0965 19.008 14.3205C18.863 13.5445 18.4953 12.8274 17.9498 12.2568ZM15.087 17.7509C14.5592 17.7583 14.0411 17.6086 13.5987 17.3207C13.1563 17.0329 12.8094 16.62 12.6023 16.1345C12.3952 15.649 12.3372 15.1129 12.4356 14.5943C12.534 14.0757 12.7844 13.5982 13.155 13.2223C13.5256 12.8465 13.9996 12.5893 14.5167 12.4836C15.0339 12.3779 15.5707 12.4284 16.0591 12.6286C16.5475 12.8288 16.9652 13.1698 17.2593 13.6081C17.5533 14.0465 17.7104 14.5623 17.7104 15.0902C17.713 15.4372 17.6472 15.7813 17.5167 16.1028C17.3862 16.4244 17.1937 16.7171 16.9501 16.9642C16.7064 17.2113 16.4165 17.4079 16.0968 17.5429C15.7771 17.6779 15.434 17.7486 15.087 17.7509Z" fill="white"/>
<path d="M20.2742 10.8482C20.2752 10.9741 20.2514 11.099 20.2041 11.2157C20.1568 11.3324 20.087 11.4386 19.9986 11.5283C19.9102 11.618 19.805 11.6893 19.689 11.7383C19.573 11.7872 19.4484 11.8128 19.3225 11.8136C19.1977 11.8135 19.0741 11.7887 18.9589 11.7405C18.8437 11.6924 18.7392 11.6218 18.6514 11.533C18.5185 11.3981 18.4281 11.2272 18.3914 11.0414C18.3547 10.8556 18.3733 10.6632 18.445 10.4879C18.5166 10.3126 18.6382 10.1622 18.7945 10.0553C18.9509 9.94847 19.1351 9.88984 19.3245 9.88672C19.5461 9.88668 19.7607 9.96446 19.9308 10.1065L19.9504 10.1261C19.9821 10.1519 20.011 10.1808 20.0368 10.2124L20.0583 10.236C20.1988 10.409 20.2751 10.6253 20.2742 10.8482Z" fill="white"/>
<defs>
<linearGradient id="paint0_linear_437_1183" x1="4.54168" y1="4.54559" x2="25.6314" y2="25.6353" gradientUnits="userSpaceOnUse">
<stop stop-color="#FAE100"/>
<stop offset="0.15" stop-color="#FCB720"/>
<stop offset="0.3" stop-color="#FF7950"/>
<stop offset="0.5" stop-color="#FF1C74"/>
<stop offset="1" stop-color="#6C1CD1"/>
</linearGradient>
</defs>
</svg>
