<svg width="243" height="46" viewBox="0 0 243 46" fill="none" xmlns="http://www.w3.org/2000/svg">
<path d="M109.142 37L101.738 19.3737H107.013L113.172 34.5428H110.551L116.94 19.3737H121.854L114.417 37H109.142ZM130.569 37.2621C128.56 37.2621 126.791 36.8689 125.262 36.0826C123.755 35.2963 122.586 34.2261 121.756 32.8719C120.926 31.4959 120.511 29.9342 120.511 28.1869C120.511 26.4177 120.915 24.856 121.723 23.5018C122.553 22.1258 123.678 21.0555 125.098 20.2911C126.518 19.5048 128.123 19.1116 129.914 19.1116C131.639 19.1116 133.19 19.4829 134.566 20.2256C135.964 20.9463 137.067 21.9947 137.875 23.3708C138.683 24.725 139.087 26.3522 139.087 28.2524C139.087 28.449 139.077 28.6783 139.055 28.9404C139.033 29.1807 139.011 29.41 138.989 29.6284H124.672V26.647H136.303L134.337 27.5316C134.337 26.6143 134.151 25.817 133.78 25.1399C133.409 24.4629 132.895 23.9387 132.24 23.5673C131.585 23.1742 130.82 22.9776 129.947 22.9776C129.073 22.9776 128.298 23.1742 127.621 23.5673C126.965 23.9387 126.452 24.4738 126.081 25.1727C125.709 25.8498 125.524 26.6579 125.524 27.5971V28.3834C125.524 29.3445 125.731 30.1963 126.146 30.9389C126.583 31.6597 127.184 32.2167 127.948 32.6098C128.735 32.9811 129.652 33.1668 130.7 33.1668C131.639 33.1668 132.459 33.0248 133.157 32.7409C133.878 32.4569 134.533 32.031 135.123 31.4631L137.843 34.4118C137.034 35.3291 136.019 36.039 134.796 36.5413C133.572 37.0218 132.164 37.2621 130.569 37.2621ZM140.852 37V19.3737H145.734V24.3536L145.046 22.9121C145.57 21.6671 146.411 20.7279 147.568 20.0945C148.726 19.4393 150.135 19.1116 151.795 19.1116V23.8294C151.576 23.8076 151.38 23.7967 151.205 23.7967C151.03 23.7748 150.845 23.7639 150.648 23.7639C149.25 23.7639 148.114 24.168 147.241 24.9761C146.389 25.7624 145.963 26.9965 145.963 28.6783V37H140.852ZM153.492 37V14.0662H157.882L167.645 30.2509H165.319L174.919 14.0662H179.276L179.342 37H174.362L174.329 21.6999H175.246L167.58 34.5756H165.188L157.358 21.6999H158.472V37H153.492ZM182.784 37V19.3737H187.895V37H182.784ZM185.34 16.9165C184.401 16.9165 183.636 16.6435 183.046 16.0975C182.457 15.5514 182.162 14.8743 182.162 14.0662C182.162 13.2581 182.457 12.581 183.046 12.0349C183.636 11.4889 184.401 11.2159 185.34 11.2159C186.279 11.2159 187.043 11.478 187.633 12.0022C188.223 12.5045 188.518 13.1598 188.518 13.9679C188.518 14.8197 188.223 15.5296 187.633 16.0975C187.065 16.6435 186.301 16.9165 185.34 16.9165ZM201.714 19.1116C203.112 19.1116 204.357 19.3956 205.449 19.9635C206.563 20.5095 207.436 21.3613 208.07 22.5189C208.703 23.6547 209.02 25.1181 209.02 26.9091V37H203.909V27.6954C203.909 26.2757 203.592 25.2273 202.959 24.5502C202.347 23.8731 201.474 23.5346 200.338 23.5346C199.53 23.5346 198.798 23.7093 198.143 24.0588C197.509 24.3864 197.007 24.8997 196.636 25.5986C196.286 26.2976 196.112 27.1931 196.112 28.2852V37H191.001V19.3737H195.882V24.2554L194.965 22.781C195.598 21.6016 196.505 20.6952 197.684 20.0618C198.864 19.4283 200.207 19.1116 201.714 19.1116ZM220.89 37.2621C218.881 37.2621 217.112 36.8689 215.583 36.0826C214.076 35.2963 212.907 34.2261 212.077 32.8719C211.247 31.4959 210.832 29.9342 210.832 28.1869C210.832 26.4177 211.236 24.856 212.044 23.5018C212.874 22.1258 213.999 21.0555 215.419 20.2911C216.839 19.5048 218.444 19.1116 220.235 19.1116C221.96 19.1116 223.511 19.4829 224.887 20.2256C226.285 20.9463 227.388 21.9947 228.196 23.3708C229.004 24.725 229.409 26.3522 229.409 28.2524C229.409 28.449 229.398 28.6783 229.376 28.9404C229.354 29.1807 229.332 29.41 229.31 29.6284H214.993V26.647H226.624L224.658 27.5316C224.658 26.6143 224.472 25.817 224.101 25.1399C223.73 24.4629 223.216 23.9387 222.561 23.5673C221.906 23.1742 221.141 22.9776 220.268 22.9776C219.394 22.9776 218.619 23.1742 217.942 23.5673C217.286 23.9387 216.773 24.4738 216.402 25.1727C216.03 25.8498 215.845 26.6579 215.845 27.5971V28.3834C215.845 29.3445 216.052 30.1963 216.467 30.9389C216.904 31.6597 217.505 32.2167 218.269 32.6098C219.056 32.9811 219.973 33.1668 221.021 33.1668C221.96 33.1668 222.78 33.0248 223.478 32.7409C224.199 32.4569 224.855 32.031 225.444 31.4631L228.164 34.4118C227.355 35.3291 226.34 36.039 225.117 36.5413C223.893 37.0218 222.485 37.2621 220.89 37.2621ZM231.173 37V19.3737H236.055V24.3536L235.367 22.9121C235.891 21.6671 236.732 20.7279 237.889 20.0945C239.047 19.4393 240.456 19.1116 242.116 19.1116V23.8294C241.897 23.8076 241.701 23.7967 241.526 23.7967C241.351 23.7748 241.166 23.7639 240.969 23.7639C239.571 23.7639 238.435 24.168 237.562 24.9761C236.71 25.7624 236.284 26.9965 236.284 28.6783V37H231.173Z" fill="black"/>
<path d="M94.678 25.904V21.192H81.53V25.904H94.678ZM91.182 9.944C89.1807 9.944 87.344 10.286 85.672 10.97C84 11.6287 82.5433 12.5787 81.302 13.82C80.0607 15.0613 79.098 16.518 78.414 18.19C77.73 19.862 77.388 21.6987 77.388 23.7C77.388 25.7013 77.73 27.538 78.414 29.21C79.098 30.882 80.0607 32.3387 81.302 33.58C82.5433 34.8213 84 35.784 85.672 36.468C87.344 37.1267 89.1807 37.456 91.182 37.456C93.538 37.456 95.666 37.0507 97.566 36.24C99.4407 35.4293 101.011 34.2513 102.278 32.706L98.364 29.058C97.4267 30.122 96.388 30.92 95.248 31.452C94.108 31.9587 92.854 32.212 91.486 32.212C90.346 32.212 89.2947 32.0093 88.332 31.604C87.344 31.1733 86.508 30.5907 85.824 29.856C85.1147 29.096 84.5827 28.1967 84.228 27.158C83.848 26.1193 83.658 24.9667 83.658 23.7C83.658 22.4333 83.848 21.2807 84.228 20.242C84.5827 19.2033 85.1147 18.3167 85.824 17.582C86.508 16.822 87.344 16.2393 88.332 15.834C89.2947 15.4033 90.346 15.188 91.486 15.188C92.854 15.188 94.108 15.454 95.248 15.986C96.388 16.4927 97.4267 17.278 98.364 18.342L102.278 14.694C101.011 13.1487 99.4407 11.9707 97.566 11.16C95.666 10.3493 93.538 9.944 91.182 9.944Z" fill="black"/>
<path d="M25.897 26.5041V19.1195H0V26.5041H25.897ZM21.7703 7C19.3667 7 17.1802 7.39095 15.211 8.17285C13.2128 8.9258 11.4897 10.0118 10.0418 11.4308C8.59379 12.8498 7.47885 14.5294 6.69695 16.4697C5.88609 18.41 5.48066 20.553 5.48066 22.8987C5.48066 25.2444 5.88609 27.3874 6.69695 29.3277C7.47885 31.2679 8.59379 32.9476 10.0418 34.3666C11.4897 35.7856 13.2128 36.8861 15.211 37.668C17.1802 38.4209 19.3667 38.7974 21.7703 38.7974C24.7531 38.7974 27.4029 38.2761 29.7196 37.2336C32.0074 36.1621 33.9043 34.6562 35.4102 32.7159L28.9377 26.9385C28.04 28.0679 27.0554 28.9512 25.9839 29.5883C24.8834 30.1964 23.6527 30.5005 22.2916 30.5005C21.278 30.5005 20.3802 30.3268 19.5983 29.9793C18.7875 29.6317 18.1069 29.125 17.5567 28.4589C16.9775 27.7928 16.5431 26.9964 16.2535 26.0697C15.9639 25.1141 15.8191 24.0571 15.8191 22.8987C15.8191 21.7403 15.9639 20.6978 16.2535 19.7711C16.5431 18.8154 16.9775 18.0046 17.5567 17.3385C18.1069 16.6724 18.7875 16.1656 19.5983 15.8181C20.3802 15.4706 21.278 15.2969 22.2916 15.2969C23.6527 15.2969 24.8834 15.6154 25.9839 16.2525C27.0554 16.8607 28.04 17.7294 28.9377 18.8589L35.4102 13.0815C33.9043 11.1122 32.0074 9.60634 29.7196 8.56381C27.4029 7.52127 24.7531 7 21.7703 7Z" fill="black"/>
<path d="M51.0009 8.65234C47.514 8.65234 44.0681 10.0564 40.9203 12.7276C43.8592 16.5571 46.2369 21.1499 46.2369 21.1499C47.4289 19.9022 49.2237 18.4151 51.0007 18.4151C53.8706 18.4151 56.2061 20.7362 56.2061 23.5902C56.2061 26.4441 53.8706 28.7655 51.0007 28.7655C47.6965 28.7655 45.1302 24.4225 44.0234 22.9995C40.5234 18.4995 38.0234 15.9995 37.0234 14.9995L30.5 20.9995C32.5 23.4995 33.6195 25.4065 35.5234 27.9995C37.9447 31.2971 41.8826 38.5289 51.0009 38.5289C59.2857 38.5289 66.026 31.8275 66.026 23.5902C66.026 15.3528 59.2857 8.65234 51.0009 8.65234Z" fill="url(#paint0_linear_437_1476)"/>
<defs>
<linearGradient id="paint0_linear_437_1476" x1="37.5" y1="23.9995" x2="58.9526" y2="47.4349" gradientUnits="userSpaceOnUse">
<stop offset="0.298667" stop-color="#3171D0"/>
<stop offset="0.299342" stop-color="#003E9A"/>
<stop offset="0.511401" stop-color="#1D62CA"/>
</linearGradient>
</defs>
</svg>
