<svg width="212" height="41" viewBox="0 0 212 41" fill="none" xmlns="http://www.w3.org/2000/svg">
<path d="M94.8327 33.2695L88.3729 17.8918H92.9748L98.3484 31.1257H96.0617L101.635 17.8918H105.923L99.4345 33.2695H94.8327ZM113.526 33.4981C111.773 33.4981 110.23 33.1551 108.896 32.4691C107.581 31.7832 106.561 30.8494 105.837 29.668C105.113 28.4675 104.751 27.1051 104.751 25.5806C104.751 24.0371 105.104 22.6747 105.809 21.4933C106.533 20.2928 107.514 19.3591 108.753 18.6921C109.991 18.0061 111.392 17.6631 112.955 17.6631C114.46 17.6631 115.813 17.9871 117.013 18.635C118.233 19.2638 119.195 20.1784 119.9 21.3789C120.605 22.5604 120.958 23.98 120.958 25.6378C120.958 25.8093 120.948 26.0094 120.929 26.238C120.91 26.4477 120.891 26.6477 120.872 26.8383H108.381V24.2372H118.528L116.813 25.009C116.813 24.2086 116.651 23.5131 116.327 22.9224C116.003 22.3317 115.556 21.8744 114.984 21.5504C114.412 21.2074 113.745 21.0359 112.983 21.0359C112.221 21.0359 111.544 21.2074 110.954 21.5504C110.382 21.8744 109.934 22.3412 109.61 22.951C109.286 23.5417 109.124 24.2468 109.124 25.0661V25.7521C109.124 26.5906 109.305 27.3337 109.667 27.9816C110.049 28.6104 110.573 29.0963 111.24 29.4393C111.926 29.7633 112.726 29.9253 113.641 29.9253C114.46 29.9253 115.174 29.8014 115.784 29.5537C116.413 29.306 116.985 28.9344 117.499 28.4389L119.872 31.0114C119.167 31.8117 118.281 32.431 117.213 32.8693C116.146 33.2885 114.917 33.4981 113.526 33.4981ZM122.497 33.2695V17.8918H126.756V22.2364L126.156 20.9788C126.613 19.8926 127.347 19.0732 128.357 18.5206C129.367 17.949 130.596 17.6631 132.044 17.6631V21.7791C131.853 21.76 131.682 21.7505 131.529 21.7505C131.377 21.7314 131.215 21.7219 131.044 21.7219C129.824 21.7219 128.833 22.0744 128.071 22.7795C127.328 23.4655 126.956 24.5421 126.956 26.0094V33.2695H122.497ZM133.525 33.2695V13.2613H137.355L145.873 27.3814H143.843L152.218 13.2613H156.02L156.077 33.2695H151.732L151.704 19.9212H152.504L145.815 31.1543H143.729L136.898 19.9212H137.869V33.2695H133.525ZM159.08 33.2695V17.8918H163.539V33.2695H159.08ZM161.31 15.7481C160.49 15.7481 159.823 15.5099 159.309 15.0335C158.794 14.5571 158.537 13.9664 158.537 13.2613C158.537 12.5563 158.794 11.9656 159.309 11.4892C159.823 11.0128 160.49 10.7746 161.31 10.7746C162.129 10.7746 162.796 11.0033 163.31 11.4606C163.825 11.8989 164.082 12.4705 164.082 13.1756C164.082 13.9188 163.825 14.5381 163.31 15.0335C162.815 15.5099 162.148 15.7481 161.31 15.7481ZM175.595 17.6631C176.814 17.6631 177.901 17.9108 178.853 18.4063C179.825 18.8827 180.587 19.6258 181.14 20.6358C181.693 21.6266 181.969 22.9034 181.969 24.4659V33.2695H177.51V25.1519C177.51 23.9133 177.234 22.9986 176.681 22.4079C176.148 21.8172 175.385 21.5218 174.394 21.5218C173.689 21.5218 173.051 21.6743 172.479 21.9792C171.927 22.265 171.489 22.7128 171.165 23.3226C170.86 23.9323 170.707 24.7136 170.707 25.6664V33.2695H166.248V17.8918H170.507V22.1507L169.707 20.8644C170.259 19.8354 171.05 19.0446 172.079 18.492C173.108 17.9394 174.28 17.6631 175.595 17.6631ZM192.325 33.4981C190.572 33.4981 189.028 33.1551 187.694 32.4691C186.38 31.7832 185.36 30.8494 184.636 29.668C183.912 28.4675 183.55 27.1051 183.55 25.5806C183.55 24.0371 183.902 22.6747 184.608 21.4933C185.332 20.2928 186.313 19.3591 187.552 18.6921C188.79 18.0061 190.191 17.6631 191.753 17.6631C193.259 17.6631 194.612 17.9871 195.812 18.635C197.032 19.2638 197.994 20.1784 198.699 21.3789C199.404 22.5604 199.757 23.98 199.757 25.6378C199.757 25.8093 199.747 26.0094 199.728 26.238C199.709 26.4477 199.69 26.6477 199.671 26.8383H187.18V24.2372H197.327L195.612 25.009C195.612 24.2086 195.45 23.5131 195.126 22.9224C194.802 22.3317 194.354 21.8744 193.783 21.5504C193.211 21.2074 192.544 21.0359 191.782 21.0359C191.02 21.0359 190.343 21.2074 189.752 21.5504C189.181 21.8744 188.733 22.3412 188.409 22.951C188.085 23.5417 187.923 24.2468 187.923 25.0661V25.7521C187.923 26.5906 188.104 27.3337 188.466 27.9816C188.847 28.6104 189.371 29.0963 190.038 29.4393C190.724 29.7633 191.525 29.9253 192.439 29.9253C193.259 29.9253 193.973 29.8014 194.583 29.5537C195.212 29.306 195.783 28.9344 196.298 28.4389L198.67 31.0114C197.965 31.8117 197.079 32.431 196.012 32.8693C194.945 33.2885 193.716 33.4981 192.325 33.4981ZM201.296 33.2695V17.8918H205.555V22.2364L204.955 20.9788C205.412 19.8926 206.146 19.0732 207.156 18.5206C208.165 17.949 209.395 17.6631 210.843 17.6631V21.7791C210.652 21.76 210.481 21.7505 210.328 21.7505C210.176 21.7314 210.014 21.7219 209.842 21.7219C208.623 21.7219 207.632 22.0744 206.87 22.7795C206.127 23.4655 205.755 24.5421 205.755 26.0094V33.2695H201.296Z" fill="black"/>
<path d="M82.2103 23.2512V19.1403H70.7396V23.2512H82.2103ZM79.1603 9.32718C77.4143 9.32718 75.8119 9.62555 74.3532 10.2223C72.8945 10.7969 71.6237 11.6257 70.5407 12.7087C69.4577 13.7917 68.6179 15.0625 68.0211 16.5212C67.4244 17.9799 67.126 19.5823 67.126 21.3283C67.126 23.0743 67.4244 24.6767 68.0211 26.1354C68.6179 27.5941 69.4577 28.865 70.5407 29.9479C71.6237 31.0309 72.8945 31.8708 74.3532 32.4675C75.8119 33.0421 77.4143 33.3295 79.1603 33.3295C81.2158 33.3295 83.0723 32.9758 84.7299 32.2686C86.3654 31.5613 87.7357 30.5336 88.8408 29.1854L85.4261 26.0028C84.6084 26.9311 83.7022 27.6273 82.7076 28.0914C81.7131 28.5334 80.619 28.7544 79.4255 28.7544C78.431 28.7544 77.5138 28.5776 76.6739 28.224C75.8119 27.8483 75.0826 27.3399 74.4858 26.699C73.867 26.036 73.4029 25.2514 73.0935 24.3452C72.7619 23.439 72.5962 22.4334 72.5962 21.3283C72.5962 20.2232 72.7619 19.2176 73.0935 18.3115C73.4029 17.4053 73.867 16.6317 74.4858 15.9908C75.0826 15.3278 75.8119 14.8194 76.6739 14.4658C77.5138 14.0901 78.431 13.9022 79.4255 13.9022C80.619 13.9022 81.7131 14.1343 82.7076 14.5984C83.7022 15.0404 84.6084 15.7256 85.4261 16.6538L88.8408 13.4712C87.7357 12.123 86.3654 11.0953 84.7299 10.3881C83.0723 9.6808 81.2158 9.32718 79.1603 9.32718Z" fill="black"/>
<path d="M22.4963 23.9243V17.5179H0.00120354V23.9243H22.4963ZM18.9117 7.00385C16.8238 7.00385 14.9246 7.34301 13.214 8.02134C11.4783 8.67454 9.9816 9.61666 8.72384 10.8477C7.46609 12.0787 6.49761 13.5359 5.81842 15.2191C5.11408 16.9024 4.76191 18.7615 4.76191 20.7965C4.76191 22.8315 5.11408 24.6906 5.81842 26.3739C6.49761 28.0571 7.46609 29.5143 8.72384 30.7453C9.9816 31.9763 11.4783 32.931 13.214 33.6094C14.9246 34.2626 16.8238 34.5892 18.9117 34.5892C21.5027 34.5892 23.8044 34.1369 25.8168 33.2325C27.804 32.3029 29.4517 30.9965 30.7598 29.3133L25.1376 24.3012C24.3578 25.281 23.5025 26.0473 22.5718 26.6C21.6159 27.1276 20.5468 27.3913 19.3645 27.3913C18.484 27.3913 17.7042 27.2406 17.025 26.9391C16.3207 26.6377 15.7296 26.198 15.2516 25.6202C14.7485 25.0423 14.3712 24.3514 14.1196 23.5475C13.8681 22.7184 13.7423 21.8014 13.7423 20.7965C13.7423 19.7916 13.8681 18.8871 14.1196 18.0832C14.3712 17.2541 14.7485 16.5507 15.2516 15.9728C15.7296 15.395 16.3207 14.9553 17.025 14.6539C17.7042 14.3524 18.484 14.2017 19.3645 14.2017C20.5468 14.2017 21.6159 14.478 22.5718 15.0307C23.5025 15.5583 24.3578 16.312 25.1376 17.2918L30.7598 12.2797C29.4517 10.5713 27.804 9.26494 25.8168 8.3605C23.8044 7.45606 21.5027 7.00385 18.9117 7.00385Z" fill="black"/>
<path d="M44.3 8.43713C41.2712 8.43713 38.2779 9.65522 35.5436 11.9726C38.0965 15.2948 40.1618 19.2792 40.1618 19.2792C41.1972 18.1968 42.7563 16.9066 44.2999 16.9066C46.7927 16.9066 48.8215 18.9203 48.8215 21.3962C48.8215 23.8721 46.7927 25.886 44.2999 25.886C41.4297 25.886 39.2005 22.1183 38.2391 20.8838C35.1989 16.9799 33.0273 14.8111 32.1587 13.9435L26.4922 19.1487C28.2295 21.3176 29.2019 22.9719 30.8557 25.2215C32.959 28.0823 36.3795 34.3561 44.3 34.3561C51.4965 34.3561 57.3513 28.5424 57.3513 21.3962C57.3513 14.25 51.4965 8.43713 44.3 8.43713Z" fill="url(#paint0_linear_371_1572)"/>
<defs>
<linearGradient id="paint0_linear_371_1572" x1="32.5726" y1="21.7513" x2="51.1814" y2="42.1059" gradientUnits="userSpaceOnUse">
<stop offset="0.298667" stop-color="#3171D0"/>
<stop offset="0.299342" stop-color="#003E9A"/>
<stop offset="0.511401" stop-color="#1D62CA"/>
</linearGradient>
</defs>
</svg>
