<svg width="122" height="180" viewBox="0 0 122 180" fill="none" xmlns="http://www.w3.org/2000/svg">
<rect x="2" y="2" width="118" height="176" rx="13" fill="#F5F7F9"/>
<rect x="2" y="2" width="118" height="176" rx="13" stroke="white" stroke-width="4"/>
<path d="M21.1646 10.456H26.7326V12.168H21.1646V10.456ZM21.3246 15.256H27.6446V17H19.2446V5.8H27.4206V7.544H21.3246V15.256ZM31.134 17L27.47 8.456H29.55L32.702 15.992H31.678L34.942 8.456H36.862L33.198 17H31.134ZM41.0936 17.112C40.1443 17.112 39.3123 16.9253 38.5976 16.552C37.8936 16.168 37.3443 15.6453 36.9496 14.984C36.5656 14.3227 36.3736 13.5707 36.3736 12.728C36.3736 11.8747 36.5603 11.1227 36.9336 10.472C37.3176 9.81067 37.8403 9.29333 38.5016 8.92C39.1736 8.54667 39.9363 8.36 40.7896 8.36C41.6216 8.36 42.363 8.54133 43.0136 8.904C43.6643 9.26667 44.1763 9.77867 44.5496 10.44C44.923 11.1013 45.1096 11.88 45.1096 12.776C45.1096 12.8613 45.1043 12.9573 45.0936 13.064C45.0936 13.1707 45.0883 13.272 45.0776 13.368H37.9576V12.04H44.0216L43.2376 12.456C43.2483 11.9653 43.147 11.5333 42.9336 11.16C42.7203 10.7867 42.427 10.4933 42.0536 10.28C41.691 10.0667 41.2696 9.96 40.7896 9.96C40.299 9.96 39.867 10.0667 39.4936 10.28C39.131 10.4933 38.843 10.792 38.6296 11.176C38.427 11.5493 38.3256 11.992 38.3256 12.504V12.824C38.3256 13.336 38.443 13.7893 38.6776 14.184C38.9123 14.5787 39.243 14.8827 39.6696 15.096C40.0963 15.3093 40.587 15.416 41.1416 15.416C41.6216 15.416 42.0536 15.3413 42.4376 15.192C42.8216 15.0427 43.163 14.808 43.4616 14.488L44.5336 15.72C44.1496 16.168 43.6643 16.5147 43.0776 16.76C42.5016 16.9947 41.8403 17.112 41.0936 17.112ZM46.2307 17V8.456H48.1347V10.808L47.9107 10.12C48.1667 9.544 48.5667 9.10667 49.1107 8.808C49.6654 8.50933 50.3534 8.36 51.1747 8.36V10.264C51.0894 10.2427 51.0094 10.232 50.9347 10.232C50.8601 10.2213 50.7854 10.216 50.7107 10.216C49.9534 10.216 49.3507 10.44 48.9027 10.888C48.4547 11.3253 48.2307 11.9813 48.2307 12.856V17H46.2307ZM52.2009 17V5.8H53.9129L58.8089 13.976H57.9129L62.7289 5.8H64.4409L64.4569 17H62.4889L62.4729 8.888H62.8889L58.7929 15.72H57.8649L53.7049 8.888H54.1849V17H52.2009ZM66.4901 17V8.456H68.4901V17H66.4901ZM67.4981 7.048C67.1248 7.048 66.8155 6.93067 66.5701 6.696C66.3355 6.46133 66.2181 6.17867 66.2181 5.848C66.2181 5.50667 66.3355 5.224 66.5701 5C66.8155 4.76533 67.1248 4.648 67.4981 4.648C67.8715 4.648 68.1755 4.76 68.4101 4.984C68.6555 5.19733 68.7781 5.46933 68.7781 5.8C68.7781 6.152 68.6608 6.45067 68.4261 6.696C68.1915 6.93067 67.8821 7.048 67.4981 7.048ZM75.1631 8.36C75.8458 8.36 76.4538 8.49333 76.9871 8.76C77.5311 9.02667 77.9578 9.43733 78.2671 9.992C78.5765 10.536 78.7311 11.24 78.7311 12.104V17H76.7311V12.36C76.7311 11.6027 76.5498 11.0373 76.1871 10.664C75.8351 10.2907 75.3391 10.104 74.6991 10.104C74.2298 10.104 73.8138 10.2 73.4511 10.392C73.0885 10.584 72.8058 10.872 72.6031 11.256C72.4111 11.6293 72.3151 12.104 72.3151 12.68V17H70.3151V8.456H72.2191V10.76L71.8831 10.056C72.1818 9.512 72.6138 9.096 73.1791 8.808C73.7551 8.50933 74.4165 8.36 75.1631 8.36ZM80.4683 17V8.456H82.4683V17L80.4683 17ZM81.4763 7.048C81.1029 7.048 80.7936 6.93067 80.5483 6.696C80.3136 6.46133 80.1963 6.17867 80.1963 5.848C80.1963 5.50667 80.3136 5.224 80.5483 5C80.7936 4.76533 81.1029 4.648 81.4763 4.648C81.8496 4.648 82.1536 4.76 82.3883 4.984C82.6336 5.19733 82.7563 5.46933 82.7563 5.8C82.7563 6.152 82.6389 6.45067 82.4043 6.696C82.1696 6.93067 81.8603 7.048 81.4763 7.048ZM89.1412 8.36C89.8239 8.36 90.4319 8.49333 90.9652 8.76C91.5092 9.02667 91.9359 9.43733 92.2452 9.992C92.5546 10.536 92.7092 11.24 92.7092 12.104V17H90.7092V12.36C90.7092 11.6027 90.5279 11.0373 90.1652 10.664C89.8132 10.2907 89.3172 10.104 88.6772 10.104C88.2079 10.104 87.7919 10.2 87.4292 10.392C87.0666 10.584 86.7839 10.872 86.5812 11.256C86.3892 11.6293 86.2932 12.104 86.2932 12.68V17H84.2932V8.456H86.1972V10.76L85.8612 10.056C86.1599 9.512 86.5919 9.096 87.1572 8.808C87.7332 8.50933 88.3946 8.36 89.1412 8.36ZM98.334 20.216C97.5447 20.216 96.7713 20.1093 96.014 19.896C95.2673 19.6933 94.654 19.3947 94.174 19L95.07 17.496C95.4433 17.8053 95.9127 18.0507 96.478 18.232C97.054 18.424 97.6353 18.52 98.222 18.52C99.1607 18.52 99.8487 18.3013 100.286 17.864C100.723 17.4373 100.942 16.792 100.942 15.928V14.408L101.102 12.472L101.038 10.536V8.456H102.942V15.704C102.942 17.2507 102.547 18.3867 101.758 19.112C100.969 19.848 99.8273 20.216 98.334 20.216ZM98.078 16.616C97.2673 16.616 96.5313 16.4453 95.87 16.104C95.2193 15.752 94.702 15.2667 94.318 14.648C93.9447 14.0293 93.758 13.304 93.758 12.472C93.758 11.6507 93.9447 10.9307 94.318 10.312C94.702 9.69333 95.2193 9.21333 95.87 8.872C96.5313 8.53067 97.2673 8.36 98.078 8.36C98.8033 8.36 99.454 8.504 100.03 8.792C100.606 9.08 101.065 9.528 101.406 10.136C101.758 10.744 101.934 11.5227 101.934 12.472C101.934 13.4213 101.758 14.2053 101.406 14.824C101.065 15.432 100.606 15.8853 100.03 16.184C99.454 16.472 98.8033 16.616 98.078 16.616ZM98.382 14.92C98.8833 14.92 99.3313 14.8187 99.726 14.616C100.121 14.4027 100.425 14.1147 100.638 13.752C100.862 13.3787 100.974 12.952 100.974 12.472C100.974 11.992 100.862 11.5707 100.638 11.208C100.425 10.8347 100.121 10.552 99.726 10.36C99.3313 10.1573 98.8833 10.056 98.382 10.056C97.8807 10.056 97.4273 10.1573 97.022 10.36C96.6273 10.552 96.318 10.8347 96.094 11.208C95.8807 11.5707 95.774 11.992 95.774 12.472C95.774 12.952 95.8807 13.3787 96.094 13.752C96.318 14.1147 96.6273 14.4027 97.022 14.616C97.4273 14.8187 97.8807 14.92 98.382 14.92Z" fill="black"/>
<path d="M49.9602 41.9432C51.3239 41.9432 52.5682 42.142 53.6932 42.5398C54.8182 42.9261 55.8295 43.4261 56.7273 44.0398C57.6364 44.6534 58.4318 45.2898 59.1136 45.9489C59.4318 46.2443 59.7102 46.5284 59.9489 46.8011C60.1989 47.0625 60.4432 47.3295 60.6818 47.6023C60.8977 47.3295 61.125 47.0625 61.3636 46.8011C61.6023 46.5398 61.8864 46.2557 62.2159 45.9489C63.25 44.9489 64.5341 44.0341 66.0682 43.2045C67.6136 42.3636 69.392 41.9432 71.4034 41.9432C73.3125 41.9432 75.0511 42.4034 76.6193 43.3239C78.1875 44.2443 79.4318 45.4773 80.3523 47.0227C81.2841 48.5682 81.75 50.2727 81.75 52.1364C81.75 53.5455 81.483 54.8693 80.9489 56.108C80.4148 57.3466 79.6705 58.4318 78.7159 59.3636C77.7727 60.2955 76.6761 61.0227 75.4261 61.5455C74.1761 62.0682 72.8352 62.3295 71.4034 62.3295C70.0398 62.3295 68.7955 62.142 67.6705 61.767C66.5455 61.3807 65.5341 60.892 64.6364 60.3011C63.7386 59.7102 62.9489 59.0966 62.267 58.4602C61.9261 58.1307 61.6307 57.8295 61.3807 57.5568C61.1307 57.2841 60.8977 57.0114 60.6818 56.7386C60.4318 57.0227 60.1818 57.3068 59.9318 57.5909C59.6818 57.8636 59.3977 58.1534 59.0795 58.4602C58.4205 59.0739 57.642 59.6818 56.7443 60.2841C55.8466 60.875 54.8295 61.3636 53.6932 61.75C52.5682 62.1364 51.3239 62.3295 49.9602 62.3295C48.0511 62.3295 46.3125 61.875 44.7443 60.9659C43.1761 60.0455 41.9261 58.8182 40.9943 57.2841C40.0625 55.7386 39.5966 54.0227 39.5966 52.1364C39.5966 50.7386 39.8636 49.4261 40.3977 48.1989C40.9318 46.9716 41.6705 45.892 42.6136 44.9602C43.5682 44.017 44.6705 43.2784 45.9205 42.7443C47.1818 42.2102 48.5284 41.9432 49.9602 41.9432ZM45.1534 52.1364C45.1534 53 45.3693 53.7898 45.8011 54.5057C46.233 55.2102 46.8125 55.7727 47.5398 56.1932C48.267 56.6023 49.0739 56.8068 49.9602 56.8068C50.9943 56.8068 51.9375 56.5909 52.7898 56.1591C53.6534 55.7159 54.4716 55.1364 55.2443 54.4205C55.6989 54 56.0852 53.5966 56.4034 53.2102C56.7216 52.8125 56.9943 52.4545 57.2216 52.1364C56.983 51.8182 56.6761 51.4489 56.3011 51.0284C55.9375 50.608 55.5852 50.2386 55.2443 49.9205C54.5284 49.2386 53.7273 48.6591 52.8409 48.1818C51.9545 47.7045 50.9943 47.4659 49.9602 47.4659C49.0739 47.4659 48.267 47.6818 47.5398 48.1136C46.8125 48.5341 46.233 49.1023 45.8011 49.8182C45.3693 50.5227 45.1534 51.2955 45.1534 52.1364ZM76.1761 52.1364C76.1761 51.2955 75.9602 50.5227 75.5284 49.8182C75.0966 49.1023 74.517 48.5341 73.7898 48.1136C73.0739 47.6818 72.2784 47.4659 71.4034 47.4659C70.6989 47.4659 70.0284 47.5795 69.392 47.8068C68.767 48.0227 68.1761 48.3182 67.6193 48.6932C67.0625 49.0568 66.5568 49.4659 66.1023 49.9205C65.6932 50.3068 65.3011 50.7216 64.9261 51.1648C64.5625 51.608 64.2955 51.9318 64.125 52.1364C64.3864 52.5 64.6761 52.8693 64.9943 53.2443C65.3125 53.6193 65.6818 54.0114 66.1023 54.4205C66.8523 55.125 67.6591 55.6989 68.5227 56.142C69.3864 56.5852 70.3466 56.8068 71.4034 56.8068C72.2784 56.8068 73.0739 56.6023 73.7898 56.1932C74.517 55.7727 75.0966 55.2102 75.5284 54.5057C75.9602 53.7898 76.1761 53 76.1761 52.1364Z" fill="black"/>
<rect x="20.998" y="79" width="80.0049" height="27" rx="13.5" fill="#0370F3"/>
<path d="M32.314 98V88.2H33.812L38.096 95.354H37.312L41.526 88.2H43.024L43.038 98H41.316L41.302 90.902H41.666L38.082 96.88H37.27L33.63 90.902H34.05V98H32.314ZM44.8171 98V90.524H46.5671V98H44.8171ZM45.6991 89.292C45.3725 89.292 45.1018 89.1893 44.8871 88.984C44.6818 88.7787 44.5791 88.5313 44.5791 88.242C44.5791 87.9433 44.6818 87.696 44.8871 87.5C45.1018 87.2947 45.3725 87.192 45.6991 87.192C46.0258 87.192 46.2918 87.29 46.4971 87.486C46.7118 87.6727 46.8191 87.9107 46.8191 88.2C46.8191 88.508 46.7165 88.7693 46.5111 88.984C46.3058 89.1893 46.0351 89.292 45.6991 89.292ZM52.406 90.44C53.0033 90.44 53.5353 90.5567 54.002 90.79C54.478 91.0233 54.8513 91.3827 55.122 91.868C55.3927 92.344 55.528 92.96 55.528 93.716V98H53.778V93.94C53.778 93.2773 53.6193 92.7827 53.302 92.456C52.994 92.1293 52.56 91.966 52 91.966C51.5893 91.966 51.2253 92.05 50.908 92.218C50.5907 92.386 50.3433 92.638 50.166 92.974C49.998 93.3007 49.914 93.716 49.914 94.22V98H48.164V90.524H49.83V92.54L49.536 91.924C49.7973 91.448 50.1753 91.084 50.67 90.832C51.174 90.5707 51.7527 90.44 52.406 90.44ZM57.048 98V90.524H58.798V98H57.048ZM57.93 89.292C57.6033 89.292 57.3327 89.1893 57.118 88.984C56.9127 88.7787 56.81 88.5313 56.81 88.242C56.81 87.9433 56.9127 87.696 57.118 87.5C57.3327 87.2947 57.6033 87.192 57.93 87.192C58.2567 87.192 58.5227 87.29 58.728 87.486C58.9427 87.6727 59.05 87.9107 59.05 88.2C59.05 88.508 58.9473 88.7693 58.742 88.984C58.5367 89.1893 58.266 89.292 57.93 89.292ZM64.6369 90.44C65.2342 90.44 65.7662 90.5567 66.2329 90.79C66.7089 91.0233 67.0822 91.3827 67.3529 91.868C67.6235 92.344 67.7589 92.96 67.7589 93.716V98H66.0089V93.94C66.0089 93.2773 65.8502 92.7827 65.5329 92.456C65.2249 92.1293 64.7909 91.966 64.2309 91.966C63.8202 91.966 63.4562 92.05 63.1389 92.218C62.8215 92.386 62.5742 92.638 62.3969 92.974C62.2289 93.3007 62.1449 93.716 62.1449 94.22V98H60.3949V90.524H62.0609V92.54L61.7669 91.924C62.0282 91.448 62.4062 91.084 62.9009 90.832C63.4049 90.5707 63.9835 90.44 64.6369 90.44ZM72.6805 100.814C71.9899 100.814 71.3132 100.721 70.6505 100.534C69.9972 100.357 69.4605 100.095 69.0405 99.75L69.8245 98.434C70.1512 98.7047 70.5619 98.9193 71.0565 99.078C71.5605 99.246 72.0692 99.33 72.5825 99.33C73.4039 99.33 74.0059 99.1387 74.3885 98.756C74.7712 98.3827 74.9625 97.818 74.9625 97.062V95.732L75.1025 94.038L75.0465 92.344V90.524H76.7125V96.866C76.7125 98.2193 76.3672 99.2133 75.6765 99.848C74.9859 100.492 73.9872 100.814 72.6805 100.814ZM72.4565 97.664C71.7472 97.664 71.1032 97.5147 70.5245 97.216C69.9552 96.908 69.5025 96.4833 69.1665 95.942C68.8399 95.4007 68.6765 94.766 68.6765 94.038C68.6765 93.3193 68.8399 92.6893 69.1665 92.148C69.5025 91.6067 69.9552 91.1867 70.5245 90.888C71.1032 90.5893 71.7472 90.44 72.4565 90.44C73.0912 90.44 73.6605 90.566 74.1645 90.818C74.6685 91.07 75.0699 91.462 75.3685 91.994C75.6765 92.526 75.8305 93.2073 75.8305 94.038C75.8305 94.8687 75.6765 95.5547 75.3685 96.096C75.0699 96.628 74.6685 97.0247 74.1645 97.286C73.6605 97.538 73.0912 97.664 72.4565 97.664ZM72.7225 96.18C73.1612 96.18 73.5532 96.0913 73.8985 95.914C74.2439 95.7273 74.5099 95.4753 74.6965 95.158C74.8925 94.8313 74.9905 94.458 74.9905 94.038C74.9905 93.618 74.8925 93.2493 74.6965 92.932C74.5099 92.6053 74.2439 92.358 73.8985 92.19C73.5532 92.0127 73.1612 91.924 72.7225 91.924C72.2839 91.924 71.8872 92.0127 71.5325 92.19C71.1872 92.358 70.9165 92.6053 70.7205 92.932C70.5339 93.2493 70.4405 93.618 70.4405 94.038C70.4405 94.458 70.5339 94.8313 70.7205 95.158C70.9165 95.4753 71.1872 95.7273 71.5325 95.914C71.8872 96.0913 72.2839 96.18 72.7225 96.18Z" fill="white"/>
<path d="M90.9503 87.6377C90.9462 87.618 90.9366 87.5998 90.9225 87.5853C90.9085 87.5708 90.8906 87.5607 90.871 87.556C89.563 87.2362 86.5407 88.3758 84.9033 90.0126C84.6112 90.3023 84.345 90.6169 84.1076 90.9528C83.6026 90.9081 83.0977 90.9454 82.6673 91.133C81.4531 91.6674 81.0996 93.0619 81.0011 93.6617C80.9955 93.6946 80.9976 93.7282 81.0073 93.7601C81.0169 93.792 81.0338 93.8212 81.0566 93.8455C81.0795 93.8697 81.1076 93.8883 81.1389 93.8998C81.1701 93.9114 81.2036 93.9155 81.2367 93.9119L83.1866 93.6968C83.188 93.8438 83.1968 93.9906 83.2131 94.1367C83.223 94.2382 83.268 94.333 83.3404 94.4047L84.0955 95.158C84.1673 95.2304 84.2621 95.2754 84.3635 95.2853C84.5088 95.3016 84.6548 95.3104 84.801 95.3119L84.587 97.2593C84.5835 97.2924 84.5876 97.3259 84.5992 97.3571C84.6107 97.3883 84.6293 97.4164 84.6535 97.4393C84.6778 97.4621 84.707 97.479 84.7388 97.4886C84.7707 97.4983 84.8043 97.5004 84.8372 97.4949C85.4359 97.3989 86.8328 97.0453 87.3641 95.8311C87.5517 95.4008 87.5901 94.8983 87.5468 94.3958C87.8835 94.1584 88.1989 93.8921 88.4894 93.5999C90.132 91.9656 91.2652 89.0107 90.9503 87.6377ZM86.8507 91.6502C86.7007 91.5003 86.5985 91.3093 86.5571 91.1014C86.5157 90.8934 86.5369 90.6778 86.618 90.4819C86.6991 90.286 86.8365 90.1186 87.0128 90.0007C87.1891 89.8829 87.3964 89.82 87.6084 89.82C87.8205 89.82 88.0277 89.8829 88.204 90.0007C88.3803 90.1186 88.5177 90.286 88.5989 90.4819C88.68 90.6778 88.7012 90.8934 88.6597 91.1014C88.6183 91.3093 88.5162 91.5003 88.3662 91.6502C88.2667 91.7498 88.1486 91.8288 88.0186 91.8828C87.8885 91.9367 87.7492 91.9644 87.6084 91.9644C87.4677 91.9644 87.3283 91.9367 87.1983 91.8828C87.0683 91.8288 86.9501 91.7498 86.8507 91.6502Z" fill="white"/>
<path d="M84.0443 95.7036C83.9219 95.8262 83.7256 95.874 83.4893 95.9148C82.9585 96.0053 82.4897 95.5466 82.5851 95.0099C82.6215 94.8065 82.7291 94.5213 82.7961 94.4543C82.8108 94.4399 82.8205 94.4213 82.824 94.4011C82.8275 94.3809 82.8245 94.3601 82.8155 94.3417C82.8064 94.3233 82.7918 94.3082 82.7737 94.2985C82.7556 94.2888 82.735 94.2851 82.7146 94.2879C82.4178 94.3242 82.1416 94.4588 81.9301 94.6702C81.405 95.1957 81.3555 97.1456 81.3555 97.1456C81.3555 97.1456 83.3064 97.096 83.8315 96.5705C84.0436 96.3592 84.1783 96.0826 84.214 95.7853C84.2223 95.692 84.1086 95.6364 84.0443 95.7036Z" fill="white"/>
<g clip-path="url(#clip0_516_300)">
<g clip-path="url(#clip1_516_300)">
<path d="M111 176C113.761 176 116.024 173.756 115.773 171.006C114.611 158.251 109.022 146.24 99.8909 137.109C89.5764 126.795 75.5869 121 61 121C46.4131 121 32.4236 126.795 22.1091 137.109C12.9783 146.24 7.38946 158.251 6.227 171.006C5.97638 173.756 8.23858 176 11 176H16.4766C19.238 176 21.4439 173.752 21.7923 171.013C22.8915 162.37 26.826 154.279 33.0527 148.053C40.4648 140.641 50.5177 136.477 61 136.477C71.4823 136.477 81.5352 140.641 88.9473 148.053C95.174 154.279 99.1085 162.37 100.208 171.013C100.556 173.752 102.762 176 105.523 176H111Z" fill="#F5F7F9"/>
<path d="M11 176C8.23858 176 5.9764 173.757 6.22708 171.007C7.14967 160.885 10.8634 151.182 17.0004 142.999C24.1409 133.479 34.1767 126.531 45.6014 123.2C57.026 119.868 69.2232 120.331 80.362 124.521C89.9354 128.121 98.2832 134.307 104.502 142.346C106.191 144.53 105.49 147.638 103.161 149.122L98.5434 152.066C96.2149 153.551 93.1466 152.841 91.3802 150.719C87.0172 145.476 81.351 141.428 74.9137 139.007C66.9092 135.996 58.1443 135.663 49.9344 138.057C41.7246 140.452 34.5128 145.444 29.3816 152.286C25.2549 157.788 22.653 164.247 21.7924 171.013C21.444 173.753 19.238 176 16.4766 176H11Z" fill="#38D37F"/>
<path d="M71.2116 154.674L51.6705 156.05C50.6865 156.119 50.3865 157.42 51.2407 157.914L58.3581 162.023C58.7354 162.241 58.9282 162.678 58.8348 163.103L57.3663 169.792C57.1463 170.795 58.3979 171.439 59.0854 170.677L72.0241 156.342C72.6273 155.674 72.1095 154.611 71.2116 154.674Z" fill="black"/>
</g>
</g>
<defs>
<clipPath id="clip0_516_300">
<rect width="110" height="58" fill="white" transform="translate(6 121)"/>
</clipPath>
<clipPath id="clip1_516_300">
<rect width="110" height="110" fill="white" transform="translate(6 121)"/>
</clipPath>
</defs>
</svg>
