<svg width="20" height="21" viewBox="0 0 20 21" fill="none" xmlns="http://www.w3.org/2000/svg">
<g id="Frame 128">
<g id="Group">
<g id="Group_2">
<g id="Group_3">
<path id="Vector" d="M13.3828 13.8669C13.7711 13.8669 14.0859 13.5521 14.0859 13.1638C14.0859 12.7755 13.7711 12.4607 13.3828 12.4607C12.9945 12.4607 12.6797 12.7755 12.6797 13.1638C12.6797 13.5521 12.9945 13.8669 13.3828 13.8669Z" fill="white"/>
<path id="Vector_2" d="M9.86716 17.5937H4.31249C3.53709 17.5937 2.90625 16.9629 2.90625 16.1875V10.4218C2.90625 9.64644 3.53709 9.0156 4.31249 9.0156H14.4375C15.2129 9.0156 15.8437 9.64644 15.8437 10.4218V11.8281C15.8437 12.2164 16.1585 12.5312 16.5468 12.5312C16.9352 12.5312 17.25 12.2164 17.25 11.8281V10.4218C17.25 8.87104 15.9883 7.60936 14.4375 7.60936H13.5924V5.12965C13.5924 2.85255 11.6999 1 9.37367 1C7.04746 1 5.15494 2.85255 5.15494 5.12965V7.60936H4.31249C2.76168 7.60936 1.5 8.87104 1.5 10.4218V16.1875C1.5 17.7383 2.76168 18.9999 4.31249 18.9999H9.86716C10.2555 18.9999 10.5703 18.6852 10.5703 18.2968C10.5703 17.9085 10.2555 17.5937 9.86716 17.5937ZM6.56118 5.12965C6.56118 3.62796 7.82287 2.40625 9.37367 2.40625C10.9245 2.40625 12.1862 3.62796 12.1862 5.12965V7.60936H6.56118V5.12965Z" fill="white"/>
<path id="Vector_3" d="M19.2062 12.4516C18.8905 12.2255 18.4512 12.2982 18.2252 12.614L14.7595 17.455C14.6649 17.5647 14.5462 17.5884 14.4827 17.5926C14.4175 17.597 14.292 17.5887 14.1815 17.485L11.9418 15.2993C11.6638 15.0281 11.2187 15.0336 10.9475 15.3115C10.6763 15.5894 10.6817 16.0345 10.9596 16.3058L13.2033 18.4953C13.2054 18.4974 13.2075 18.4994 13.2096 18.5014C13.5459 18.8216 13.9949 18.9998 14.4569 18.9998C14.4966 18.9998 14.5364 18.9985 14.5762 18.9958C15.0794 18.9623 15.5493 18.7175 15.8652 18.3244C15.8734 18.3142 15.8812 18.3039 15.8889 18.2932L19.3687 13.4326C19.5947 13.1168 19.522 12.6776 19.2062 12.4516Z" fill="white"/>
<path id="Vector_4" d="M10.7109 13.8669C11.0993 13.8669 11.4141 13.5521 11.4141 13.1638C11.4141 12.7755 11.0993 12.4607 10.7109 12.4607C10.3226 12.4607 10.0078 12.7755 10.0078 13.1638C10.0078 13.5521 10.3226 13.8669 10.7109 13.8669Z" fill="white"/>
<path id="Vector_5" d="M5.4375 13.8669C5.82582 13.8669 6.14062 13.5521 6.14062 13.1638C6.14062 12.7755 5.82582 12.4607 5.4375 12.4607C5.04917 12.4607 4.73438 12.7755 4.73438 13.1638C4.73438 13.5521 5.04917 13.8669 5.4375 13.8669Z" fill="white"/>
<path id="Vector_6" d="M8.07422 13.8669C8.46254 13.8669 8.77734 13.5521 8.77734 13.1638C8.77734 12.7755 8.46254 12.4607 8.07422 12.4607C7.68589 12.4607 7.37109 12.7755 7.37109 13.1638C7.37109 13.5521 7.68589 13.8669 8.07422 13.8669Z" fill="white"/>
</g>
</g>
</g>
</g>
</svg>
