<svg width="24" height="24" viewBox="0 0 24 24" fill="none" xmlns="http://www.w3.org/2000/svg">
<rect width="24" height="24" rx="12" fill="#DEE4EB"/>
<path d="M12.4393 19H11.5607C10.85 19 10.2718 18.4218 10.2718 17.7112V17.414C9.96973 17.3174 9.67619 17.1956 9.3942 17.0497L9.18354 17.2603C8.67333 17.7711 7.85605 17.7562 7.36067 17.2601L6.73966 16.6391C6.2434 16.1434 6.22913 15.3264 6.73983 14.8163L6.95032 14.6058C6.80439 14.3238 6.68257 14.0303 6.58602 13.7281H6.28879C5.57818 13.7281 5 13.15 5 12.4393V11.5607C5 10.85 5.57818 10.2719 6.28882 10.2719H6.58605C6.6826 9.96973 6.80441 9.67622 6.95035 9.39422L6.73969 9.18359C6.22929 8.67374 6.24338 7.85666 6.73986 7.36072L7.36091 6.73969C7.85745 6.24247 8.67454 6.23006 9.18376 6.73986L9.39422 6.95032C9.67622 6.80441 9.96975 6.68257 10.2719 6.58602V6.28879C10.2719 5.57816 10.85 5 11.5607 5H12.4393C13.15 5 13.7281 5.57816 13.7281 6.28879V6.58605C14.0302 6.68257 14.3238 6.80441 14.6058 6.95035L14.8164 6.73969C15.3266 6.22886 16.1439 6.24384 16.6393 6.73988L17.2603 7.36086C17.7566 7.85657 17.7708 8.67358 17.2601 9.18373L17.0497 9.39422C17.1956 9.67622 17.3174 9.9697 17.414 10.2719H17.7112C18.4218 10.2719 19 10.85 19 11.5607V12.4393C19 13.15 18.4218 13.7281 17.7112 13.7281H17.414C17.3174 14.0303 17.1956 14.3238 17.0497 14.6058L17.2603 14.8164C17.7707 15.3263 17.7566 16.1434 17.2601 16.6393L16.6391 17.2603C16.1426 17.7576 15.3255 17.77 14.8162 17.2602L14.6058 17.0497C14.3238 17.1956 14.0302 17.3175 13.7281 17.414V17.7113C13.7281 18.4218 13.15 19 12.4393 19ZM9.53132 16.1882C9.92308 16.4199 10.3447 16.595 10.7845 16.7085C10.9656 16.7552 11.0922 16.9185 11.0922 17.1056V17.7112C11.0922 17.9695 11.3024 18.1797 11.5607 18.1797H12.4393C12.6976 18.1797 12.9078 17.9695 12.9078 17.7112V17.1056C12.9078 16.9185 13.0344 16.7552 13.2155 16.7085C13.6553 16.595 14.0769 16.4199 14.4687 16.1882C14.6299 16.0929 14.8351 16.1188 14.9675 16.2513L15.3965 16.6803C15.5815 16.8654 15.8785 16.8611 16.0589 16.6805L16.6803 16.059C16.8603 15.8793 16.8663 15.5822 16.6805 15.3966L16.2513 14.9675C16.1189 14.8351 16.093 14.6298 16.1883 14.4687C16.42 14.0769 16.595 13.6553 16.7085 13.2155C16.7552 13.0344 16.9186 12.9078 17.1056 12.9078H17.7112C17.9695 12.9078 18.1797 12.6977 18.1797 12.4394V11.5607C18.1797 11.3024 17.9695 11.0922 17.7112 11.0922H17.1056C16.9186 11.0922 16.7552 10.9657 16.7085 10.7846C16.595 10.3447 16.42 9.92311 16.1883 9.53138C16.093 9.37021 16.1189 9.16497 16.2513 9.03257L16.6803 8.60358C16.8658 8.41835 16.8609 8.1214 16.6805 7.94118L16.0591 7.31979C15.879 7.13943 15.5819 7.13415 15.3967 7.31962L14.9676 7.74879C14.8352 7.88121 14.6299 7.90713 14.4687 7.81181C14.077 7.58013 13.6553 7.4051 13.2155 7.2916C13.0344 7.24487 12.9079 7.08152 12.9079 6.89446V6.28879C12.9079 6.03048 12.6977 5.82031 12.4394 5.82031H11.5607C11.3024 5.82031 11.0922 6.03048 11.0922 6.28879V6.8944C11.0922 7.08146 10.9657 7.24481 10.7845 7.29154C10.3447 7.40505 9.92311 7.58007 9.53135 7.81176C9.37013 7.90705 9.16492 7.88113 9.03252 7.74873L8.60355 7.31973C8.4186 7.13456 8.12156 7.13886 7.94118 7.31954L7.31973 7.94096C7.13976 8.12071 7.13374 8.41775 7.31957 8.60336L7.74873 9.03252C7.88113 9.16492 7.90705 9.37016 7.81176 9.53132C7.58007 9.92305 7.40507 10.3447 7.29157 10.7845C7.24481 10.9656 7.08146 11.0922 6.89443 11.0922H6.28882C6.0305 11.0922 5.82031 11.3024 5.82031 11.5607V12.4393C5.82031 12.6976 6.0305 12.9078 6.28882 12.9078H6.8944C7.08146 12.9078 7.24479 13.0344 7.29154 13.2155C7.40505 13.6553 7.58007 14.0769 7.81173 14.4686C7.90702 14.6298 7.8811 14.8351 7.7487 14.9675L7.31971 15.3965C7.13426 15.5817 7.1391 15.8786 7.31954 16.0589L7.94093 16.6802C8.12104 16.8606 8.41811 16.8659 8.60333 16.6804L9.03246 16.2512C9.13003 16.1537 9.333 16.0709 9.53132 16.1882Z" fill="#A8B0B7"/>
<path d="M12 15C10.3458 15 9 13.6542 9 12C9 10.3458 10.3458 9 12 9C13.6542 9 15 10.3458 15 12C15 13.6542 13.6542 15 12 15ZM12 9.8079C10.7912 9.8079 9.8079 10.7913 9.8079 12C9.8079 13.2087 10.7913 14.1921 12 14.1921C13.2087 14.1921 14.1921 13.2087 14.1921 12C14.1921 10.7913 13.2088 9.8079 12 9.8079Z" fill="#A8B0B7"/>
</svg>
