<svg width="125" height="21" viewBox="0 0 125 21" fill="none" xmlns="http://www.w3.org/2000/svg">
<path d="M10.0245 1.46353C10.1741 1.00287 10.8259 1.00287 10.9755 1.46353L12.7451 6.90983C12.8121 7.11584 13.0041 7.25532 13.2207 7.25532H18.9473C19.4316 7.25532 19.633 7.87513 19.2411 8.15983L14.6082 11.5258C14.433 11.6532 14.3597 11.8788 14.4266 12.0848L16.1962 17.5312C16.3459 17.9918 15.8187 18.3749 15.4268 18.0902L10.7939 14.7242C10.6186 14.5968 10.3814 14.5968 10.2061 14.7242L5.5732 18.0902C5.18135 18.3749 4.65411 17.9918 4.80378 17.5312L6.57339 12.0848C6.64033 11.8788 6.567 11.6532 6.39176 11.5258L1.75886 8.15983C1.367 7.87513 1.56839 7.25532 2.05275 7.25532H7.77933C7.99594 7.25532 8.18792 7.11584 8.25486 6.90983L10.0245 1.46353Z" fill="#FFC700"/>
<path d="M36.0245 1.46353C36.1741 1.00287 36.8259 1.00287 36.9755 1.46353L38.7451 6.90983C38.8121 7.11584 39.0041 7.25532 39.2207 7.25532H44.9473C45.4316 7.25532 45.633 7.87513 45.2411 8.15983L40.6082 11.5258C40.433 11.6532 40.3597 11.8788 40.4266 12.0848L42.1962 17.5312C42.3459 17.9918 41.8187 18.3749 41.4268 18.0902L36.7939 14.7242C36.6186 14.5968 36.3814 14.5968 36.2061 14.7242L31.5732 18.0902C31.1813 18.3749 30.6541 17.9918 30.8038 17.5312L32.5734 12.0848C32.6403 11.8788 32.567 11.6532 32.3918 11.5258L27.7589 8.15983C27.367 7.87513 27.5684 7.25532 28.0527 7.25532H33.7793C33.9959 7.25532 34.1879 7.11584 34.2549 6.90983L36.0245 1.46353Z" fill="#FFC700"/>
<path d="M62.0245 1.46353C62.1741 1.00287 62.8259 1.00287 62.9755 1.46353L64.7451 6.90983C64.8121 7.11584 65.0041 7.25532 65.2207 7.25532H70.9473C71.4316 7.25532 71.633 7.87513 71.2411 8.15983L66.6082 11.5258C66.433 11.6532 66.3597 11.8788 66.4266 12.0848L68.1962 17.5312C68.3459 17.9918 67.8187 18.3749 67.4268 18.0902L62.7939 14.7242C62.6186 14.5968 62.3814 14.5968 62.2061 14.7242L57.5732 18.0902C57.1813 18.3749 56.6541 17.9918 56.8038 17.5312L58.5734 12.0848C58.6403 11.8788 58.567 11.6532 58.3918 11.5258L53.7589 8.15983C53.367 7.87513 53.5684 7.25532 54.0527 7.25532H59.7793C59.9959 7.25532 60.1879 7.11584 60.2549 6.90983L62.0245 1.46353Z" fill="#FFC700"/>
<path d="M88.0245 1.46353C88.1741 1.00287 88.8259 1.00287 88.9755 1.46353L90.7451 6.90983C90.8121 7.11584 91.0041 7.25532 91.2207 7.25532H96.9473C97.4316 7.25532 97.633 7.87513 97.2411 8.15983L92.6082 11.5258C92.433 11.6532 92.3597 11.8788 92.4266 12.0848L94.1962 17.5312C94.3459 17.9918 93.8187 18.3749 93.4268 18.0902L88.7939 14.7242C88.6186 14.5968 88.3814 14.5968 88.2061 14.7242L83.5732 18.0902C83.1813 18.3749 82.6541 17.9918 82.8038 17.5312L84.5734 12.0848C84.6403 11.8788 84.567 11.6532 84.3918 11.5258L79.7589 8.15983C79.367 7.87513 79.5684 7.25532 80.0527 7.25532H85.7793C85.9959 7.25532 86.1879 7.11584 86.2549 6.90983L88.0245 1.46353Z" fill="#FFC700"/>
<path d="M114.024 1.46353C114.174 1.00287 114.826 1.00287 114.976 1.46353L116.745 6.90983C116.812 7.11584 117.004 7.25532 117.221 7.25532H122.947C123.432 7.25532 123.633 7.87513 123.241 8.15983L118.608 11.5258C118.433 11.6532 118.36 11.8788 118.427 12.0848L120.196 17.5312C120.346 17.9918 119.819 18.3749 119.427 18.0902L114.794 14.7242C114.619 14.5968 114.381 14.5968 114.206 14.7242L109.573 18.0902C109.181 18.3749 108.654 17.9918 108.804 17.5312L110.573 12.0848C110.64 11.8788 110.567 11.6532 110.392 11.5258L105.759 8.15983C105.367 7.87513 105.568 7.25532 106.053 7.25532H111.779C111.996 7.25532 112.188 7.11584 112.255 6.90983L114.024 1.46353Z" fill="#FFC700"/>
</svg>
