<svg width="30" height="30" viewBox="0 0 30 30" fill="none" xmlns="http://www.w3.org/2000/svg">
<circle cx="15" cy="15.0015" r="15" fill="#0075FF"/>
<path d="M14.6434 18.9339C14.3921 19.2041 14.1524 19.4749 13.8987 19.7316C13.5005 20.1353 13.0911 20.5288 12.6895 20.9291C12.5803 21.0379 12.4663 21.1201 12.3063 21.0514C12.1434 20.9813 12.1309 20.8411 12.142 20.6869C12.2198 19.6025 12.2923 18.5176 12.3773 17.4342C12.3841 17.3472 12.4561 17.2485 12.5252 17.1847C14.0253 15.7943 15.5298 14.4082 17.0332 13.0216C17.6808 12.4241 18.3279 11.827 18.975 11.2289C19.0147 11.1922 19.0649 11.1588 19.0872 11.1129C19.107 11.0718 19.1133 11.0007 19.0905 10.9693C19.0673 10.9379 18.9978 10.9234 18.9528 10.9306C18.9026 10.9389 18.8571 10.9785 18.8112 11.007C15.9546 12.7576 13.0979 14.5078 10.2437 16.2623C10.1286 16.3328 10.0334 16.3396 9.90875 16.2966C8.7542 15.8982 7.59723 15.5056 6.44075 15.1116C6.15078 15.013 6.00967 14.8515 6.00048 14.6045C5.99082 14.3497 6.12614 14.1723 6.41852 14.0601C10.582 12.4627 14.7459 10.8654 18.9093 9.26801C19.5782 9.01129 20.2485 8.75989 20.914 8.49495C21.2687 8.35378 21.5983 8.35717 21.8955 8.61195C22.1932 8.86674 22.2478 9.19356 22.1652 9.56631C21.5084 12.5406 20.856 15.5163 20.2016 18.491C19.9919 19.4454 19.7821 20.3997 19.569 21.3536C19.4361 21.9478 18.8808 22.1475 18.3932 21.7781C17.2396 20.904 16.0875 20.028 14.9348 19.1534C14.858 19.0954 14.7812 19.0378 14.6429 18.9339H14.6434Z" fill="white"/>
</svg>
